<?xml version="1.0" encoding="UTF-8" standalone="no"?>
<!-- Created with Inkscape (http://www.inkscape.org/) -->

<svg
   width="374.70892mm"
   height="244.41989mm"
   viewBox="0 0 374.70892 244.41989"
   version="1.1"
   id="svg1"
   xml:space="preserve"
   xmlns:inkscape="http://www.inkscape.org/namespaces/inkscape"
   xmlns:sodipodi="http://sodipodi.sourceforge.net/DTD/sodipodi-0.dtd"
   xmlns="http://www.w3.org/2000/svg"
   xmlns:svg="http://www.w3.org/2000/svg"><sodipodi:namedview
     id="namedview1"
     pagecolor="#ffffff"
     bordercolor="#000000"
     borderopacity="0.25"
     inkscape:showpageshadow="2"
     inkscape:pageopacity="0.0"
     inkscape:pagecheckerboard="0"
     inkscape:deskcolor="#d1d1d1"
     inkscape:document-units="mm"><inkscape:page
       x="0"
       y="0"
       width="374.70892"
       height="244.41989"
       id="page2"
       margin="0"
       bleed="0" /></sodipodi:namedview><defs
     id="defs1" /><g
     inkscape:label="Layer 1"
     inkscape:groupmode="layer"
     id="layer1"
     transform="translate(-10.702239,-36.835296)"><g
       id="g1"><path
         style="fill:#fddfa9"
         d="m 332.89822,259.93978 c -1.18877,-0.37379 -9.64471,-0.95989 -20.68989,-1.43406 -10.95878,-0.47046 -31.59228,-1.29738 -42.9948,-1.72309 -5.96635,-0.22275 -13.76494,-0.51881 -17.3302,-0.65791 -3.56526,-0.1391 -8.68495,-0.32198 -11.37709,-0.4064 -2.69213,-0.0844 -5.84729,-0.20274 -7.01145,-0.26294 -1.16417,-0.0602 -4.79558,-0.18378 -8.0698,-0.27462 -3.27421,-0.0908 -6.15539,-0.22117 -6.40261,-0.28962 -0.51002,-0.14122 -0.86596,-1.00429 -0.59499,-1.44273 0.12756,-0.20638 1.81617,-0.24264 5.77177,-0.12392 6.71285,0.20147 40.96232,0.86875 55.20083,1.07547 5.60255,0.0813 11.31755,0.20602 12.7,0.27707 1.38245,0.071 11.73639,0.19229 23.00876,0.26944 13.95585,0.0955 20.60392,0.2305 20.83593,0.42305 0.71525,0.5936 0.0692,3.02722 -1.19926,4.51746 -0.4494,0.52798 -0.34544,0.52501 -1.8472,0.0528 z M 33.488691,203.04881 c -0.648553,-0.64855 -0.512086,-1.68145 0.307084,-2.32427 0.397572,-0.31199 2.351931,-2.03326 4.343019,-3.82505 4.735768,-4.26175 6.75996,-5.87032 7.387063,-5.87032 0.889387,0 0.555478,0.88069 -0.689535,1.81866 -1.000727,0.75393 -8.219583,8.13959 -9.795101,10.02144 -0.587585,0.70183 -0.984356,0.74772 -1.55253,0.17954 z m -0.456384,-10.366 c -0.165867,-2.27369 -0.124488,-2.33681 2.772518,-4.22929 4.404425,-2.87721 8.092866,-5.046 10.733934,-6.31154 3.043591,-1.45841 4.039824,-1.43342 1.645505,0.0413 -3.832919,2.36075 -11.05793,7.94332 -13.581843,10.49432 -0.686742,0.69411 -1.300329,1.26201 -1.363527,1.26201 -0.0632,0 -0.156162,-0.56554 -0.206587,-1.25677 z m 333.812473,-51.9306 c -1.60073,-0.11332 -5.02679,-0.26528 -7.61346,-0.3377 -4.69853,-0.13153 -5.48341,-0.29453 -5.48341,-1.13874 0,-0.45037 0.56153,-0.56604 3.70416,-0.76302 3.52226,-0.22077 14.58611,-1.17371 15.15855,-1.30561 0.42716,-0.0984 0.46651,0.0787 0.39687,1.78711 l -0.0773,1.89638 -1.5875,0.0338 c -0.87313,0.0186 -2.89719,-0.0589 -4.49792,-0.17223 z m -21.29036,-7.38615 c -0.35403,-0.6615 -0.18557,-0.7491 2.05067,-1.06625 4.94683,-0.70159 16.81267,-3.58943 22.28986,-5.42479 l 3.45212,-1.15677 -0.0761,2.28324 -0.0762,2.28324 -2.51354,0.45828 c -7.87782,1.43631 -20.43946,3.13616 -23.17577,3.13616 -1.38817,0 -1.72367,-0.0882 -1.95105,-0.51311 z"
         id="path6" /><path
         style="fill:#d7bc8a"
         d="m 362.34687,267.58549 c -2.47386,-0.16806 -5.74808,-0.37884 -7.27605,-0.46838 -11.53499,-0.67601 -17.45465,-1.00437 -19.84375,-1.1007 -1.52796,-0.0616 -3.79015,-0.17099 -5.02708,-0.24307 -3.26808,-0.19045 -8.0166,-0.43353 -10.45104,-0.53501 -4.15981,-0.1734 -7.89488,-0.37189 -9.49078,-0.50436 -0.89195,-0.074 -3.28859,-0.20684 -5.32589,-0.29513 -2.03729,-0.0883 -4.52204,-0.20562 -5.52168,-0.26075 -0.99963,-0.0551 -3.61901,-0.17586 -5.82083,-0.26829 -2.20183,-0.0924 -4.5391,-0.20283 -5.19394,-0.24533 -2.25092,-0.14611 -8.33843,-0.42986 -11.37709,-0.53032 -1.67349,-0.0553 -5.42396,-0.22034 -8.33437,-0.36671 -2.91042,-0.14637 -5.47026,-0.26227 -5.68854,-0.25755 -0.21828,0.005 -1.70657,-0.0613 -3.3073,-0.14678 -1.60072,-0.0854 -4.33916,-0.21732 -6.08541,-0.29307 -1.74625,-0.0758 -4.06797,-0.19842 -5.15938,-0.27261 -2.574,-0.17496 -6.11071,-0.32289 -12.17083,-0.50905 -2.69213,-0.0827 -6.02588,-0.21429 -7.40833,-0.2924 -3.5919,-0.20298 -6.96056,-0.35116 -11.50938,-0.5063 -2.18281,-0.0744 -4.74265,-0.1944 -5.68854,-0.26657 -0.94588,-0.0722 -3.56526,-0.19978 -5.82083,-0.28357 -2.25557,-0.0838 -5.05354,-0.20159 -6.21771,-0.26179 -1.16417,-0.0602 -4.0812,-0.17924 -6.48229,-0.26453 -4.5284,-0.16086 -7.3396,-0.26973 -12.96458,-0.50208 -1.81901,-0.0751 -4.91464,-0.20156 -6.87917,-0.28095 -3.53319,-0.14278 -6.23062,-0.26896 -11.1125,-0.51984 -1.38245,-0.071 -4.65667,-0.19521 -7.27604,-0.27593 -2.61938,-0.0807 -6.01266,-0.1987 -7.54063,-0.26218 -1.52797,-0.0635 -4.50453,-0.1841 -6.61458,-0.26806 -2.11005,-0.084 -4.90802,-0.20354 -6.21771,-0.26575 -1.30969,-0.0622 -4.16719,-0.17437 -6.35,-0.24928 -2.18281,-0.0749 -5.3975,-0.19749 -7.14375,-0.27241 -11.49978,-0.49335 -16.35064,-0.67719 -21.166664,-0.80215 -2.182812,-0.0566 -5.516562,-0.17281 -7.408333,-0.25815 -1.89177,-0.0853 -4.74927,-0.20284 -6.349999,-0.26112 -1.60073,-0.0583 -4.279636,-0.16798 -5.953125,-0.24381 -1.67349,-0.0758 -5.543021,-0.20106 -8.598958,-0.2783 -3.055938,-0.0772 -7.520781,-0.22826 -9.921875,-0.33562 -2.401094,-0.10736 -4.511686,-0.1814 -4.690205,-0.16453 -0.178519,0.0169 -0.868281,-0.60573 -1.532803,-1.38356 l -1.208222,-1.41424 1.01326,-0.63964 c 1.110073,-0.70076 2.999858,-1.5883 4.03672,-1.89585 0.938244,-0.2783 1.27419,-0.60146 1.756063,-1.68924 0.232859,-0.52565 0.594577,-1.3451 0.803818,-1.82098 0.547474,-1.24514 0.367873,-3.03777 -0.3353,-3.3467 -0.30445,-0.13376 -0.854981,-0.7886 -1.223403,-1.45521 -0.368423,-0.66661 -1.060314,-1.92639 -1.537536,-2.79951 -1.205942,-2.20639 -3.813101,-6.29653 -5.261751,-8.25469 -0.906029,-1.22469 -1.500285,-1.7504 -2.346219,-2.0756 -0.623079,-0.23953 -1.307688,-0.36843 -1.521354,-0.28644 -0.455575,0.17482 -0.494036,1.34818 -0.127272,3.88278 0.833159,5.75773 1.057993,10.38233 0.550828,11.32998 -0.289966,0.5418 -0.476359,0.56477 -4.459931,0.54954 -5.847553,-0.0224 -7.564412,0.18576 -8.396521,1.01787 -0.366469,0.36647 -0.738832,0.95527 -0.827474,1.30845 -0.250246,0.99706 0.08844,3.11493 0.719676,4.50024 0.495621,1.08769 1.568877,3.79023 1.568877,3.95055 0,0.0844 -5.129625,-0.19432 -5.218833,-0.28353 -0.04299,-0.043 -0.153652,-11.49294 -0.245921,-25.44433 -0.158491,-23.96425 -0.142677,-25.34109 0.286144,-24.91227 0.606409,0.60641 0.993381,0.57201 1.590664,-0.14141 1.575518,-1.88185 8.794374,-9.26751 9.795101,-10.02144 1.246267,-0.93892 1.578933,-1.81866 0.687708,-1.81866 -0.621848,0 -3.106941,1.99531 -8.21778,6.59815 -2.110052,1.90032 -3.925755,3.45533 -4.034896,3.45557 -0.10914,2.4e-4 -0.198437,-1.55254 -0.198437,-3.45063 v -3.45107 l 1.389062,-1.37881 c 2.796727,-2.77609 9.848703,-8.23333 13.722285,-10.61913 2.394319,-1.47469 1.398086,-1.49968 -1.645505,-0.0413 -2.658393,1.27384 -6.410274,3.48181 -10.687717,6.28969 -1.455209,0.95526 -2.681286,1.70651 -2.724616,1.66946 -0.199458,-0.17057 -0.508075,-39.18788 -0.75234,-95.115712 -0.156401,-35.810103 -0.130267,-40.918067 0.210793,-41.200291 0.428852,-0.35487 4.064624,-0.496057 18.876579,-0.733029 4.947708,-0.07916 11.73427,-0.19932 15.081249,-0.267028 5.682713,-0.11496 11.863756,-0.217126 32.279166,-0.533541 4.511147,-0.06992 11.000047,-0.185792 14.419787,-0.257497 3.41974,-0.07171 10.62302,-0.193843 16.0073,-0.271418 5.38427,-0.07757 12.76614,-0.195341 16.40416,-0.261706 16.15017,-0.294609 22.54364,-0.406673 31.08854,-0.544918 l 9.12813,-0.14768 -1.92426,1.912042 c -1.05835,1.051623 -1.98827,2.167085 -2.06651,2.478804 -0.0782,0.311719 -0.18235,0.738352 -0.23136,0.948074 -0.26827,1.147962 -0.55648,1.538017 -1.72621,2.336235 -0.70732,0.482671 -1.42721,1.218424 -1.59977,1.635008 -0.28032,0.676769 -0.22408,0.906314 0.52813,2.155623 0.46303,0.769008 1.14094,1.649028 1.50647,1.955599 l 0.66461,0.557402 -0.81363,1.611779 c -0.81875,1.621944 -0.84869,2.263548 -0.11868,2.543678 0.46396,0.178038 1.19159,-0.175912 2.4743,-1.203595 0.87657,-0.702302 0.98012,-0.723775 1.92451,-0.399109 l 0.99809,0.343127 -1.91945,1.615696 c -1.80472,1.519124 -2.68774,1.986032 -1.70747,0.902846 0.52007,-0.574665 0.57271,-1.107545 0.10862,-1.099618 -0.44421,0.0076 -1.78593,1.935153 -1.78593,2.565742 0,0.276358 0.16417,0.726986 0.36482,1.001397 0.32356,0.442493 0.48068,0.46396 1.38906,0.189792 1.08545,-0.327609 5.33095,-3.372507 7.11488,-5.102825 0.80486,-0.780677 1.39815,-1.095049 2.43918,-1.292477 1.24692,-0.236474 1.49981,-0.196453 2.70293,0.427746 1.08954,0.565276 1.39907,0.629058 1.728,0.356071 0.22039,-0.182905 0.40071,-0.572351 0.40071,-0.865433 0,-0.511926 0.10868,-0.525597 2.7642,-0.347715 1.79437,0.120198 2.94806,0.08676 3.28826,-0.09531 0.62853,-0.336378 1.46054,-2.964425 1.20467,-3.805116 -0.0968,-0.317981 -0.37025,-0.799525 -0.6077,-1.070098 -0.50277,-0.572907 -3.27156,-2.02159 -3.86376,-2.02159 -0.22243,0 -0.40442,-0.122066 -0.40442,-0.271257 0,-0.255485 1.67113,-2.148633 4.54843,-5.152701 0.6969,-0.727605 1.39658,-1.70987 1.55485,-2.182813 0.15827,-0.472943 0.42735,-0.869845 0.59797,-0.882006 0.90889,-0.06478 7.6817,-0.199405 18.16958,-0.361161 6.47568,-0.09988 13.50037,-0.225906 15.61042,-0.280067 2.11005,-0.05416 8.65849,-0.16797 14.55208,-0.252909 5.89359,-0.08494 13.03734,-0.210127 15.875,-0.278198 2.83766,-0.06807 9.68375,-0.185809 15.21354,-0.261641 5.52979,-0.07583 12.9712,-0.193192 16.53646,-0.260801 3.56526,-0.06761 10.82807,-0.193689 16.13958,-0.280178 5.31151,-0.08649 12.03854,-0.198292 14.94896,-0.248453 2.91042,-0.05016 12.19729,-0.17374 20.6375,-0.27462 8.44021,-0.100881 16.96949,-0.207084 18.95395,-0.236008 l 3.60812,-0.05259 -0.0735,2.79343 c -0.16705,6.35035 -0.42092,13.750841 -0.52696,15.361139 -0.0623,0.945885 -0.18979,5.053541 -0.28336,9.128125 -0.0936,4.074583 -0.25981,9.491927 -0.36943,12.038541 -0.10963,2.546615 -0.22014,7.237526 -0.2456,10.424248 -0.0255,3.186725 -0.0884,5.865625 -0.13982,5.953125 -0.0514,0.0875 -0.17313,3.6119 -0.2704,7.832 -0.24408,10.58932 -0.40157,14.25292 -0.62137,14.45416 -0.10335,0.0946 -1.65944,0.65842 -3.45798,1.25289 -5.42318,1.79253 -17.25365,4.65451 -22.05503,5.33547 -2.23624,0.31715 -2.4047,0.40475 -2.05067,1.06625 0.22738,0.42488 0.56288,0.51311 1.95105,0.51311 2.77455,0 15.52408,-1.72756 23.09963,-3.12999 l 2.70198,-0.50021 -0.13472,3.33565 c -0.0741,1.83461 -0.21843,3.4131 -0.32074,3.50775 -0.1757,0.16255 -10.36662,1.10007 -15.53184,1.42886 -3.01572,0.19196 -3.57187,0.30945 -3.57187,0.75454 0,0.79658 0.7893,0.98272 4.67424,1.1023 6.84504,0.21069 14.23805,0.69571 14.39458,0.94435 0.0831,0.13202 0.12531,1.45809 0.0938,2.94683 -0.0724,3.41936 -0.34507,13.61 -0.50774,18.97867 -0.0684,2.25557 -0.18515,6.77995 -0.25956,10.05416 -0.25594,11.26194 -0.42034,17.86862 -0.54976,22.09271 -0.16301,5.32061 -0.32407,11.41256 -0.52112,19.71146 -0.0847,3.56526 -0.20179,7.43479 -0.26031,8.59896 -0.0585,1.16417 -0.11963,3.87209 -0.13581,6.01761 -0.0329,4.36085 0.11833,3.9817 -2.32496,5.82901 -2.65237,2.00538 -3.42372,2.44099 -10.9517,6.18487 -8.78998,4.37152 -8.71841,4.69033 1.11087,4.94838 5.56293,0.14604 10.23225,0.6255 11.04635,1.13426 0.49493,0.3093 0.5947,0.60522 0.5917,1.75499 -0.007,2.60446 0.19276,2.47043 -3.97472,2.66938 -4.50519,0.21506 -5.6833,0.53988 -5.66853,1.56291 0.006,0.3974 -0.0836,0.72255 -0.19844,0.72255 -0.43799,0 -0.18295,0.98929 0.38645,1.49898 0.32742,0.29309 1.42039,0.97821 2.42883,1.52248 1.80474,0.97405 4.34583,2.77076 5.77325,4.08205 0.68576,0.62997 0.7274,0.7987 0.72399,2.93401 -0.005,3.34595 -0.0733,3.49495 -1.55155,3.4016 -0.67263,-0.0425 -3.24702,-0.21474 -5.72087,-0.3828 z m -27.60145,-7.69851 c 1.26845,-1.49024 1.91451,-3.92386 1.19926,-4.51746 -0.23201,-0.19255 -6.88008,-0.32753 -20.83593,-0.42305 -11.27237,-0.0772 -21.62631,-0.1984 -23.00876,-0.26944 -1.38245,-0.0711 -7.09745,-0.19573 -12.7,-0.27707 -14.23851,-0.20672 -48.48798,-0.874 -55.20083,-1.07547 -3.9556,-0.11872 -5.64421,-0.0825 -5.77177,0.12392 -0.27097,0.43844 0.085,1.30151 0.59499,1.44273 0.24722,0.0684 3.1284,0.19878 6.40261,0.28962 3.27422,0.0908 6.90563,0.21442 8.0698,0.27462 1.16416,0.0602 4.31932,0.17853 7.01145,0.26294 2.69214,0.0844 7.81183,0.2673 11.37709,0.4064 3.56526,0.1391 11.36385,0.43516 17.3302,0.65791 11.40252,0.42571 32.03602,1.25263 42.9948,1.72309 11.04518,0.47417 19.50112,1.06027 20.68989,1.43406 1.50176,0.47221 1.3978,0.47518 1.8472,-0.0528 z m 20.1565,-12.10469 c -0.0838,-0.21828 -0.19909,-0.39687 -0.25628,-0.39687 -0.0572,0 -0.10398,0.17859 -0.10398,0.39687 0,0.21828 0.11532,0.39688 0.25628,0.39688 0.14095,0 0.18774,-0.1786 0.10398,-0.39688 z M 180.31629,66.914212 c 0.40772,-1.319277 0.94641,-2.091294 1.45925,-2.091294 0.8656,0 0.59802,0.855288 -0.5715,1.826711 -1.01588,0.843805 -1.07192,0.860509 -0.88775,0.264583 z"
         id="path5" /><path
         style="fill:#ad976e"
         d="m 199.7108,65.965094 c 0.191,-0.07643 0.4192,-0.06703 0.50712,0.02089 0.0879,0.08792 -0.0683,0.150453 -0.34727,0.138965 -0.30822,-0.0127 -0.37091,-0.07539 -0.15985,-0.159853 z m 24.60625,-15.875 c 0.191,-0.07643 0.4192,-0.06703 0.50712,0.02089 0.0879,0.08792 -0.0684,0.150453 -0.34727,0.138965 -0.30822,-0.0127 -0.37092,-0.07539 -0.15985,-0.159853 z"
         id="path4" /><path
         style="fill:#7c6a4b"
         d="m 368.9655,261.67797 c -0.89695,-0.99211 -4.14958,-3.3202 -6.08947,-4.35858 -2.21379,-1.18499 -2.77812,-1.65262 -2.77812,-2.30206 0,-0.62666 0.32723,-0.62067 0.9039,0.0165 0.25121,0.27758 1.07333,0.76698 1.82694,1.08755 0.75361,0.32058 1.96551,0.85169 2.69312,1.18026 0.7276,0.32857 1.93765,0.86141 2.68899,1.1841 1.50914,0.64813 1.74465,1.09311 1.45679,2.75248 l -0.17703,1.02054 z M 53.18125,254.05838 c 0,-0.12324 -0.494473,-1.04393 -1.098828,-2.04596 -0.637559,-1.05709 -0.976335,-1.86271 -0.807028,-1.91915 0.835771,-0.27859 1.662015,-1.31331 2.715311,-3.40043 1.043071,-2.06686 1.16404,-2.49413 1.123118,-3.9669 -0.02522,-0.9078 -0.423052,-3.05852 -0.884064,-4.77939 -0.461011,-1.72086 -0.939444,-3.60509 -1.063185,-4.18717 -0.12374,-0.58209 -0.58205,-2.18524 -1.018466,-3.56256 -0.436416,-1.37732 -0.739211,-2.55849 -0.672878,-2.62483 0.270349,-0.27035 1.57892,1.3167 3.673776,4.4556 2.033348,3.04673 3.123595,4.89299 4.91141,8.31714 0.363802,0.69678 0.98888,1.43795 1.389062,1.64703 0.58707,0.30674 0.727605,0.56277 0.727605,1.32557 0,0.51997 -0.187889,1.38012 -0.417531,1.91144 -1.164471,2.6942 -1.473243,3.24414 -1.898306,3.38098 -1.535723,0.49441 -3.273825,1.2758 -4.385604,1.97163 l -1.277482,0.79954 1.199294,1.40379 1.199295,1.40379 -1.70775,0.047 c -0.939262,0.0258 -1.707749,-0.0538 -1.707749,-0.1771 z m 316.77583,-6.01005 c -0.12171,-0.21749 -0.87177,-0.51157 -1.6668,-0.65352 -2.13966,-0.38204 -8.40903,-0.80084 -12.00678,-0.80207 -1.73413,-5.9e-4 -3.07931,-0.0747 -2.98931,-0.16472 0.41599,-0.41599 16.40585,-1.96408 16.7484,-1.62153 0.15036,0.15036 0.35567,3.63726 0.21417,3.63726 -0.0431,0 -0.17797,-0.17794 -0.29968,-0.39542 z M 30.256416,229.79063 c -8.07e-4,-1.30969 0.04393,-1.87883 0.09942,-1.26476 0.05549,0.61408 0.05615,1.68564 0.0015,2.38125 -0.05468,0.69562 -0.100083,0.19319 -0.100889,-1.11649 z m -0.194461,-3.07764 c -0.141513,-0.702 -0.59806,-6.1884 -0.833745,-10.01924 -0.203682,-3.31067 -0.295523,-4.65258 -0.52685,-7.698 -0.173836,-2.28855 -0.146731,-2.55632 0.275149,-2.71821 0.257389,-0.0988 0.511169,-0.13639 0.563956,-0.0836 0.143109,0.14311 0.843414,20.84849 0.7119,21.04822 -0.03526,0.0536 -0.120946,-0.18457 -0.19041,-0.52917 z m -1.758204,-23.31455 c -0.0037,-0.0364 -0.05562,-0.85946 -0.115456,-1.82906 -0.214101,-3.46946 -0.43405,-6.21002 -0.676047,-8.42355 -0.135228,-1.23692 -0.296952,-3.22528 -0.359385,-4.41856 l -0.113515,-2.16961 1.03241,-0.53813 1.032409,-0.53812 0.02958,2.44315 c 0.01627,1.34373 0.06403,2.80034 0.106147,3.2369 0.04211,0.43656 0.148586,3.38336 0.236605,6.54844 l 0.160035,5.75468 h -0.663057 c -0.364681,0 -0.666056,-0.0298 -0.669722,-0.0661 z m -1.596606,-20.90208 c -0.0087,-0.90951 -0.108926,-2.21962 -0.22278,-2.91136 -0.353027,-2.14487 -0.05815,-3.06035 1.230739,-3.82097 l 1.12448,-0.66359 0.0019,2.47426 c 10e-4,1.36084 0.07619,3.26084 0.167004,4.22221 l 0.165124,1.74796 -0.867945,0.30256 c -1.502795,0.52388 -1.581253,0.45757 -1.598503,-1.35107 z m -0.624231,-8.97268 c -0.0616,-0.19464 -0.186911,-1.39291 -0.278468,-2.66282 l -0.166466,-2.30894 1.402364,-0.90117 1.402365,-0.90117 0.204668,3.19065 c 0.112568,1.75485 0.112568,3.27644 0,3.38131 -0.112568,0.10487 -0.710422,0.27287 -1.328565,0.37335 -0.831496,0.13515 -1.153036,0.0906 -1.235898,-0.17121 z m -0.744291,-14.97212 c -0.08167,-3.87416 -0.03399,-6.40846 0.124345,-6.6088 0.161042,-0.20377 0.192617,-2.76927 0.08467,-6.87917 l -0.172152,-6.55421 1.165188,-0.69396 1.165188,-0.69395 0.168618,2.54603 c 0.09274,1.40033 0.169234,4.54625 0.169987,6.99095 0.0011,3.58627 0.08455,4.60576 0.431958,5.27758 0.364026,0.70395 0.405903,1.42791 0.270898,4.68322 -0.08783,2.1178 -0.162533,4.63247 -0.166006,5.58816 l -0.0063,1.73762 -1.412317,0.44519 c -0.776774,0.24486 -1.475152,0.4452 -1.551951,0.4452 -0.0768,0 -0.199247,-2.82774 -0.272109,-6.28386 z m -0.203206,-22.76477 c 0,-0.56872 -0.06948,-1.9152 -0.154402,-2.99218 l -0.154402,-1.95815 1.345027,-0.57845 1.345027,-0.57845 0.01753,1.23991 c 0.0096,0.68195 0.06889,2.0986 0.131651,3.14811 l 0.11412,1.9082 -1.123839,0.30142 c -0.618111,0.16578 -1.213136,0.35592 -1.322276,0.42252 -0.109141,0.0666 -0.198438,-0.34422 -0.198438,-0.91293 z m -0.352778,-8.69859 c -0.09701,-0.097 -0.176389,-0.92804 -0.176389,-1.84671 v -1.67032 l 1.047793,-0.53454 c 1.6646,-0.84922 1.721825,-0.7959 1.802179,1.67922 l 0.07185,2.21306 -0.997888,0.16493 c -1.277049,0.21106 -1.531661,0.21024 -1.747542,-0.006 z m -0.263597,-6.50637 c -0.07896,-0.32631 -0.218163,-2.79594 -0.30935,-5.48808 -0.09119,-2.69213 -0.212606,-5.07338 -0.269817,-5.29167 -0.05721,-0.21828 -0.17455,-2.30402 -0.260751,-4.63497 l -0.156729,-4.23811 1.499485,-0.73541 c 0.824716,-0.404481 1.541632,-0.693271 1.593145,-0.641758 0.121132,0.121132 0.308165,5.154738 0.520523,14.008878 l 0.16947,7.06592 -0.687926,0.14398 c -0.378359,0.0792 -0.972903,0.20259 -1.32121,0.27424 -0.493233,0.10145 -0.665032,-9.5e-4 -0.77684,-0.46302 z m -1.32999,-24.455342 c -0.192299,-2.274891 -0.279307,-2.132273 1.887454,-3.093822 0.622442,-0.276222 1.211852,-0.422084 1.309799,-0.324137 0.09795,0.09795 0.223215,1.169581 0.278373,2.381408 l 0.100288,2.203323 -1.277796,0.313251 c -0.702787,0.172289 -1.468479,0.369813 -1.701538,0.438943 -0.353288,0.104793 -0.452481,-0.214273 -0.59658,-1.918966 z m -0.173914,-6.234299 c -0.002,-0.618464 -0.07305,-1.383351 -0.15791,-1.69975 -0.168673,-0.628871 0.426222,-1.047123 2.51095,-1.765371 l 1.090156,-0.375589 v 2.196087 2.196087 l -1.33594,0.286507 c -2.065038,0.442872 -2.10319,0.4277 -2.107256,-0.837971 z m -0.38265,-5.79677 c -0.08508,-0.486178 -0.1818,-2.58555 -0.214941,-4.665271 l -0.06025,-3.781312 1.870162,-1.005906 1.870162,-1.005907 0.07871,3.861177 c 0.04329,2.123647 0.09948,4.554191 0.124874,5.401208 0.02539,0.847017 -0.01816,1.57761 -0.09679,1.62354 -0.07862,0.04593 -0.879665,0.167416 -1.780094,0.269969 l -1.637142,0.186461 z M 180.45514,72.513229 c -0.4616,-0.862502 -0.31202,-1.472817 0.62572,-2.552999 0.95845,-1.104053 1.58023,-1.100787 0.85602,0.0045 -0.238,0.363224 -0.43272,0.732234 -0.43272,0.820024 0,0.223301 1.22138,-0.673747 2.73716,-2.010327 l 1.28196,-1.130393 -0.88508,-0.286077 c -0.48679,-0.157343 -0.85766,-0.377882 -0.82414,-0.490087 0.12176,-0.40767 4.33751,-4.194741 4.57877,-4.113184 0.13644,0.04612 1.14714,0.788417 2.24599,1.649543 2.04019,1.598813 2.16439,1.993079 0.63071,2.002141 -0.47427,0.0028 -1.61634,0.778351 -3.70417,2.515412 -2.90289,2.415183 -5.54389,4.103223 -6.41965,4.103223 -0.22918,0 -0.53993,-0.230298 -0.69057,-0.511773 z M 21.833672,70.08352 l 0.0055,-1.642646 1.114126,-0.473171 c 0.612769,-0.260243 1.538511,-0.552785 2.057206,-0.650093 l 0.94308,-0.176923 -0.07838,1.94997 -0.07838,1.94997 -1.322916,0.168961 c -0.727604,0.09293 -1.620573,0.247175 -1.984375,0.342769 -0.653585,0.17174 -0.661393,0.154255 -0.655912,-1.468837 z m 176.619418,-4.13516 -1.96879,-0.09233 -3.40272,-2.266529 c -3.3846,-2.254463 -3.40019,-2.269539 -2.92765,-2.83166 0.26128,-0.310821 1.73508,-1.874817 3.2751,-3.475546 1.54002,-1.600729 3.6065,-3.765729 4.59219,-4.811111 l 1.79215,-1.900696 2.48772,-0.08368 c 1.49804,-0.05039 2.52413,0.02158 2.57923,0.180903 0.16905,0.488793 -0.46573,1.577927 -1.69628,2.910417 -0.67194,0.727604 -2.04291,2.211342 -3.0466,3.297195 l -1.8249,1.974278 0.79008,0.165655 c 1.52323,0.31937 3.49764,1.529986 4.10925,2.519592 0.58605,0.948248 0.5885,0.987487 0.14866,2.382827 -0.55496,1.76054 -1.02009,2.242949 -2.09766,2.175589 -0.46255,-0.02891 -1.72695,-0.09412 -2.80978,-0.144903 z M 21.60003,65.484054 C 21.5072,65.242147 21.43125,64.063947 21.43125,62.865833 v -2.178389 l 1.785938,-0.621229 c 0.982266,-0.341676 1.934765,-0.674089 2.116667,-0.738695 0.25284,-0.0898 0.330729,0.636935 0.330729,3.085841 v 3.203307 l -1.389063,0.0036 c -0.763984,0.002 -1.640533,0.07111 -1.947887,0.153609 -0.375171,0.1007 -0.614293,0.0054 -0.727604,-0.289836 z m 160.69788,-0.396552 c 0,-0.145521 -0.26789,-0.268545 -0.59531,-0.273386 -0.79331,-0.01173 -1.5763,-0.700588 -2.56072,-2.252866 -0.896,-1.41284 -1.03375,-2.506586 -0.39601,-3.144327 0.76119,-0.761185 2.71416,-2.001747 2.80306,-1.78055 0.0481,0.119782 1.20119,0.963687 2.56234,1.875343 l 2.47481,1.657557 -0.88441,0.966927 c -2.98891,3.267766 -3.40376,3.627469 -3.40376,2.951302 z m 2.78963,-6.771785 c -1.30336,-0.786664 -2.6189,-1.430299 -2.92343,-1.430299 -0.48176,0 -0.53898,-0.125996 -0.44046,-0.969924 0.0909,-0.778209 0.51181,-1.380921 2.12969,-3.049221 l 2.01645,-2.079296 1.90456,-0.05963 1.90456,-0.05963 -2.76446,2.804731 C 185.394,55.01505 184.15,56.417771 184.15,56.589606 c 0,0.670141 0.83512,0.575803 1.91338,-0.216143 0.62113,-0.456194 2.21772,-1.903703 3.54799,-3.216687 l 2.41867,-2.387244 1.61623,-0.144123 c 0.88892,-0.07927 1.61623,-0.03974 1.61623,0.08785 0,0.486724 -7.26006,9.10887 -7.62679,9.057672 -0.0981,-0.0137 -1.24481,-0.668544 -2.54817,-1.455208 z M 21.14491,56.720054 c -0.01197,-0.854935 -0.07557,-1.881849 -0.141343,-2.282032 -0.06577,-0.400182 -0.02622,-0.732538 0.0879,-0.73857 0.114119,-0.006 1.130223,-0.04198 2.25801,-0.07988 L 25.4,53.550647 v 1.645746 c 0,0.90516 0.0657,1.81696 0.146002,2.026221 0.111573,0.290754 -0.188084,0.41974 -1.270736,0.546985 -0.779206,0.09158 -1.797407,0.242643 -2.262669,0.335696 l -0.84593,0.169186 z"
         id="path3" /><path
         style="fill:#594d37"
         d="m 319.83163,265.19634 c 0.191,-0.0764 0.4192,-0.067 0.50712,0.0209 0.0879,0.0879 -0.0684,0.15046 -0.34727,0.13897 -0.30822,-0.0127 -0.37091,-0.0754 -0.15985,-0.15986 z M 30.21408,226.08646 c 0.0054,-0.43656 0.06469,-0.58312 0.131774,-0.32569 0.06708,0.25743 0.06267,0.61461 -0.0098,0.79375 -0.07248,0.17913 -0.127362,-0.0315 -0.12197,-0.46806 z m -0.274387,-8.33438 c 0,-0.3638 0.06005,-0.51263 0.133452,-0.33072 0.0734,0.1819 0.0734,0.47955 0,0.66145 -0.0734,0.18191 -0.133452,0.0331 -0.133452,-0.33073 z m -0.264583,-9.26041 c 0,-0.3638 0.06005,-0.51263 0.133452,-0.33073 0.0734,0.1819 0.0734,0.47956 0,0.66146 -0.0734,0.1819 -0.133452,0.0331 -0.133452,-0.33073 z m 341.55618,-3.59393 c 0.0127,-0.30822 0.0754,-0.37091 0.15986,-0.15985 0.0764,0.191 0.067,0.4192 -0.0209,0.50712 -0.0879,0.0879 -0.15045,-0.0684 -0.13897,-0.34727 z M 29.389638,198.81233 c 0.0127,-0.30823 0.07539,-0.37092 0.159853,-0.15985 0.07643,0.19099 0.06703,0.41919 -0.02089,0.50711 -0.08792,0.0879 -0.150453,-0.0684 -0.138965,-0.34726 z m -0.264583,-9.78959 c 0.0127,-0.30822 0.07539,-0.37091 0.159852,-0.15985 0.07643,0.191 0.06703,0.4192 -0.02089,0.50712 -0.08792,0.0879 -0.150452,-0.0684 -0.138964,-0.34727 z M 26.50011,92.868752 c 0,-0.363803 0.06005,-0.512631 0.133452,-0.33073 0.0734,0.181901 0.0734,0.479558 0,0.661459 -0.0734,0.181901 -0.133452,0.03307 -0.133452,-0.330729 z m 5.566054,-22.886459 c 0.0054,-0.436562 0.06469,-0.583124 0.131773,-0.325693 0.06708,0.257431 0.06267,0.614618 -0.0098,0.79375 -0.07247,0.179131 -0.127361,-0.03149 -0.121969,-0.468057 z M 25.70636,65.352085 c 0,-0.363802 0.06005,-0.51263 0.133452,-0.330729 0.0734,0.181901 0.0734,0.479557 0,0.661458 -0.0734,0.181901 -0.133452,0.03307 -0.133452,-0.330729 z M 184.94375,62.87094 c 0,-0.05494 0.20835,-0.263302 0.46302,-0.463021 0.41964,-0.329107 0.429,-0.319749 0.0999,0.0999 -0.34564,0.440729 -0.56291,0.580887 -0.56291,0.363126 z M 32.035472,58.318578 c 0.0127,-0.308225 0.07539,-0.370919 0.159852,-0.159853 0.07643,0.190997 0.06703,0.4192 -0.02089,0.507119 -0.08792,0.08792 -0.150453,-0.06835 -0.138964,-0.347266 z M 185.6052,54.768752 c 0.71667,-0.727605 1.36256,-1.322917 1.43532,-1.322917 0.0728,0 -0.45407,0.595312 -1.17073,1.322917 -0.71667,0.727604 -1.36256,1.322916 -1.43532,1.322916 -0.0728,0 0.45407,-0.595312 1.17073,-1.322916 z m 48.50143,-4.943241 c 0.191,-0.07643 0.4192,-0.06703 0.50712,0.02089 0.0879,0.08792 -0.0684,0.150453 -0.34726,0.138964 -0.30823,-0.0127 -0.37092,-0.07539 -0.15986,-0.159852 z m 18.52084,-0.264583 c 0.19099,-0.07643 0.4192,-0.06703 0.50712,0.02089 0.0879,0.08792 -0.0684,0.150453 -0.34727,0.138964 -0.30822,-0.0127 -0.37092,-0.07539 -0.15985,-0.159852 z"
         id="path2" /><path
         style="fill:#000000"
         d="m 362.92073,281.08447 c -0.0246,-0.0194 -4.39048,-0.11618 -9.70199,-0.21501 -5.31151,-0.0988 -11.50276,-0.2264 -13.75833,-0.28351 -9.62406,-0.24364 -15.68849,-0.41285 -18.78542,-0.52415 -1.81901,-0.0654 -6.28385,-0.18977 -9.92187,-0.27644 -3.63802,-0.0867 -7.74568,-0.20046 -9.12813,-0.25288 -1.38245,-0.0524 -4.83526,-0.16635 -7.67291,-0.25319 -10.34362,-0.31654 -18.56332,-0.5948 -24.34167,-0.82401 -4.04803,-0.16058 -6.27475,-0.23786 -14.41979,-0.50048 -2.7649,-0.0891 -5.68193,-0.21107 -6.48229,-0.27094 -0.80037,-0.0599 -3.83646,-0.17563 -6.74688,-0.25726 -2.91041,-0.0816 -6.48229,-0.20515 -7.9375,-0.27452 -1.45521,-0.0694 -4.72942,-0.19598 -7.27604,-0.28136 -10.92107,-0.36615 -16.93175,-0.58937 -20.76979,-0.77133 -9.17811,-0.43514 -13.06906,-0.59607 -19.18229,-0.79334 -2.40109,-0.0775 -5.67531,-0.19832 -7.27604,-0.26853 -1.60073,-0.0702 -4.51776,-0.18994 -6.48229,-0.26609 -1.96454,-0.0761 -4.64344,-0.19916 -5.95313,-0.27336 -2.91033,-0.16488 -6.91813,-0.33596 -12.17083,-0.51953 -3.83437,-0.13401 -9.7056,-0.3797 -12.43542,-0.52039 -0.7276,-0.0375 -3.64463,-0.15651 -6.48229,-0.26446 -2.83766,-0.10795 -5.75469,-0.23521 -6.48229,-0.28279 -2.08096,-0.13607 -7.27597,-0.36796 -12.03854,-0.53734 -2.4011,-0.0854 -5.02047,-0.19689 -5.82084,-0.24776 -0.80036,-0.0509 -3.30067,-0.16336 -5.55625,-0.24997 -2.25557,-0.0866 -6.303693,-0.27185 -8.995828,-0.41165 -2.692136,-0.1398 -6.621198,-0.31935 -8.73125,-0.39901 -2.110052,-0.0797 -4.610365,-0.19649 -5.55625,-0.25962 -0.945885,-0.0631 -3.624792,-0.19016 -5.953125,-0.28229 -2.328333,-0.0921 -4.709583,-0.20731 -5.291666,-0.25595 -0.582084,-0.0486 -3.380052,-0.17034 -6.217709,-0.27044 -2.837656,-0.1001 -5.222966,-0.21914 -5.30069,-0.26454 -0.07772,-0.0454 -1.982723,-0.15521 -4.233333,-0.24403 -2.25061,-0.0888 -4.568268,-0.21719 -5.150351,-0.28525 -0.582083,-0.0681 -2.606146,-0.18888 -4.497917,-0.26846 -1.89177,-0.0796 -3.79677,-0.19017 -4.233333,-0.24573 -0.436562,-0.0556 -2.162968,-0.17288 -3.836458,-0.2607 -1.67349,-0.0878 -3.697552,-0.21033 -4.497917,-0.27224 -0.800364,-0.0619 -2.552426,-0.18674 -3.893471,-0.27738 -1.341044,-0.0906 -2.732864,-0.19714 -3.092933,-0.23666 -0.371707,-0.0408 -1.281132,-0.68873 -2.104064,-1.49906 -1.149109,-1.13151 -1.707111,-2.00276 -2.69332,-4.20532 -1.720431,-3.84233 -1.908722,-4.67313 -1.948844,-8.59896 -0.01933,-1.89177 -0.08955,-4.92786 -0.156038,-6.74687 -0.06649,-1.81901 -0.185658,-5.62901 -0.264824,-8.46667 -0.07917,-2.83765 -0.198559,-6.64765 -0.265318,-8.46667 -0.06676,-1.81901 -0.189123,-6.28385 -0.271922,-9.92187 -0.0828,-3.63802 -0.200466,-8.10286 -0.261484,-9.92188 -0.241289,-7.1931 -0.57972,-18.49454 -0.784394,-26.19375 -0.374464,-14.08623 -0.466563,-16.29062 -0.690329,-16.52322 -0.132994,-0.13825 -0.24451,-1.50747 -0.247812,-3.04271 -0.0078,-3.63733 -0.449174,-9.26096 -0.756461,-9.6387 -0.132619,-0.16302 -0.43076,-3.68969 -0.662535,-7.83703 -0.231775,-4.14735 -0.544478,-9.68375 -0.694894,-12.30313 -0.150417,-2.61937 -0.330947,-6.01265 -0.401178,-7.54062 -0.07023,-1.52797 -0.240468,-4.6236 -0.378305,-6.87917 -0.137836,-2.25557 -0.319158,-5.76792 -0.402938,-7.80521 -0.08378,-2.03729 -0.265359,-5.72823 -0.403508,-8.20208 -0.213028,-3.8147 -0.707532,-13.885141 -1.195285,-24.341667 -0.06788,-1.455208 -0.240292,-5.086614 -0.383139,-8.069791 -0.142847,-2.983178 -0.323747,-7.38849 -0.402,-9.789584 -0.07825,-2.401094 -0.203007,-5.258594 -0.277231,-6.35 -0.295111,-4.339398 -0.356405,-8.916902 -0.132468,-9.892959 0.323702,-1.410898 0.716386,-1.722399 2.680186,-2.126083 2.989991,-0.614631 3.908086,-0.668581 13.73451,-0.807076 5.31151,-0.07486 13.526822,-0.196916 18.256249,-0.271234 4.729427,-0.07432 12.944739,-0.194351 18.25625,-0.266741 5.31151,-0.07239 13.348228,-0.189518 17.859374,-0.260286 4.511146,-0.07077 12.726458,-0.192454 18.256249,-0.270414 5.529794,-0.07796 12.494944,-0.194853 15.478124,-0.259761 2.98318,-0.06491 10.78177,-0.182279 17.33021,-0.260825 6.54844,-0.07855 15.00187,-0.201008 18.78541,-0.272136 8.34504,-0.156884 18.90321,-0.329999 32.14688,-0.527092 5.45703,-0.08121 13.49375,-0.202815 17.85937,-0.270229 4.36563,-0.06741 12.16422,-0.179978 17.33021,-0.250142 5.16599,-0.07016 12.07162,-0.189736 15.34583,-0.265716 3.27422,-0.07598 10.95375,-0.198684 17.06563,-0.272677 6.11187,-0.07399 13.97,-0.192891 17.4625,-0.264218 3.4925,-0.07133 11.94594,-0.194422 18.78541,-0.273543 6.83948,-0.07912 14.63808,-0.192657 17.33021,-0.252302 2.69214,-0.05964 8.88339,-0.17549 13.75833,-0.257435 4.87495,-0.08195 12.13776,-0.208199 16.13959,-0.280563 4.00182,-0.07236 11.08604,-0.190097 15.74271,-0.261629 9.12057,-0.140103 18.26903,-0.324483 26.76192,-0.539367 4.68206,-0.118464 5.38294,-0.08262 5.76013,0.294571 0.23619,0.236196 0.75442,0.516092 1.15161,0.621992 1.23871,0.330268 1.39032,1.034902 1.2574,5.844199 -0.0664,2.401093 -0.19059,9.306718 -0.27606,15.345833 -0.0855,6.039114 -0.20338,13.063802 -0.262,15.610417 -0.21176,9.199127 -0.39367,17.731185 -0.52745,24.738541 -0.075,3.929067 -0.1943,8.810627 -0.2651,10.847917 -0.0708,2.03729 -0.19356,6.74026 -0.27279,10.45104 -0.25995,12.17327 -0.62677,27.14163 -0.79105,32.27917 -0.0721,2.25557 -0.18843,6.72041 -0.25845,9.92187 -0.07,3.20146 -0.24467,10.28568 -0.38812,15.74271 -0.14346,5.45703 -0.32196,12.89844 -0.39668,16.53646 -0.0747,3.63802 -0.19753,9.1149 -0.27291,12.17083 -0.2445,9.91242 -0.38275,15.67112 -0.65424,27.25209 -0.14669,6.25739 -0.32891,13.75833 -0.40494,16.66875 -0.076,2.91041 -0.14527,8.70237 -0.15389,12.87101 -0.0156,7.5298 -0.17006,9.23265 -1.05274,11.60294 -0.90799,2.43825 -1.87224,4.21775 -2.63174,4.85684 l -0.83489,0.70251 -6.4816,-0.0677 c -3.56488,-0.0372 -6.50172,-0.0836 -6.5263,-0.10302 z m 6.49969,-13.42794 c 0.10691,-0.16229 0.20094,-1.3071 0.20895,-2.54403 0.008,-1.23693 0.061,-2.9038 0.11765,-3.70417 0.16633,-2.34793 0.4585,-2.07236 -4.48974,-4.23475 -0.58208,-0.25437 -1.62158,-0.70759 -2.30999,-1.00715 -2.23855,-0.97409 -3.27001,-2.57485 -2.07219,-3.2159 0.62349,-0.33368 4.7762,-0.79174 7.23476,-0.79803 1.23359,-0.003 1.83589,-0.11311 1.92752,-0.35191 0.18094,-0.47152 0.31276,-6.01032 0.15789,-6.63434 -0.11507,-0.46366 -0.32449,-0.4875 -2.92783,-0.33329 -1.54215,0.0913 -5.68302,0.48625 -9.20193,0.87755 -5.2444,0.58317 -6.47185,0.65018 -6.80746,0.37165 -0.83391,-0.69208 0.0922,-1.36653 5.35816,-3.90225 6.33278,-3.04942 9.33461,-4.74313 11.97466,-6.75639 l 2.01068,-1.53331 0.20557,-7.73834 c 0.11306,-4.25608 0.2368,-8.80989 0.27496,-10.11958 0.0382,-1.30968 0.14233,-5.5364 0.23148,-9.39271 0.0892,-3.8563 0.22021,-8.38067 0.29126,-10.05416 0.071,-1.67349 0.19176,-6.37646 0.26828,-10.45104 0.0765,-4.07459 0.19433,-9.07521 0.26182,-11.1125 0.0675,-2.0373 0.1917,-6.85933 0.27602,-10.71563 0.0843,-3.8563 0.20335,-8.55927 0.26451,-10.45104 0.0612,-1.89177 0.17148,-6.29708 0.24515,-9.78958 0.0737,-3.4925 0.19388,-7.83828 0.26714,-9.6573 0.0733,-1.81901 0.19854,-6.40291 0.27841,-10.18645 0.0799,-3.78355 0.19963,-8.72464 0.26615,-10.98021 0.0665,-2.25557 0.23936,-9.10167 0.38411,-15.213543 0.14476,-6.111875 0.32538,-12.184063 0.4014,-13.49375 0.13078,-2.253367 0.18811,-4.199688 0.52607,-17.859375 0.0774,-3.128698 0.19878,-6.700573 0.26971,-7.9375 0.0709,-1.236928 0.19971,-4.246092 0.2862,-6.687034 l 0.15723,-4.438074 -7.63112,0.130188 c -4.19711,0.0716 -13.10799,0.19637 -19.80195,0.27726 -11.82579,0.142902 -18.66318,0.249913 -33.73437,0.527973 -4.00183,0.07383 -11.3837,0.194399 -16.40417,0.267925 -10.67788,0.15638 -22.42584,0.354673 -31.35313,0.529206 -3.4925,0.06828 -10.57671,0.188472 -15.7427,0.267092 -5.16599,0.07862 -11.89302,0.196639 -14.94896,0.262264 -3.05594,0.06562 -11.09266,0.197855 -17.85938,0.293845 -6.76671,0.09599 -12.66031,0.206084 -13.09687,0.244654 -0.43656,0.03857 -1.82361,0.08194 -3.08234,0.09637 l -2.28859,0.02625 -1.68016,1.774984 c -0.92409,0.976241 -2.95001,3.0896 -4.50206,4.696354 -1.55204,1.606754 -3.07147,3.239573 -3.37652,3.628487 l -0.55463,0.707116 3.30118,2.203301 c 2.40956,1.608209 3.30366,2.349796 3.31038,2.745696 0.0315,1.855152 -1.98052,1.118224 -6.05185,-2.2166 l -1.96001,-1.605441 -1.61187,1.546434 c -2.10744,2.021889 -4.69062,4.15957 -5.59078,4.626576 -0.79149,0.410633 -1.32529,0.313885 -1.5538,-0.281621 -0.13871,-0.361473 1.27371,-3.537786 1.57315,-3.537786 0.0736,0 -0.11364,0.485144 -0.41614,1.078098 -0.3025,0.592954 -0.4989,1.218032 -0.43645,1.389063 0.0625,0.17103 1.50661,-1.085733 3.20922,-2.792807 1.70261,-1.707074 3.02373,-3.220154 2.93582,-3.362399 -0.0879,-0.142246 -1.19768,-0.948205 -2.46615,-1.791021 -1.26848,-0.842816 -2.39379,-1.651455 -2.5007,-1.796975 -1.07444,-1.462448 2.10677,-0.412307 5.22451,1.724647 l 1.06138,0.727488 1.77446,-2.04868 c 0.97595,-1.126774 2.73385,-3.226317 3.90643,-4.665651 l 2.13198,-2.616971 -1.61277,-0.07925 -1.61277,-0.07925 -3.10587,2.989665 c -3.35639,3.230813 -4.34919,3.938028 -4.83969,3.447523 -0.22193,-0.221933 0.42376,-1.073418 2.5114,-3.311795 l 2.81014,-3.013054 -1.64616,0.06023 c -0.90539,0.03313 -7.24209,0.135811 -14.08157,0.228187 -6.83948,0.09238 -14.39995,0.221925 -16.80104,0.287886 -2.4011,0.06596 -9.18766,0.182263 -15.08125,0.258449 -5.8936,0.07619 -12.79922,0.196102 -15.34584,0.26648 -2.54661,0.07038 -9.3927,0.191862 -15.21354,0.269967 -5.82083,0.07811 -13.381299,0.196799 -16.801038,0.263766 -3.41974,0.06697 -10.503958,0.185427 -15.742708,0.263245 -5.23875,0.07782 -12.025312,0.196703 -15.08125,0.264188 -3.055937,0.06749 -10.021093,0.188407 -15.478124,0.268716 -12.429982,0.182925 -15.673067,0.333704 -15.931869,0.740708 -0.109786,0.172656 -0.21413,1.206888 -0.231874,2.298294 -0.117944,7.254289 0.188816,75.482492 0.42052,93.530212 0.05792,4.51114 0.173579,23.62067 0.257029,42.46562 0.149416,33.74145 0.364501,61.1665 0.480617,61.28262 0.0326,0.0326 1.23305,0.14543 2.667668,0.25074 l 2.608395,0.19147 -0.185582,-0.63377 c -0.10207,-0.34857 -0.528891,-1.38398 -0.948491,-2.30091 -0.913821,-1.99692 -1.459045,-4.4389 -1.211389,-5.42564 0.09891,-0.39408 0.506202,-1.08178 0.905098,-1.52822 l 0.725267,-0.81171 5.817618,-0.13786 c 4.215042,-0.0999 5.915623,-0.23141 6.173393,-0.47751 0.472863,-0.45144 0.430784,-4.2634 -0.09509,-8.61426 -0.798301,-6.60483 -0.796254,-6.52569 -0.17393,-6.7232 1.38503,-0.4396 1.860285,0.55311 3.793146,7.92304 2.031254,7.74511 2.065247,8.52891 0.502144,11.57826 -1.055644,2.05939 -1.93222,3.17145 -2.702181,3.42811 -0.24023,0.0801 -0.0951,0.49599 0.494478,1.41703 0.458981,0.71703 0.951051,1.61219 1.09349,1.98926 l 0.258981,0.68556 7.232426,0.19422 c 13.253179,0.35589 14.618643,0.39721 18.344925,0.55508 2.037292,0.0863 5.192448,0.20757 7.011459,0.26945 1.81901,0.0619 4.378854,0.17607 5.688541,0.25373 1.309688,0.0777 4.7625,0.19938 7.672916,0.2705 2.910415,0.0711 6.482295,0.18487 7.937505,0.2528 1.4552,0.0679 4.61036,0.1871 7.01145,0.26482 2.4011,0.0777 5.49672,0.20075 6.87917,0.27339 2.56228,0.13463 6.57732,0.29911 12.96458,0.53111 1.96453,0.0713 5.00063,0.18943 6.74688,0.26238 6.41562,0.26805 9.88577,0.40002 14.02291,0.53332 2.32834,0.075 5.18584,0.19417 6.35,0.26478 1.16417,0.0706 3.60495,0.18667 5.42396,0.2579 1.81901,0.0712 4.61698,0.19506 6.21771,0.27519 1.60073,0.0801 4.33917,0.1953 6.08542,0.25591 1.74625,0.0606 4.84187,0.17803 6.87916,0.26091 2.0373,0.0829 5.19245,0.2003 7.01146,0.26093 3.39532,0.11317 8.72137,0.33966 12.7,0.54008 3.85616,0.19424 8.46502,0.39232 11.90625,0.5117 1.81901,0.0631 5.74807,0.23698 8.73125,0.38639 2.98318,0.1494 7.44802,0.33805 9.92188,0.41922 2.47385,0.0812 5.56947,0.2072 6.87916,0.28007 2.49156,0.13862 5.09326,0.26772 10.18646,0.50547 1.67349,0.0781 4.53099,0.21262 6.35,0.29891 1.81901,0.0863 3.48589,0.15541 3.70417,0.15361 0.64547,-0.005 10.2807,0.46463 12.43541,0.60651 1.09141,0.0719 4.1275,0.20149 6.74688,0.28806 2.61937,0.0866 5.35781,0.19787 6.08541,0.24735 0.72761,0.0495 2.9898,0.1605 5.02709,0.24672 2.03729,0.0862 4.65666,0.21273 5.82083,0.28113 1.16417,0.0684 3.54542,0.19138 5.29167,0.27327 1.74625,0.0819 3.9489,0.20267 4.89479,0.2684 3.05627,0.2124 6.67563,0.40441 9.78958,0.51936 1.67349,0.0618 3.93568,0.178 5.02708,0.25828 1.09141,0.0803 3.47266,0.20598 5.29167,0.27934 3.31014,0.13348 5.12015,0.22379 10.31875,0.51479 1.52797,0.0855 4.92125,0.27134 7.54063,0.4129 8.06842,0.43606 9.87593,0.54539 15.31392,0.92629 2.89287,0.20263 5.32504,0.4337 5.40482,0.51348 0.20423,0.20423 1.20283,-0.13771 1.43606,-0.49173 z m -14.87876,-19.87424 c 0,-0.21828 0.0468,-0.39687 0.10398,-0.39687 0.0572,0 0.17252,0.17859 0.25628,0.39687 0.0838,0.21828 0.037,0.39688 -0.10398,0.39688 -0.14096,0 -0.25628,-0.1786 -0.25628,-0.39688 z M 30.18757,221.00456 c -0.167778,-5.93621 -0.371358,-11.76998 -0.452399,-12.96394 -0.141815,-2.08936 -0.167363,-2.15888 -0.680591,-1.85209 -0.567354,0.33915 -0.567114,0.31922 -0.08376,6.93335 0.06381,0.87312 0.240455,3.37343 0.392549,5.55625 0.152095,2.18281 0.390893,5.09984 0.530662,6.48229 0.13977,1.38245 0.257353,3.51565 0.261296,4.74045 0.0039,1.2248 0.08145,2.15263 0.17223,2.06185 0.09078,-0.0908 0.02779,-5.02196 -0.139991,-10.95816 z m -0.700316,-23.82383 c -0.09689,-3.45612 -0.207983,-6.81963 -0.246863,-7.47448 -0.03888,-0.65484 -0.08544,-1.87765 -0.103458,-2.71735 l -0.03277,-1.52674 -1.043138,0.53217 -1.043139,0.53217 0.122908,1.92061 c 0.124085,1.93901 0.429829,5.60886 0.90631,10.87845 0.14285,1.57984 0.190452,2.98452 0.105781,3.12152 -0.294286,0.47617 0.145021,1.0175 0.825729,1.0175 h 0.684808 z m -0.524828,-14.97816 c -0.0052,-0.82068 -0.03496,-2.74974 -0.06615,-4.28679 l -0.0567,-2.79464 -1.276836,0.69494 c -1.447297,0.78772 -1.335877,0.12103 -0.955126,5.71515 l 0.190928,2.8052 1.086663,-0.32086 1.086662,-0.32085 z m -0.567713,-8.63299 c 0.449457,-0.003 0.469156,-0.22526 0.298875,-3.37635 -0.100263,-1.85539 -0.204297,-3.39985 -0.231185,-3.43213 -0.02689,-0.0323 -0.682935,0.3683 -1.45788,0.89018 l -1.408993,0.94887 0.166819,1.59603 c 0.09175,0.87781 0.166818,2.07039 0.166818,2.65017 v 1.05414 l 0.992187,-0.164 c 0.545704,-0.0902 1.208715,-0.16531 1.473359,-0.16691 z m -1.23203,-9.17936 1.412317,-0.44519 0.0058,-1.20845 c 0.0032,-0.66465 0.07808,-3.17899 0.166385,-5.58743 0.137241,-3.74319 0.09798,-4.49999 -0.270417,-5.21239 -0.353231,-0.68307 -0.436547,-1.8022 -0.461894,-6.20435 -0.01701,-2.95402 -0.106306,-6.11144 -0.198438,-7.01647 l -0.167511,-1.64552 -1.142992,0.71948 -1.142991,0.71948 0.178406,6.55421 c 0.114218,4.1961 0.08433,6.67113 -0.08308,6.87917 -0.267071,0.33189 -0.116688,12.89266 0.154357,12.89266 0.07574,0 0.773248,-0.20034 1.550022,-0.4452 z m -0.238558,-28.1717 0.862666,-0.24909 -0.110253,-3.09565 c -0.06064,-1.70261 -0.121417,-3.12387 -0.135062,-3.15836 -0.01914,-0.0484 -2.175701,0.90465 -2.628124,1.16144 -0.04938,0.028 -0.0039,1.37654 0.10115,2.99671 0.166396,2.56735 0.245906,2.92317 0.618939,2.7699 0.23541,-0.0967 0.816217,-0.28795 1.290684,-0.42495 z m 0.592542,-11.63838 v -2.34974 l -0.859896,0.36751 c -2.323724,0.99313 -2.190484,0.82669 -2.10371,2.62787 0.112408,2.33325 0.06617,2.277 1.619392,1.96989 l 1.344214,-0.26579 z m -0.697806,-3.84489 c 0.472178,-0.13397 0.485874,-0.50161 0.326993,-8.77764 -0.165398,-8.61556 -0.359069,-12.474275 -0.626088,-12.474275 -0.07754,0 -0.788258,0.316683 -1.579375,0.703745 l -1.438394,0.70374 0.183582,4.38948 c 0.100969,2.41422 0.217894,4.80621 0.259831,5.31553 0.04194,0.50933 0.155518,2.89058 0.252401,5.29167 0.09688,2.4011 0.238722,4.58118 0.3152,4.84464 0.138215,0.47614 0.636303,0.47681 2.30585,0.003 z M 25.030266,97.767591 c 0.829492,-0.216056 1.554345,-0.439006 1.610784,-0.495445 0.05644,-0.05644 0.06818,-1.17902 0.0261,-2.494625 l -0.07652,-2.392008 -1.5875,0.663319 c -0.873125,0.364826 -1.683327,0.75393 -1.80045,0.864675 -0.190984,0.180583 0.0355,4.246911 0.236536,4.246911 0.04559,0 0.761563,-0.176772 1.591055,-0.392827 z m 0.965047,-7.180698 c 0.254661,-0.07428 0.4724,-0.335387 0.483865,-0.580242 0.03921,-0.837567 -0.0619,-3.88173 -0.131235,-3.951068 -0.03808,-0.03808 -0.870647,0.258917 -1.850153,0.659989 l -1.78092,0.729221 0.148028,0.926042 c 0.08142,0.509323 0.149339,1.326513 0.150941,1.815979 l 0.0029,0.889938 1.256771,-0.177404 c 0.691224,-0.09757 1.46513,-0.238177 1.719792,-0.312455 z m -0.925218,-5.827185 1.389887,-0.166943 -0.106363,-1.748986 c -0.0585,-0.961942 -0.118402,-3.44436 -0.133116,-5.516483 l -0.02675,-3.767498 -1.918229,1.004171 -1.918229,1.004171 0.05619,3.82166 c 0.0309,2.101913 0.125596,4.208613 0.210427,4.681556 0.16886,0.941414 0.219856,0.955764 2.446188,0.688352 z M 24.672396,71.254812 25.929167,71.09921 v -2.095427 c 0,-1.152486 -0.0893,-2.04678 -0.198437,-1.987322 -0.109141,0.05946 -1.040353,0.378877 -2.06936,0.709818 l -1.870922,0.601712 0.01884,1.706855 0.01884,1.706854 0.79375,-0.165643 c 0.436563,-0.0911 1.359297,-0.235664 2.050521,-0.321245 z m 1.142407,-6.266529 C 25.732182,64.56991 25.664584,63.063804 25.664584,61.64138 v -2.586225 l -2.116667,0.804176 -2.116667,0.804177 v 2.432483 c 0,1.337865 0.0585,2.490984 0.130002,2.562485 0.0715,0.0715 1.0916,0.12111 2.266886,0.110243 l 2.136884,-0.01976 z m -0.986101,-7.148062 c 0.839868,0.0123 0.876122,-0.026 0.727604,-0.768587 C 25.470338,56.641794 25.4,55.654424 25.4,54.877479 v -1.412626 l -2.279927,0.04018 -2.279928,0.04018 0.160961,1.339376 c 0.08853,0.736657 0.161996,1.797034 0.163261,2.356392 l 0.0023,1.017016 1.389063,-0.215356 c 0.763984,-0.118445 1.786822,-0.209532 2.272972,-0.202414 z"
         id="path1" /></g></g></svg>
