<?xml version="1.0" encoding="UTF-8" standalone="no"?>
<!-- Created with Inkscape (http://www.inkscape.org/) -->

<svg
   width="132.29166mm"
   height="86.74482mm"
   viewBox="0 0 146.99073 96.383133"
   version="1.1"
   id="svg1"
   xml:space="preserve"
   xmlns:inkscape="http://www.inkscape.org/namespaces/inkscape"
   xmlns:sodipodi="http://sodipodi.sourceforge.net/DTD/sodipodi-0.dtd"
   xmlns="http://www.w3.org/2000/svg"
   xmlns:svg="http://www.w3.org/2000/svg"><sodipodi:namedview
     id="namedview1"
     pagecolor="#ffffff"
     bordercolor="#000000"
     borderopacity="0.25"
     inkscape:showpageshadow="2"
     inkscape:pageopacity="0.0"
     inkscape:pagecheckerboard="0"
     inkscape:deskcolor="#d1d1d1"
     inkscape:document-units="mm"><inkscape:page
       x="0"
       y="0"
       width="146.99072"
       height="96.383133"
       id="page2"
       margin="0"
       bleed="0" /></sodipodi:namedview><defs
     id="defs1" /><g
     inkscape:label="Layer 1"
     inkscape:groupmode="layer"
     id="layer1"
     transform="translate(-38.89375,-106.397)"><g
       id="g1"
       transform="translate(8.1784388,5.3159854)"><path
         style="fill:#cfcfcf"
         d="m 109.82297,192.19774 c 0.0127,-0.30822 0.0754,-0.37091 0.15985,-0.15985 0.0764,0.191 0.067,0.4192 -0.0209,0.50712 -0.0879,0.0879 -0.15045,-0.0683 -0.13896,-0.34727 z m 47.02533,-0.29098 c 0.191,-0.0764 0.4192,-0.067 0.50712,0.0209 0.0879,0.0879 -0.0684,0.15045 -0.34726,0.13896 -0.30823,-0.0127 -0.37092,-0.0754 -0.15986,-0.15985 z m -23.19194,-0.87759 c 0,-0.3638 0.06,-0.51263 0.13345,-0.33073 0.0734,0.1819 0.0734,0.47956 0,0.66146 -0.0734,0.1819 -0.13345,0.0331 -0.13345,-0.33073 z m -14.04381,-0.41893 c 0.0127,-0.30822 0.0754,-0.37091 0.15985,-0.15985 0.0764,0.191 0.067,0.4192 -0.0209,0.50712 -0.0879,0.0879 -0.15046,-0.0684 -0.13897,-0.34727 z m -30.467993,-0.83784 -0.641434,-0.72761 0.727605,0.64144 c 0.400182,0.35278 0.727604,0.68021 0.727604,0.7276 0,0.20751 -0.21426,0.0386 -0.813775,-0.64143 z m -27.152772,-2.18282 c 0,-0.80036 0.0496,-1.12778 0.110223,-0.7276 0.06062,0.40018 0.06062,1.05503 0,1.45521 -0.06062,0.40018 -0.110223,0.0728 -0.110223,-0.72761 z m -15.093812,0.1323 c 0.0029,-0.58209 0.05712,-0.78906 0.120406,-0.45994 0.06329,0.32912 0.06088,0.80537 -0.0053,1.05833 -0.06622,0.25297 -0.118003,-0.0163 -0.115067,-0.59839 z m 75.624997,-0.8158 c 0.0127,-0.30823 0.0754,-0.37092 0.15985,-0.15985 0.0764,0.19099 0.067,0.41919 -0.0209,0.50711 -0.0879,0.0879 -0.15045,-0.0684 -0.13896,-0.34726 z m -51.329166,-1.05834 c 0.0127,-0.30822 0.07539,-0.37091 0.159852,-0.15985 0.07643,0.191 0.06703,0.4192 -0.02089,0.50712 -0.08792,0.0879 -0.150453,-0.0684 -0.138964,-0.34727 z m -22.56008,-0.82015 c 0.190996,-0.0764 0.419199,-0.067 0.507118,0.0209 0.08792,0.0879 -0.06835,0.15046 -0.347266,0.13897 -0.308224,-0.0127 -0.370919,-0.0754 -0.159852,-0.15986 z m 1.504817,-1.40676 c 0.263389,-0.29104 0.538421,-0.52916 0.611181,-0.52916 0.07276,0 -0.08321,0.23812 -0.346597,0.52916 -0.263389,0.29105 -0.538421,0.52917 -0.611181,0.52917 -0.07276,0 0.08321,-0.23812 0.346597,-0.52917 z m 24.672395,0.35394 c 0.181901,-0.0734 0.479558,-0.0734 0.661459,0 0.181901,0.0734 0.03307,0.13346 -0.330729,0.13346 -0.363803,0 -0.512631,-0.0601 -0.33073,-0.13346 z m -26.921353,-0.18925 c 0,-0.0549 0.208359,-0.2633 0.463021,-0.46302 0.419644,-0.3291 0.429002,-0.31975 0.0999,0.0999 -0.345644,0.44073 -0.562916,0.58088 -0.562916,0.36312 z m 15.631304,-1.64194 c 0.0127,-0.30823 0.07539,-0.37092 0.159853,-0.15985 0.07643,0.19099 0.06703,0.41919 -0.02089,0.50711 -0.08792,0.0879 -0.150453,-0.0683 -0.138965,-0.34726 z m -4.817137,-1.10243 c -0.329107,-0.41965 -0.319749,-0.429 0.0999,-0.0999 0.254662,0.19972 0.463021,0.40808 0.463021,0.46302 0,0.21776 -0.217272,0.0776 -0.562916,-0.36312 z m 7.14375,-0.79375 c -0.329107,-0.41965 -0.319749,-0.429 0.0999,-0.0999 0.254661,0.19972 0.463021,0.40808 0.463021,0.46302 0,0.21776 -0.217272,0.0776 -0.562916,-0.36312 z"
         id="path7" /><path
         style="fill:#b8b8b8"
         d="m 155.64618,191.90415 c 0.25743,-0.0671 0.61462,-0.0627 0.79375,0.01 0.17913,0.0725 -0.0315,0.12736 -0.46806,0.12197 -0.43656,-0.005 -0.58312,-0.0647 -0.32569,-0.13177 z m -22.01071,-1.82307 c 0.0127,-0.30823 0.0754,-0.37092 0.15985,-0.15985 0.0764,0.19099 0.067,0.41919 -0.0209,0.50711 -0.0879,0.0879 -0.15045,-0.0683 -0.13896,-0.34726 z m 10.58333,-2.64584 c 0.0127,-0.30822 0.0754,-0.37091 0.15985,-0.15985 0.0764,0.191 0.067,0.4192 -0.0209,0.50712 -0.0879,0.0879 -0.15046,-0.0684 -0.13897,-0.34727 z m -23.51722,-7.91545 c 0.005,-0.43656 0.0647,-0.58312 0.13177,-0.32569 0.0671,0.25743 0.0627,0.61462 -0.01,0.79375 -0.0725,0.17913 -0.12736,-0.0315 -0.12197,-0.46806 z m 39.50362,-72.89271 -10.58333,-0.14142 10.45104,-0.0575 c 6.40164,-0.0352 10.60482,0.0419 10.84792,0.19895 0.21828,0.14107 0.27781,0.2306 0.13229,0.19896 -0.14552,-0.0316 -5.02708,-0.12117 -10.84792,-0.19896 z M 49.525607,106.42904 c 2.864344,-0.0427 7.626844,-0.0427 10.583333,-1.3e-4 2.956489,0.0426 0.612934,0.0775 -5.207899,0.0776 -5.820833,7e-5 -8.239778,-0.0348 -5.375434,-0.0775 z m 47.360415,0 c 2.864345,-0.0427 7.626848,-0.0427 10.583338,-1.3e-4 2.95648,0.0426 0.61293,0.0775 -5.2079,0.0776 -5.820837,7e-5 -8.239782,-0.0348 -5.375438,-0.0775 z m 31.785338,-1.4e-4 c 3.0293,-0.0425 7.91087,-0.0424 10.84792,1.2e-4 2.93705,0.0426 0.45853,0.0773 -5.50782,0.0772 -5.96636,-7e-5 -8.3694,-0.0349 -5.3401,-0.0774 z"
         id="path6" /><path
         style="fill:#8f8f8f"
         d="m 146.38576,192.43331 c 0.25743,-0.0671 0.61462,-0.0627 0.79375,0.01 0.17913,0.0725 -0.0315,0.12736 -0.46805,0.12197 -0.43657,-0.005 -0.58313,-0.0647 -0.3257,-0.13178 z m -40.79612,-9.49598 c 0.0127,-0.30823 0.0754,-0.37092 0.15985,-0.15985 0.0764,0.19099 0.067,0.41919 -0.0209,0.50711 -0.0879,0.0879 -0.15045,-0.0684 -0.13896,-0.34726 z"
         id="path5" /><path
         style="fill:#797979"
         d="m 79.589973,187.40884 c 0.190996,-0.0764 0.419199,-0.067 0.507118,0.0209 0.08792,0.0879 -0.06835,0.15046 -0.347266,0.13897 -0.308224,-0.0127 -0.370919,-0.0754 -0.159852,-0.15986 z m 26.020547,-0.34842 c 0,-0.3638 0.0601,-0.51263 0.13346,-0.33073 0.0734,0.1819 0.0734,0.47956 0,0.66146 -0.0734,0.1819 -0.13346,0.0331 -0.13346,-0.33073 z m -31.989631,-0.66146 c 0.0029,-0.58208 0.05712,-0.78905 0.120406,-0.45994 0.06329,0.32912 0.06088,0.80537 -0.0053,1.05834 -0.06622,0.25296 -0.118004,-0.0163 -0.115067,-0.5984 z m 31.999441,-2.38125 c 0.005,-0.43656 0.0647,-0.58312 0.13177,-0.32569 0.0671,0.25743 0.0627,0.61461 -0.01,0.79375 -0.0725,0.17913 -0.12736,-0.0315 -0.12197,-0.46806 z m -5.27207,-3.75523 c 0.25743,-0.0671 0.61462,-0.0627 0.79375,0.01 0.17913,0.0725 -0.0315,0.12737 -0.46805,0.12197 -0.43657,-0.005 -0.58313,-0.0647 -0.3257,-0.13177 z m -38.898782,-1.05736 c 0.254662,-0.0666 0.671381,-0.0666 0.926042,0 0.254662,0.0666 0.0463,0.121 -0.463021,0.121 -0.509323,0 -0.717682,-0.0545 -0.463021,-0.121 z m 109.206772,-6.56449 c 0,-1.6757 0.10499,-2.77813 0.26458,-2.77813 0.15959,0 0.26458,1.10243 0.26458,2.77813 0,1.67569 -0.10499,2.77812 -0.26458,2.77812 -0.15959,0 -0.26458,-1.10243 -0.26458,-2.77812 z m 0,-63.23542 v -2.51354 l -10.51719,-0.0629 -10.51719,-0.0629 10.18646,-0.0769 c 5.60255,-0.0423 10.45435,-0.0117 10.78177,0.068 0.56532,0.13754 0.59531,0.27124 0.59531,2.65334 0,1.49595 -0.1068,2.5085 -0.26458,2.5085 -0.15782,0 -0.26458,-1.01423 -0.26458,-2.51354 z M 49.525607,106.69362 c 2.864344,-0.0427 7.626844,-0.0427 10.583333,-1.3e-4 2.956489,0.0426 0.612934,0.0775 -5.207899,0.0776 -5.820833,8e-5 -8.239778,-0.0348 -5.375434,-0.0775 z m 47.360415,0 c 2.864345,-0.0427 7.626848,-0.0427 10.583338,-1.3e-4 2.95648,0.0426 0.61293,0.0775 -5.2079,0.0776 -5.820837,8e-5 -8.239782,-0.0348 -5.375438,-0.0775 z m 31.785338,-1.4e-4 c 3.0293,-0.0425 7.91087,-0.0424 10.84792,1.2e-4 2.93705,0.0425 0.45853,0.0773 -5.50782,0.0772 -5.96636,-7e-5 -8.3694,-0.0349 -5.3401,-0.0774 z"
         id="path4" /><path
         style="fill:#505050"
         d="m 166.49409,191.63956 c 0.25744,-0.0671 0.61462,-0.0627 0.79375,0.01 0.17914,0.0725 -0.0315,0.12736 -0.46805,0.12197 -0.43656,-0.005 -0.58313,-0.0647 -0.3257,-0.13178 z m -73.029451,-1.27185 c 0.0029,-0.58208 0.05712,-0.78905 0.120405,-0.45994 0.06329,0.32912 0.06088,0.80537 -0.0053,1.05834 -0.06622,0.25296 -0.118003,-0.0163 -0.115066,-0.5984 z m 34.279501,0.21613 c 0.19099,-0.0764 0.4192,-0.067 0.50712,0.0209 0.0879,0.0879 -0.0684,0.15046 -0.34727,0.13897 -0.30822,-0.0127 -0.37092,-0.0754 -0.15985,-0.15986 z m -22.10867,-4.97863 c 0.003,-0.58208 0.0571,-0.78905 0.12041,-0.45994 0.0633,0.32912 0.0609,0.80537 -0.005,1.05834 -0.0662,0.25296 -0.11801,-0.0163 -0.11507,-0.5984 z m 53.34536,-3.50573 c -0.32911,-0.41964 -0.31975,-0.429 0.0999,-0.0999 0.25466,0.19972 0.46302,0.40807 0.46302,0.46302 0,0.21776 -0.21728,0.0776 -0.56292,-0.36313 z m -112.083434,-2.3652 c 0.254661,-0.0666 0.67138,-0.0666 0.926041,0 0.254662,0.0665 0.0463,0.121 -0.463021,0.121 -0.509323,0 -0.717682,-0.0545 -0.46302,-0.121 z"
         id="path3" /><path
         style="fill:#2f2f2f"
         d="m 142.31208,190.83073 c -0.32911,-0.41964 -0.31975,-0.429 0.0999,-0.0999 0.25466,0.19972 0.46302,0.40807 0.46302,0.46302 0,0.21776 -0.21728,0.0776 -0.56292,-0.36313 z m -52.632575,-0.79375 -0.911798,-0.99219 0.992187,0.9118 c 0.545703,0.50149 0.992188,0.94797 0.992188,0.99219 0,0.20204 -0.223895,0.0117 -1.072577,-0.9118 z m -38.350339,-0.43062 c 0,-0.0549 0.20836,-0.2633 0.463021,-0.46302 0.419644,-0.32911 0.429002,-0.31975 0.0999,0.0999 -0.345644,0.44073 -0.562916,0.58089 -0.562916,0.36313 z m 20.129221,-1.37737 c 0.0127,-0.30822 0.07539,-0.37091 0.159853,-0.15985 0.07643,0.191 0.06703,0.4192 -0.02089,0.50712 -0.08792,0.0879 -0.150452,-0.0683 -0.138963,-0.34727 z m -27.461879,-5.26961 c 0.002,-0.72761 0.05337,-0.99386 0.114185,-0.59168 0.06082,0.40219 0.05919,0.9975 -0.0036,1.32292 -0.0628,0.32542 -0.112561,-0.004 -0.110574,-0.73124 z m 58.174432,-0.1323 c 0,-0.3638 0.0601,-0.51263 0.13345,-0.33072 0.0734,0.1819 0.0734,0.47955 0,0.66145 -0.0734,0.18191 -0.13345,0.0331 -0.13345,-0.33073 z m 57.60364,0.0661 c -0.32911,-0.41964 -0.31975,-0.429 0.0999,-0.0999 0.25466,0.19972 0.46302,0.40807 0.46302,0.46302 0,0.21776 -0.21728,0.0776 -0.56292,-0.36313 z m -29.74852,-1.71979 -0.7771,-0.8599 0.85989,0.77711 c 0.80154,0.72437 0.98151,0.94268 0.77711,0.94268 -0.0455,0 -0.43249,-0.38695 -0.8599,-0.85989 z m -2.3646,-0.19844 c 0.26338,-0.29104 0.53842,-0.52917 0.61118,-0.52917 0.0728,0 -0.0832,0.23813 -0.3466,0.52917 -0.26339,0.29104 -0.53842,0.52917 -0.61118,0.52917 -0.0728,0 0.0832,-0.23813 0.3466,-0.52917 z m -80.631773,-0.43981 c 0.181901,-0.0734 0.479557,-0.0734 0.661459,0 0.181901,0.0734 0.03307,0.13345 -0.33073,0.13345 -0.363802,0 -0.51263,-0.0601 -0.330729,-0.13345 z m 30.708202,-1.59301 c 0.190996,-0.0764 0.4192,-0.067 0.507118,0.0209 0.08792,0.0879 -0.06835,0.15045 -0.347265,0.13896 -0.308225,-0.0127 -0.370919,-0.0754 -0.159853,-0.15985 z"
         id="path2" /><path
         style="fill:#000000"
         d="m 110.33665,192.75547 c -0.34458,-0.4152 -0.25988,-1.04598 1.19105,-8.87005 0.81049,-4.37048 0.76031,-4.23334 1.54901,-4.23334 0.90897,0 1.49542,1.07352 2.85418,5.22475 0.63098,1.92772 1.22022,3.5053 1.30942,3.50573 0.0892,4.2e-4 0.24345,-1.10625 0.34277,-2.45928 0.21987,-2.99542 0.79634,-5.86459 1.3472,-6.70531 0.24755,-0.37781 0.6677,-0.62422 1.06436,-0.62422 0.57135,0 0.65536,0.11754 0.65536,0.91695 0,0.50432 -0.17732,2.20096 -0.39405,3.77031 -0.21673,1.56935 -0.50209,4.32703 -0.63415,6.12817 -0.24813,3.3843 -0.38407,3.72423 -1.49262,3.7326 -1.27565,0.01 -2.65412,-1.97865 -3.71418,-5.35725 -0.26313,-0.83867 -0.55847,-1.43398 -0.6563,-1.32292 -0.0978,0.11106 -0.5122,1.44222 -0.92083,2.95813 -0.88527,3.28409 -1.67262,4.33413 -2.50122,3.33573 z m -65.262351,-0.46351 c -0.274957,-0.44489 -0.8678,-6.25142 -0.879412,-8.61328 -0.01143,-2.3255 -0.221456,-2.47823 -2.099353,-1.52663 -1.43557,0.72746 -1.733625,0.59879 -0.751092,-0.32425 1.293483,-1.21517 3.063803,-1.75581 5.788337,-1.7677 2.146257,-0.009 2.638984,0.0687 3.108854,0.49289 1.150722,1.03873 0.612919,2.56803 -1.418871,4.0347 l -0.786613,0.56782 1.48921,0.18607 c 3.059276,0.38223 3.963615,1.80559 2.329606,3.66663 -0.887587,1.0109 -2.148447,1.59582 -4.031528,1.87024 -0.947209,0.13803 -1.256771,0.29646 -1.256771,0.64318 0,0.89919 -1.071046,1.45204 -1.492367,0.77033 z m 4.967876,-3.54617 c 0.901294,-0.86349 1.020054,-2.05558 0.246052,-2.46981 -0.281475,-0.15064 -1.174444,-0.2739 -1.984375,-0.2739 H 46.83125 v 2.10402 2.10401 l 1.22655,-0.36914 c 0.674603,-0.20303 1.567572,-0.69586 1.984375,-1.09518 z m -2.26486,-4.54351 c 0.972436,-0.81324 1.506179,-1.85006 1.32467,-2.57325 -0.189517,-0.7551 -1.271421,-1.29215 -2.155865,-1.07017 -0.5087,0.12767 -0.556041,0.2862 -0.458704,1.53602 0.211527,2.71604 0.330224,2.90997 1.289899,2.1074 z m 96.267515,7.64807 c -1.30745,-0.59382 -2.15392,-1.61155 -2.39087,-2.87463 -0.38952,-2.07632 1.37025,-7.41134 2.85742,-8.66271 1.63227,-1.37346 3.9439,-0.98885 4.3963,0.73147 0.38735,1.47293 -0.28355,3.28318 -1.11899,3.01933 -0.35364,-0.11169 -0.62935,-0.68219 -0.94931,-1.96433 -0.15434,-0.61846 -0.39267,-1.12448 -0.52962,-1.12448 -0.36965,0 -1.26571,1.88973 -1.71623,3.6194 -0.9829,3.77359 -0.10338,6.43477 2.12669,6.43477 0.98589,0 2.55462,-0.79489 2.70521,-1.37076 0.15021,-0.57441 0.57548,-0.61388 1.25565,-0.11653 0.48016,0.35111 0.48129,0.39167 0.0299,1.08051 -1.0495,1.60173 -4.45999,2.22997 -6.6662,1.22796 z m -44.928782,0.0205 c -0.151076,-0.24445 0.804269,-0.6803 2.880822,-1.3143 0.86598,-0.2644 0.85901,-0.21516 0.4013,-2.83462 -0.16059,-0.91908 -0.20656,-2.84079 -0.10918,-4.56407 l 0.1682,-2.97656 h -1.26644 c -0.69655,0 -1.200342,-0.0661 -1.11955,-0.1469 0.29266,-0.29265 4.96497,-1.12737 5.51108,-0.98456 0.40361,0.10555 0.46598,0.20488 0.22295,0.35508 -0.25757,0.15919 -0.32555,1.41847 -0.28724,5.32111 l 0.0502,5.11256 0.85912,0.0878 c 0.47251,0.0483 1.01594,0.21792 1.20762,0.377 0.56272,0.46701 -0.20186,0.72783 -3.33684,1.1383 -1.55671,0.20382 -3.32231,0.44394 -3.92357,0.53359 -0.634461,0.0946 -1.162547,0.0508 -1.258462,-0.1044 z m 30.945552,-0.19907 c -0.22867,-0.22868 -0.41549,-0.61563 -0.41515,-0.8599 5.3e-4,-0.38353 -0.26629,-0.43238 -1.9559,-0.35807 -2.46587,0.10846 -3.82003,-0.48565 -4.53338,-1.98893 -0.41439,-0.87325 -0.4384,-1.22312 -0.18534,-2.70047 0.38823,-2.26648 1.78866,-5.01728 2.94365,-5.78211 2.10726,-1.3954 4.83528,-1.31571 6.17196,0.18029 0.90605,1.01405 0.92711,1.52929 0.0783,1.91604 -0.58901,0.26837 -0.77523,0.18773 -1.84617,-0.79943 -0.6551,-0.60384 -1.32851,-1.0979 -1.49648,-1.0979 -0.57527,0 -2.02972,1.82799 -2.46059,3.09251 -0.70444,2.06742 -0.78843,3.77901 -0.23776,4.84499 0.58286,1.12828 1.18342,1.24768 2.79693,0.55604 0.93552,-0.40101 1.36066,-0.78752 1.78834,-1.62583 l 0.56106,-1.09976 -1.0772,0.18199 c -0.59247,0.10009 -1.07721,0.12224 -1.07721,0.0492 0,-0.39683 3.50044,-2.0304 4.35078,-2.0304 1.1877,0 1.3393,0.35544 0.79496,1.86386 -0.23397,0.64837 -0.48899,2.13135 -0.56671,3.29552 -0.0989,1.48074 -0.2667,2.21603 -0.55866,2.44739 -0.59574,0.47211 -2.57295,0.41744 -3.07543,-0.085 z m -38.142546,-0.03 c -0.304051,-0.06 -1.072981,-0.6391 -1.708734,-1.28688 -0.635753,-0.64779 -1.292495,-1.1778 -1.459427,-1.1778 -0.166931,0 -0.41381,0.38696 -0.548618,0.8599 -0.210386,0.73809 -0.378302,0.87116 -1.1854,0.93942 -1.397689,0.11821 -1.509908,-0.124 -2.733694,-5.90036 -0.369963,-1.74625 -0.734952,-3.44289 -0.811087,-3.77031 -0.112806,-0.48513 -0.02563,-0.59531 0.471026,-0.59531 0.892747,0 1.592401,1.42185 2.571099,5.22502 0.282879,1.09926 0.302752,1.11514 0.903355,0.72161 0.785561,-0.51472 1.407677,-0.29027 2.424027,0.87455 l 0.809311,0.92753 0.348768,-1.55845 c 0.409365,-1.82924 1.918345,-5.88028 2.548722,-6.84236 0.338217,-0.51618 0.661243,-0.66988 1.401297,-0.66677 0.528967,0.002 1.133243,0.11256 1.342837,0.24517 0.460555,0.29141 0.29342,0.87404 -1.262241,4.40014 -1.06553,2.41516 -1.63238,4.66655 -1.63238,6.48343 0,0.65086 -0.140966,1.03552 -0.418515,1.14203 -0.230183,0.0883 -0.438542,0.14438 -0.46302,0.12457 -0.02448,-0.0198 -0.293275,-0.0851 -0.597326,-0.14513 z M 154.1893,191.4273 c -0.93271,-0.52993 -1.15549,-1.47376 -0.77861,-3.29868 0.68683,-3.3257 4.10261,-8.47652 5.62124,-8.47652 0.54958,0 0.55625,0.0277 0.14347,0.59532 -0.80785,1.11097 -0.76587,1.24428 0.97199,3.08649 1.85241,1.96366 3.00948,4.32198 2.70862,5.52069 -0.38984,1.55326 -2.68505,2.63098 -6.09039,2.85976 -1.3718,0.0922 -2.03989,0.0177 -2.57632,-0.28706 z m 4.22063,-1.18056 c 1.25587,-0.57012 1.55215,-1.23658 1.31981,-2.96881 -0.16216,-1.20899 -1.66757,-4.45083 -2.06683,-4.45083 -0.41609,0 -1.51205,2.60861 -1.98296,4.71982 -0.69799,3.12929 0.0829,3.90153 2.72998,2.69982 z m -87.092364,0.0693 c -0.387609,-0.6935 -0.608488,-1.29494 -0.490843,-1.33652 0.714544,-0.25255 0.772991,-0.58198 0.618219,-3.48448 -0.13601,-2.55062 -0.236967,-3.0652 -0.648868,-3.30729 -0.8273,-0.48622 -2.004408,-1.51251 -2.004408,-1.74759 0,-0.33895 0.618266,-0.46785 4.476638,-0.93326 4.748076,-0.57272 6.964079,-0.61504 7.532191,-0.14382 0.246958,0.20484 0.354671,0.46018 0.239363,0.56743 -0.115308,0.10724 -1.777388,0.52185 -3.693512,0.92135 -1.916123,0.3995 -3.622561,0.81208 -3.792084,0.91685 -0.204453,0.12636 -0.249564,0.58166 -0.133992,1.35235 l 0.174232,1.16186 1.104311,-0.0839 c 1.31006,-0.0995 2.446897,0.54446 1.765769,1.00023 -0.218281,0.14605 -0.962422,0.26738 -1.653646,0.26961 l -1.25677,0.004 v 1.48415 1.48416 l 0.859895,-0.12217 c 0.472943,-0.0672 1.908535,-0.28365 3.190204,-0.48102 2.394633,-0.36877 3.225942,-0.22389 3.225942,0.5622 0,0.40547 -2.584796,1.33466 -5.953125,2.14004 -1.236927,0.29576 -2.385266,0.65 -2.551865,0.7872 -0.210457,0.17333 -0.518003,-0.13538 -1.007651,-1.01146 z m 94.056254,0.85657 c -0.25905,-0.31214 -0.1918,-0.51408 0.35245,-1.05833 0.78192,-0.78193 0.93279,-0.80212 2.16035,-0.28922 1.61085,0.67306 1.02665,1.73329 -0.95506,1.73329 -0.76144,0 -1.36078,-0.14841 -1.55774,-0.38574 z M 57.309753,190.83073 c -0.07727,-0.25466 -0.32591,-2.01083 -0.552537,-3.9026 -0.711221,-5.93695 -0.661644,-5.68855 -1.135333,-5.68855 -1.051734,0 0.441082,-0.80805 2.434846,-1.31797 2.764394,-0.70702 5.452318,-0.70502 6.919313,0.005 2.154907,1.04318 2.167838,3.00397 0.02673,4.0537 -0.930601,0.45626 -0.973035,0.52539 -0.585376,0.95375 0.471906,0.52145 1.267166,3.98773 1.146252,4.99613 -0.171491,1.4302 -2.742929,1.24731 -3.150568,-0.22408 -0.100789,-0.3638 -0.195121,-1.51763 -0.209627,-2.56407 -0.0145,-1.04644 -0.129009,-1.96605 -0.254453,-2.04358 -0.125444,-0.0775 -0.701016,0.0448 -1.279048,0.27187 l -1.050968,0.41284 -0.269815,2.35082 c -0.148398,1.29296 -0.420842,2.53281 -0.605432,2.75523 -0.452441,0.54515 -1.260816,0.51211 -1.433987,-0.0586 z m 4.224885,-6.84957 c 1.633165,-0.54288 2.229945,-1.05185 2.229945,-1.90185 0,-1.25889 -0.66404,-1.6339 -2.885278,-1.62942 -2.064428,0.004 -3.220542,0.33083 -2.351316,0.66438 0.506262,0.19427 1.00326,1.45554 1.00326,2.54605 0,0.88121 0.214319,0.91554 2.003389,0.32084 z M 38.89375,172.64063 v -2.77813 h 65.88125 65.88125 v 2.77813 2.77812 H 104.775 38.89375 Z M 44.45,162.18958 v -2.64583 H 41.671875 38.89375 V 146.18229 132.82083 H 41.671875 44.45 v -2.38125 -2.38125 H 41.671875 38.89375 v -8.06979 -8.06979 H 41.671875 44.45 v -2.51354 -2.51354 h 10.451041 10.451041 v 2.51354 2.51354 h 2.513542 2.513542 v 8.06979 8.06979 h -2.513542 -2.513542 v 2.38125 2.38125 h 2.513542 2.513542 v 13.36146 13.36146 h -2.513542 -2.513542 v 2.64583 2.64584 H 54.901041 44.45 Z m 15.345833,-16.00729 v -13.36146 h -5.159375 -5.159375 v 13.36146 13.36146 h 5.159375 5.159375 z m 0,-26.19375 v -8.06979 h -5.159375 -5.159375 v 8.06979 8.06979 h 5.159375 5.159375 z m 32.014582,15.875 v -28.97187 h 10.451045 10.45104 v 2.51354 2.51354 h 2.77812 2.77813 v 8.06979 8.06979 h -2.77813 -2.77812 v 2.38125 2.38125 h 2.77812 2.77813 v 13.36146 13.36146 h -2.77813 -2.77812 v 2.64583 2.64584 H 102.26146 91.810415 Z m 15.874995,10.31875 v -13.36146 h -2.64583 -2.64583 v 13.36146 13.36146 h 2.64583 2.64583 z m 0,-26.19375 v -8.06979 h -2.64583 -2.64583 v 8.06979 8.06979 h 2.64583 2.64583 z m 15.61042,42.20104 v -2.64583 h 2.77813 2.77812 v -23.8125 -23.8125 h -2.77812 -2.77813 v -2.51354 -2.51354 h 10.71563 10.71562 v 2.51354 2.51354 h -2.77812 -2.77813 v 23.8125 23.8125 h 2.77813 2.77812 v 2.64583 2.64584 h -10.71562 -10.71563 z m 32.01458,-23.8125 v -26.45833 h -2.77812 -2.77813 v -2.51354 -2.51354 h 10.45104 10.45105 v 2.51354 2.51354 h -2.38125 -2.38125 v 26.45833 26.45834 h -5.29167 -5.29167 z m -79.374994,-7.9375 v -2.38125 h 5.159374 5.159375 v 2.38125 2.38125 H 81.09479 75.935416 Z"
         id="path1" /></g></g></svg>
