<?xml version="1.0" encoding="UTF-8" standalone="no"?>
<!-- Created with Inkscape (http://www.inkscape.org/) -->

<svg
   width="520.203mm"
   height="182.54811mm"
   viewBox="0 0 578.00334 202.83124"
   version="1.1"
   id="svg1"
   xml:space="preserve"
   xmlns:inkscape="http://www.inkscape.org/namespaces/inkscape"
   xmlns:sodipodi="http://sodipodi.sourceforge.net/DTD/sodipodi-0.dtd"
   xmlns="http://www.w3.org/2000/svg"
   xmlns:svg="http://www.w3.org/2000/svg"><sodipodi:namedview
     id="namedview1"
     pagecolor="#ffffff"
     bordercolor="#000000"
     borderopacity="0.25"
     inkscape:showpageshadow="2"
     inkscape:pageopacity="0.0"
     inkscape:pagecheckerboard="0"
     inkscape:deskcolor="#d1d1d1"
     inkscape:document-units="mm"><inkscape:page
       x="0"
       y="0"
       width="578.00336"
       height="202.83124"
       id="page2"
       margin="0"
       bleed="0" /></sodipodi:namedview><defs
     id="defs1" /><g
     inkscape:label="Layer 1"
     inkscape:groupmode="layer"
     id="layer1"
     transform="translate(130.6803,-87.577084)"><g
       id="g1"
       transform="translate(29.44238,9.8141265)"><path
         style="fill:#d7bc8a"
         d="m 367.81137,259.22638 c -0.32131,-0.32131 -7.94175,-3.778 -11.60063,-5.26214 -1.77413,-0.71963 -3.83858,-1.38102 -4.58766,-1.46973 -1.29861,-0.1538 -1.35778,-0.13383 -1.27221,0.42957 0.0668,0.43967 0.42826,0.71049 1.41266,1.05834 1.56363,0.55254 5.23882,2.39458 8.20209,4.11098 l 2.11666,1.22602 -15.875,-0.14486 c -8.73125,-0.0797 -29.26953,-0.20809 -45.64062,-0.28537 -16.37109,-0.0773 -36.79031,-0.19564 -45.37604,-0.26301 -8.58573,-0.0674 -27.33807,-0.18495 -41.67188,-0.26129 -14.3338,-0.0763 -33.44333,-0.19453 -42.46562,-0.26264 -17.47704,-0.13193 -46.33206,-0.3189 -81.888538,-0.5306 -12.005469,-0.0715 -29.388593,-0.18971 -38.629166,-0.26273 -9.240572,-0.073 -26.266509,-0.19233 -37.835415,-0.26513 -20.1003236,-0.12648 -35.531159,-0.24293 -71.868759,-0.54239 l -16.438552,-0.13547 -1.949989,-1.00774 c -1.072494,-0.55426 -2.123375,-1.06502 -2.335292,-1.13501 -0.30981,-0.10233 -0.21909,-0.46152 0.463021,-1.83322 0.827386,-1.66385 1.039188,-2.74309 0.645834,-3.29086 -0.106912,-0.14888 -0.541724,-0.4921 -0.966249,-0.76271 -0.661194,-0.42146 -1.363134,-0.49646 -4.895654,-0.52305 -4.079216,-0.0307 -4.124193,-0.0375 -4.161084,-0.62636 -0.02637,-0.42097 0.109482,-0.59531 0.463883,-0.59531 0.275647,0 0.501177,0.11906 0.501177,0.26458 0,0.52296 0.546886,0.2506 0.855098,-0.42586 0.271264,-0.59536 0.243155,-0.7437 -0.20411,-1.07716 -1.023867,-0.76337 -6.209692,0.23689 -12.424946,2.39655 -1.891769,0.65735 -3.212189,1.0256 -2.934269,0.81834 0.27792,-0.20727 0.81498,-0.64746 1.19347,-0.97821 0.37848,-0.33075 1.490544,-1.30052 2.471246,-2.15503 0.980702,-0.85452 1.783095,-1.71772 1.783095,-1.91823 0,-0.9648 -1.101089,-0.31417 -8.731251,5.15932 -2.25557,1.61803 -4.57514,3.17893 -5.15458,3.46866 l -1.05355,0.52678 -0.22026,-0.59248 c -0.20387,-0.54836 -0.23803,-7.18025 -0.0726,-14.08622 0.12181,-5.08372 0.42162,-14.97204 0.54951,-18.12396 0.14319,-3.52898 0.33,-9.71754 0.53112,-17.59479 0.078,-3.05594 0.19351,-6.86594 0.25664,-8.46667 0.0631,-1.60073 0.18113,-5.52979 0.26223,-8.73125 0.0811,-3.20146 0.20545,-7.78536 0.27635,-10.18646 0.0709,-2.40109 0.19087,-7.22312 0.2666,-10.71562 0.0757,-3.4925 0.18922,-8.67172 0.2522,-11.50938 0.063,-2.83765 0.18219,-8.85031 0.26491,-13.36145 0.0827,-4.51115 0.20382,-10.88099 0.26913,-14.15521 0.0653,-3.27422 0.19572,-10.35844 0.28981,-15.74271 0.0941,-5.38427 0.21461,-9.864808 0.26783,-9.956749 0.0771,-0.133221 75.109119,-0.118853 76.568775,0.01466 0.651181,0.05956 0.01032,0.348386 -7.443451,3.354629 -8.390919,3.3842 -9.489881,3.9145 -9.489881,4.57923 0,0.27303 0.188331,0.56868 0.418514,0.65701 0.720071,0.27631 1.433569,0.17596 1.433569,-0.20164 0,-0.2276 1.352228,-0.8332 3.638021,-1.62931 2.000911,-0.6969 7.020536,-2.50155 11.154722,-4.01035 l 7.516702,-2.743276 3.331215,-0.01261 c 1.832168,-0.0069 6.069651,0.0018 9.41663,0.01932 l 6.085417,0.03193 -2.38125,1.016436 c -2.365337,1.00965 -23.774939,10.0106 -24.407812,10.26145 -0.385523,0.15281 -0.444379,1.03134 -0.08401,1.25406 0.135693,0.0839 4.575638,-1.38773 9.866543,-3.2702 5.290906,-1.88248 13.5440244,-4.74791 18.3402639,-6.36762 l 8.7204354,-2.944937 37.3062487,0.148785 c 20.518437,0.08183 46.712186,0.204377 58.208332,0.272323 11.496146,0.06795 37.154106,0.188259 57.017706,0.267359 19.86359,0.0791 43.43796,0.19759 52.38749,0.26332 8.94954,0.0657 35.50047,0.19555 59.00209,0.28852 31.25438,0.12363 42.83679,0.24975 43.12708,0.46959 0.34509,0.26135 0.3495,0.24016 0.0337,-0.16245 -0.19972,-0.25466 -0.5937,-0.46302 -0.87551,-0.46302 -0.29982,0 -0.43905,-0.11866 -0.33562,-0.28602 0.27963,-0.452453 1.41875,-0.033 2.64966,0.97563 1.92933,1.58093 6.11431,7.38161 9.42862,13.06872 2.21959,3.80867 2.58692,4.60985 2.31241,5.04368 -0.93613,1.47944 1.17433,5.80424 2.83242,5.80424 1.93862,0 5.60862,-8.73301 8.29477,-19.73795 l 0.26479,-1.08483 2.44787,-0.176 c 4.20264,-0.30217 15.35281,-0.52208 16.64289,-0.32824 0.67673,0.10168 1.49862,0.41748 1.82642,0.70178 0.67453,0.58502 0.98693,0.62617 1.95612,0.25769 0.47301,-0.17984 0.93415,-0.78751 1.50586,-1.98438 l 0.82406,-1.72516 h 1.2503 1.25031 l 0.31278,3.24115 c 0.17203,1.78263 0.42628,4.19365 0.565,5.35781 0.38165,3.20274 0.97645,8.79759 1.71584,16.13959 0.36638,3.63802 0.72865,6.89103 0.80505,7.22892 0.0764,0.33789 0.42657,3.43352 0.77814,6.87917 0.35157,3.44565 0.76779,7.45545 0.92494,8.91066 0.15715,1.4552 0.39809,3.83645 0.53542,5.29166 0.13733,1.45521 0.37666,3.65787 0.53184,4.89479 0.30841,2.45836 1.50267,13.34379 1.85777,16.93334 0.38057,3.84692 1.01923,9.85982 1.30915,12.32535 0.15256,1.29746 0.44847,4.08543 0.65758,6.19548 0.3906,3.94148 0.89939,8.64488 1.58847,14.68438 0.37769,3.31029 0.76014,6.97219 1.07771,10.31875 0.0829,0.87312 0.2611,2.54 0.39611,3.70416 0.13501,1.16417 0.48397,4.37886 0.77547,7.14375 0.2915,2.7649 0.70901,6.69396 0.9278,8.73125 0.2188,2.03729 0.52027,4.92851 0.66995,6.42492 0.14968,1.49641 0.3239,3.10375 0.38716,3.57187 0.0632,0.46812 0.23851,2.16082 0.38945,3.76155 0.15095,1.60073 0.37898,3.74385 0.50675,4.7625 0.12776,1.01864 0.20489,1.88465 0.17139,1.92445 -0.18804,0.22345 -0.93139,-0.32883 -0.93678,-0.69599 -0.004,-0.23909 -0.69949,-0.90641 -1.5466,-1.48292 l -1.54021,-1.04821 -0.43474,-2.78825 c -0.23911,-1.53354 -0.62307,-4.39559 -0.85325,-6.36013 -0.23017,-1.96453 -0.58133,-4.82203 -0.78034,-6.35 -0.19902,-1.52796 -0.43885,-3.47484 -0.53298,-4.32638 -0.0941,-0.85155 -0.21167,-1.80405 -0.26123,-2.11667 -0.0495,-0.31262 -0.16231,-1.28278 -0.25057,-2.1559 -0.0883,-0.87313 -0.32934,-2.95672 -0.53574,-4.63021 -0.20639,-1.67349 -0.50666,-4.23334 -0.66725,-5.68854 -0.1606,-1.45521 -0.51819,-4.49131 -0.79466,-6.74688 -0.27647,-2.25557 -0.5693,-4.81542 -0.65074,-5.68854 -0.0814,-0.87313 -0.20347,-1.94469 -0.27118,-2.38125 -0.11048,-0.71236 -0.70621,-5.96654 -3.31488,-29.23646 -0.43231,-3.8563 -1.26424,-11.23818 -1.84873,-16.40417 -0.58448,-5.16598 -1.54174,-13.67895 -2.12723,-18.9177 -0.58549,-5.23875 -1.29843,-11.45088 -1.58432,-13.80474 -0.28589,-2.35385 -0.5198,-4.34815 -0.5198,-4.43177 0,-0.0836 -0.24669,-0.15204 -0.5482,-0.15204 -0.5041,0 -0.53607,0.11177 -0.39733,1.38907 0.083,0.76398 0.27095,2.9964 0.41772,4.96093 0.24334,3.25709 1.6335,20.36075 3.30103,40.61355 0.35944,4.36562 1.01726,12.40234 1.46181,17.85937 0.92078,11.30274 0.96041,11.77902 1.31016,15.74271 0.14125,1.60073 0.32218,3.86292 0.40207,5.02708 0.0799,1.16417 0.20563,2.83104 0.27942,3.70417 0.0738,0.87312 0.18741,2.24234 0.25249,3.04271 0.0651,0.80036 0.18391,2.22911 0.26406,3.175 0.0801,0.94588 0.19666,2.4937 0.25893,3.43958 0.0623,0.94589 0.3096,4.10104 0.54962,7.01146 0.24001,2.91042 0.43636,5.47026 0.43633,5.68854 -3e-5,0.21828 0.10264,1.46844 0.22817,2.77813 0.12552,1.30968 0.29256,3.57187 0.37119,5.02708 0.0786,1.45521 0.20265,3.36021 0.2756,4.23333 0.296,3.54273 0.37481,4.89479 0.28529,4.89479 -0.0518,0 -1.68576,-0.87208 -3.63102,-1.93797 -4.13944,-2.26816 -5.78029,-2.94468 -6.54976,-2.70046 -1.15305,0.36597 -0.34548,1.68831 1.64615,2.6955 0.75386,0.38123 2.71625,1.56978 4.36088,2.64123 1.64463,1.07145 3.34127,2.12962 3.77031,2.35148 0.7293,0.37713 0.78008,0.5045 0.78008,1.95631 v 1.55292 l -1.06402,0.10147 c -0.58522,0.0558 -1.15973,0.006 -1.27668,-0.11118 z m -44.73424,-151.6953 c 0.0127,-0.30823 0.0754,-0.37092 0.15985,-0.15985 0.0764,0.19099 0.067,0.41919 -0.0209,0.50711 -0.0879,0.0879 -0.15045,-0.0683 -0.13896,-0.34726 z m -441.34588,-7.798777 c 0,-0.29963 0.11387,-0.47441 0.25303,-0.388401 0.13917,0.08601 0.18596,0.33116 0.10399,0.544781 -0.20988,0.546927 -0.35702,0.482477 -0.35702,-0.15638 z"
         id="path7" /><path
         style="fill:#a1a1a1"
         d="m 147.3233,268.37134 c 0.191,-0.0764 0.4192,-0.067 0.50712,0.0209 0.0879,0.0879 -0.0684,0.15046 -0.34726,0.13897 -0.30823,-0.0127 -0.37092,-0.0754 -0.15986,-0.15986 z m 2.11667,0 c 0.191,-0.0764 0.4192,-0.067 0.50712,0.0209 0.0879,0.0879 -0.0684,0.15046 -0.34727,0.13897 -0.30822,-0.0127 -0.37092,-0.0754 -0.15985,-0.15986 z M 43.590104,267.58311 c 0.181901,-0.0734 0.479557,-0.0734 0.661458,0 0.181901,0.0734 0.03307,0.13345 -0.330729,0.13345 -0.363802,0 -0.51263,-0.06 -0.330729,-0.13345 z m -124.337626,-0.79927 c 0.190996,-0.0764 0.419199,-0.067 0.507118,0.0209 0.08792,0.0879 -0.06835,0.15046 -0.347266,0.13897 -0.308225,-0.0127 -0.370919,-0.0754 -0.159852,-0.15986 z M -128.56661,145.10191 c 0.0127,-0.30822 0.0754,-0.37092 0.15986,-0.15985 0.0764,0.19099 0.067,0.4192 -0.0209,0.50712 -0.0879,0.0879 -0.15046,-0.0684 -0.13897,-0.34727 z m -1.05833,-25.66458 c 0.0127,-0.30823 0.0754,-0.37092 0.15985,-0.15985 0.0764,0.19099 0.067,0.41919 -0.0209,0.50711 -0.0879,0.0879 -0.15045,-0.0683 -0.13896,-0.34726 z M 27.467058,90.835928 c 0.190996,-0.07643 0.419199,-0.06703 0.507118,0.02089 0.08792,0.08792 -0.06835,0.150453 -0.347266,0.138964 -0.308224,-0.0127 -0.370919,-0.07539 -0.159852,-0.159852 z m -85.460415,-0.264584 c 0.190997,-0.07643 0.4192,-0.06703 0.507119,0.02089 0.08792,0.08792 -0.06835,0.150453 -0.347266,0.138965 -0.308225,-0.0127 -0.370919,-0.07539 -0.159853,-0.159853 z"
         id="path6" /><path
         style="fill:#ac966d"
         d="m -87.097522,247.73384 c 0.190996,-0.0764 0.419199,-0.067 0.507118,0.0209 0.08792,0.0879 -0.06835,0.15046 -0.347266,0.13897 -0.308224,-0.0127 -0.370919,-0.0754 -0.159852,-0.15986 z M 261.60676,100.63102 c 0.18191,-0.0734 0.47956,-0.0734 0.66146,0 0.1819,0.0734 0.0331,0.13346 -0.33073,0.13346 -0.3638,0 -0.51263,-0.0601 -0.33073,-0.13346 z M -99.020308,99.308106 c 0.181901,-0.0734 0.479557,-0.0734 0.661458,0 0.181901,0.0734 0.03307,0.133453 -0.330729,0.133453 -0.363802,0 -0.51263,-0.06005 -0.330729,-0.133453 z"
         id="path5" /><path
         style="fill:#887655"
         d="m 351.84621,269.95884 c 0.191,-0.0764 0.4192,-0.067 0.50712,0.0209 0.0879,0.0879 -0.0684,0.15046 -0.34726,0.13897 -0.30823,-0.0127 -0.37092,-0.0754 -0.15986,-0.15986 z M 80.896353,267.84769 c 0.181901,-0.0734 0.479557,-0.0734 0.661458,0 0.181901,0.0734 0.03307,0.13345 -0.330729,0.13345 -0.363802,0 -0.51263,-0.06 -0.330729,-0.13345 z M -85.389232,247.73123 c 0.257431,-0.0671 0.614619,-0.0627 0.79375,0.01 0.179132,0.0725 -0.03149,0.12737 -0.468056,0.12197 -0.436562,-0.005 -0.583125,-0.0647 -0.325694,-0.13177 z M 368.58546,236.38316 c 0.0127,-0.30822 0.0754,-0.37092 0.15985,-0.15985 0.0764,0.19099 0.067,0.4192 -0.0209,0.50712 -0.0879,0.0879 -0.15046,-0.0684 -0.13897,-0.34727 z M 155.78997,100.09634 c 0.191,-0.0764 0.4192,-0.067 0.50712,0.0209 0.0879,0.0879 -0.0684,0.15046 -0.34727,0.13897 -0.30822,-0.0127 -0.37092,-0.0754 -0.15985,-0.15986 z m -263.78958,-0.793746 c 0.191,-0.07643 0.4192,-0.06703 0.50712,0.02089 0.0879,0.08792 -0.0683,0.150453 -0.34726,0.138965 -0.30823,-0.0127 -0.37092,-0.07539 -0.15986,-0.159853 z"
         id="path4" /><path
         style="fill:#7b694a"
         d="m 360.89166,258.58895 c -0.65485,-0.37421 -1.96453,-1.13065 -2.91042,-1.68099 -2.60092,-1.51326 -6.44147,-3.2508 -7.27604,-3.29183 -0.14552,-0.007 -0.30263,-0.28089 -0.34913,-0.60832 -0.18469,-1.30041 1.95753,-0.71037 9.90896,2.72928 2.78405,1.20433 5.64155,2.49125 6.35,2.85982 l 1.28809,0.67012 -2.91042,0.001 c -2.64213,10e-4 -3.02017,-0.0616 -4.10104,-0.67923 z m 9.26041,-0.84742 v -1.55014 l -3.77031,-2.3872 c -2.07367,-1.31296 -4.45763,-2.77142 -5.29769,-3.24102 -2.03204,-1.13593 -2.64645,-2.22284 -1.42923,-2.52834 0.75592,-0.18973 2.65317,0.62701 6.80781,2.93064 1.69781,0.94139 3.17695,1.71161 3.28697,1.71161 0.11002,0 0.12775,-0.8632 0.0394,-1.91822 -0.0883,-1.05503 -0.2231,-2.9898 -0.29946,-4.29948 -0.0763,-1.30969 -0.19882,-3.0361 -0.27216,-3.83646 -0.0733,-0.80037 -0.24701,-3.00302 -0.38596,-4.89479 -0.13895,-1.89177 -0.31427,-4.09443 -0.3896,-4.8948 -0.17355,-1.84392 -0.60501,-7.38404 -0.8036,-10.31875 -0.0837,-1.23692 -0.27042,-3.6777 -0.41492,-5.42395 -0.1445,-1.74625 -0.32032,-3.94891 -0.39069,-4.8948 -0.13725,-1.8446 -0.40127,-5.00427 -1.05017,-12.5677 -0.4916,-5.73014 -2.80778,-34.07015 -4.61669,-56.48855 -0.72213,-8.94953 -1.36828,-16.89695 -1.43588,-17.66093 -0.10671,-1.20595 -0.0602,-1.38907 0.35252,-1.38907 0.6262,0 0.27101,-2.90999 6.76561,55.43021 0.0648,0.58209 0.35646,3.14193 0.64815,5.68854 0.29168,2.54662 0.6515,5.70178 0.7996,7.01146 0.1481,1.30969 0.44505,3.92907 0.65988,5.82084 0.21484,1.89177 0.45967,4.15395 0.54407,5.02708 0.0844,0.87312 0.19888,1.76609 0.25438,1.98437 0.0555,0.21829 0.17327,1.17079 0.26168,2.11667 0.0884,0.94589 0.32946,3.08901 0.53565,4.7625 0.20619,1.67349 0.61775,5.18583 0.91457,7.80521 0.29681,2.61937 0.66611,5.77453 0.82066,7.01146 0.31781,2.54356 0.43513,3.5326 0.6434,5.42396 0.21896,1.98843 0.65775,5.58927 0.935,7.67291 0.13554,1.01865 0.30897,2.4474 0.3854,3.175 0.32918,3.13372 1.43298,11.37599 1.67245,12.48849 0.13557,0.62978 0.55475,1.10663 1.6355,1.86051 0.79926,0.55753 1.4926,1.21826 1.54075,1.46828 0.08,0.41541 -0.30188,0.4546 -4.42977,0.4546 h -4.51732 z m -470.80535,-1.56605 -3.94807,-0.0735 3.81578,-2.1329 c 4.031398,-2.25342 9.201204,-4.91699 10.941163,-5.63706 0.802084,-0.33193 1.973383,-0.43278 5.120703,-0.44089 3.951449,-0.0102 4.1134,0.0111 5.111598,0.67167 1.315793,0.87075 1.340745,1.59794 0.132995,3.87595 l -0.897864,1.69352 1.493177,0.64892 c 0.821247,0.35691 1.850364,0.86831 2.286926,1.13645 0.778308,0.47805 0.590432,0.48602 -9.657291,0.40942 -5.748073,-0.043 -12.227673,-0.11119 -14.399117,-0.1516 z m -7.03213,-3.22489 c 4.30216,-3.87307 5.22829,-4.37846 11.451191,-6.24891 6.890075,-2.07098 10.655986,-2.05524 9.059042,0.0379 -0.316374,0.41466 -0.43747,0.44434 -0.628719,0.15407 -0.244498,-0.37109 -1.617843,-0.27215 -3.345058,0.24099 -2.846923,0.8458 -4.533316,1.40709 -4.7625,1.58512 -0.302331,0.23485 -8.329046,3.56303 -11.112496,4.60766 l -1.85209,0.69508 z m -4.36563,-0.27351 c 0.0899,-0.14552 0.28259,-0.26458 0.42811,-0.26458 0.14552,0 0.191,0.11906 0.10106,0.26458 -0.0899,0.14553 -0.28258,0.26459 -0.42811,0.26459 -0.14552,0 -0.19099,-0.11906 -0.10106,-0.26459 z m -10.77912,-60.48199 c -0.0598,-22.05887 -0.0181,-25.40713 0.3191,-25.61887 0.83898,-0.52683 1.62865,-1.51063 1.54814,-1.92871 -0.0466,-0.24207 -0.47153,-0.54034 -0.94425,-0.66284 l -0.85949,-0.22272 -0.0169,-3.89503 c -0.009,-2.14228 -0.0541,-4.27032 -0.0995,-4.72899 l -0.0826,-0.83395 1.81593,0.50322 c 0.99876,0.27677 1.88427,0.50322 1.96779,0.50322 0.0835,0 0.0871,0.50601 0.008,1.12448 -0.0791,0.61846 -0.20687,2.43416 -0.28396,4.03489 -0.16745,3.47712 -0.87422,16.59001 -1.05529,19.57917 -0.48392,7.98845 -0.69555,11.81748 -0.93592,16.93333 -0.15043,3.20146 -0.32344,6.47568 -0.38447,7.27604 -0.12678,1.66265 -0.33163,5.31417 -0.55657,9.92133 -0.0853,1.74595 -0.20365,3.22312 -0.26313,3.28259 -0.0595,0.0595 -0.1391,-11.31074 -0.17694,-25.26716 z m -0.088,-43.85739 -0.0192,-4.27207 1.08163,0.0879 c 0.86465,0.0702 1.22677,-0.0467 1.80515,-0.58268 0.39793,-0.36879 0.72351,-0.85776 0.72351,-1.08659 0,-0.54043 -1.05859,-0.93213 -2.51913,-0.93213 h -1.16178 l -0.008,-6.45508 -0.008,-6.45509 1.86786,0.78479 c 1.02733,0.43164 2.21633,0.7947 2.64222,0.80681 0.7436,0.0212 0.77358,0.0703 0.75475,1.23853 -0.0108,0.66908 -0.10008,1.69275 -0.19844,2.27484 l -0.17882,1.05833 h -1.90531 c -2.22587,0 -2.74202,0.30218 -2.21099,1.29442 0.20781,0.38829 0.88275,0.85129 1.70122,1.16703 l 1.35674,0.52337 0.60004,-0.55078 0.60004,-0.55079 -0.13267,1.70421 c -0.22353,2.87113 -0.52124,7.87072 -0.77065,12.94176 -0.0337,0.68439 0.009,0.66857 -3.07488,1.13522 l -0.92604,0.14012 z m -0.11309,-24.08509 v -2.21822 l 1.91823,0.36583 c 2.52731,0.48198 3.2864,0.46185 3.64198,-0.0966 0.22887,-0.35943 0.26193,-0.13743 0.14774,0.99218 -0.0809,0.80037 -0.14813,1.84217 -0.1494,2.31511 l -0.002,0.85989 h -2.77812 -2.77813 z m 448.56116,0.0341 c -0.41588,-0.47366 -0.98628,-1.53826 -1.26756,-2.36576 -0.43901,-1.29156 -0.46276,-1.60976 -0.16773,-2.24766 l 0.34369,-0.74309 1.22063,2.4474 c 0.67135,1.34606 1.30982,2.44739 1.41884,2.44739 0.2731,0 0.83207,-1.15553 1.47185,-3.04271 1.06386,-3.13804 1.86775,-9.84771 1.94956,-16.27187 l 0.0455,-3.57188 5.71463,0.0642 c 3.14305,0.0353 9.90499,0.0651 15.02654,0.0661 l 9.3119,0.002 -0.52543,1.25678 c -0.73082,1.74807 -1.2996,2.41118 -2.22563,2.59476 -0.58376,0.11573 -0.96322,0.0128 -1.42308,-0.38605 -0.34489,-0.29912 -1.05654,-0.62442 -1.58144,-0.72289 -1.01803,-0.19099 -14.53831,0.11255 -17.62004,0.39558 l -1.8414,0.16912 -0.21221,1.05833 c -1.3149,6.55752 -5.25793,16.94679 -7.20493,18.98385 -0.90921,0.95128 -1.51011,0.91829 -2.43368,-0.13359 z m -445.71688,-4.37327 -2.84428,-0.0751 v -2.76917 c 0,-1.52305 0.0893,-2.76926 0.19844,-2.76937 0.10914,-1e-4 1.47552,0.50591 3.03639,1.12448 l 2.83796,1.12467 0.006,1.63803 c 0.003,0.90092 -0.083,1.67482 -0.19212,1.71979 -0.10914,0.045 -1.47836,0.048 -3.0427,0.007 z m 86.940774,-8.40298 c -0.08617,-0.22456 -0.1122,-0.44268 -0.05784,-0.48471 0.164728,-0.12738 4.81532,-2.10561 10.549873,-4.48761 2.983177,-1.23914 7.981484,-3.3334 11.107349,-4.6539 l 5.6833901,-2.400915 4.7676509,0.0095 4.767651,0.0095 -8.0697914,2.739645 c -7.3910506,2.50921 -11.9203746,4.08174 -23.6299946,8.20405 -2.300717,0.80995 -4.358281,1.47264 -4.572367,1.47264 -0.214085,0 -0.459749,-0.18373 -0.545919,-0.40828 z m -89.785054,-1.82506 c 0,-1.08282 0.10313,-2.0325 0.22917,-2.1104 0.23082,-0.14265 4.23203,1.08671 4.59715,1.41246 0.10786,0.0962 0.30085,0.7356 0.42886,1.42083 l 0.23276,1.24587 h -2.74397 -2.74397 z m 74.414065,-1.65755 c -0.885723,-0.1706 -0.753309,-1.0409 0.236226,-1.55261 0.818367,-0.42319 14.042813,-5.84317 16.366378,-6.70768 0.855086,-0.318145 1.886193,-0.427195 3.658777,-0.386952 1.357483,0.03082 2.520649,0.108532 2.584812,0.172696 0.123389,0.123388 -1.332852,0.667126 -11.932131,4.455236 -9.776264,3.49398 -9.657291,3.44666 -9.657291,3.84142 0,0.36651 -0.159941,0.38915 -1.256771,0.17789 z m -73.223435,-3.22426 c -0.95735,-0.14554 -1.06616,-0.24179 -1.14035,-1.0088 l -0.082,-0.8479 1.53722,0.50386 c 0.84547,0.27713 2.06369,0.63902 2.70716,0.8042 2.2493,0.57742 -0.0668,0.9979 -3.02202,0.54864 z m 1.25677,-4.73565 c -1.20055,-0.0423 -2.18281,-0.191097 -2.18281,-0.330732 0,-0.311388 -0.014,-0.309016 2.19068,-0.370994 1.22924,-0.03456 1.88648,0.06122 2.08823,0.304319 0.16193,0.195111 0.24768,0.381637 0.19056,0.414497 -0.0571,0.0329 -1.08611,0.0252 -2.28666,-0.0171 z"
         id="path3" /><path
         style="fill:#564a36"
         d="m -121.42286,194.57899 c 0.0127,-0.30822 0.0754,-0.37091 0.15986,-0.15985 0.0764,0.191 0.067,0.4192 -0.0209,0.50712 -0.0879,0.0879 -0.15046,-0.0684 -0.13897,-0.34727 z m 0.29528,-5.00503 c 0.005,-0.43656 0.0647,-0.58312 0.13177,-0.32569 0.0671,0.25743 0.0627,0.61461 -0.01,0.79375 -0.0725,0.17913 -0.12736,-0.0315 -0.12197,-0.46806 z m 0.49847,-9.54705 c 0.0127,-0.30822 0.0754,-0.37092 0.15986,-0.15985 0.0764,0.19099 0.067,0.4192 -0.0209,0.50712 -0.0879,0.0879 -0.15046,-0.0684 -0.13897,-0.34727 z m -2.38125,-20.6375 c 0.0127,-0.30822 0.0754,-0.37092 0.15986,-0.15985 0.0764,0.19099 0.067,0.4192 -0.0209,0.50712 -0.0879,0.0879 -0.15046,-0.0684 -0.13897,-0.34727 z m -5.00619,-1.16858 c 0,-0.3638 0.06,-0.51263 0.13345,-0.33072 0.0734,0.1819 0.0734,0.47955 0,0.66145 -0.0734,0.18191 -0.13345,0.0331 -0.13345,-0.33073 z m 5.00619,-3.06475 c 0.0127,-0.30823 0.0754,-0.37092 0.15986,-0.15985 0.0764,0.19099 0.067,0.41919 -0.0209,0.50711 -0.0879,0.0879 -0.15046,-0.0684 -0.13897,-0.34726 z m -5.29166,-2.64584 c 0.0127,-0.30822 0.0754,-0.37091 0.15985,-0.15985 0.0764,0.191 0.067,0.4192 -0.0209,0.50712 -0.0879,0.0879 -0.15045,-0.0683 -0.13896,-0.34727 z m 5.29166,-5.29166 c 0.0127,-0.30823 0.0754,-0.37092 0.15986,-0.15985 0.0764,0.19099 0.067,0.41919 -0.0209,0.50711 -0.0879,0.0879 -0.15046,-0.0684 -0.13897,-0.34726 z m 458.45241,-46.32849 c 0.19099,-0.0764 0.4192,-0.067 0.50712,0.0209 0.0879,0.0879 -0.0683,0.15046 -0.34727,0.13897 -0.30822,-0.0127 -0.37092,-0.0754 -0.15985,-0.15986 z m -67.48529,-0.25907 c 0.1819,-0.0734 0.47956,-0.0734 0.66146,0 0.1819,0.0734 0.0331,0.13346 -0.33073,0.13346 -0.3638,0 -0.51263,-0.0601 -0.33073,-0.13346 z m -55.29791,-0.26458 c 0.1819,-0.0734 0.47956,-0.0734 0.66146,0 0.1819,0.0734 0.0331,0.13345 -0.33073,0.13345 -0.3638,0 -0.51263,-0.06 -0.33073,-0.13345 z m -55.5625,-0.26458 c 0.1819,-0.0734 0.47956,-0.0734 0.66146,0 0.1819,0.0734 0.0331,0.13345 -0.33073,0.13345 -0.3638,0 -0.51263,-0.0601 -0.33073,-0.13345 z m -280.1276,-0.442136 c 0,-0.245128 0.20564,-0.439173 0.46303,-0.436921 0.26423,0.0023 0.34942,0.08883 0.19843,0.201516 -0.14552,0.108605 -0.35388,0.305219 -0.46302,0.43692 -0.10914,0.131701 -0.19844,0.04102 -0.19844,-0.201515 z m 94.26285,-0.359743 c 0.257431,-0.06708 0.614618,-0.06267 0.79375,0.0098 0.179131,0.07247 -0.03149,0.127362 -0.468056,0.12197 -0.436563,-0.0054 -0.583125,-0.06469 -0.325694,-0.131774 z"
         id="path2" /><path
         style="fill:#010101"
         d="m 345.736,269.98832 c -0.0318,-0.0256 -11.54742,-0.12493 -25.59018,-0.22072 -14.04276,-0.0958 -29.04463,-0.22622 -33.33749,-0.28984 -4.29287,-0.0636 -17.80646,-0.18082 -30.03021,-0.26046 -12.22375,-0.0796 -27.40422,-0.20129 -33.73438,-0.27034 -6.33015,-0.0691 -20.85578,-0.18599 -32.27916,-0.25987 -11.42339,-0.0739 -27.02057,-0.1933 -34.66042,-0.26537 -7.63984,-0.0721 -22.93937,-0.19199 -33.99895,-0.26648 -29.739803,-0.20032 -53.473735,-0.38054 -69.850002,-0.53041 -8.003646,-0.0732 -25.446301,-0.19714 -38.761457,-0.27531 -13.31515613,-0.0782 -28.555156,-0.18965 -33.866666,-0.24771 -5.31151,-0.0581 -30.076509,-0.18915 -55.033332,-0.29129 l -45.376043,-0.18572 -0.61857,-1.08688 c -1.89284,-3.32589 -5.06997,-9.40856 -5.06997,-9.70658 0,-0.13411 0.18115,-0.24384 0.40255,-0.24384 0.54075,0 0.83362,-0.80426 1.15614,-3.175 0.64525,-4.74289 0.60937,-9.60462 -0.2021,-27.38437 -0.82553,-18.08758 -0.98589,-21.79003 -1.22621,-28.31042 -0.0751,-2.03729 -0.19269,-4.77573 -0.26135,-6.08542 -0.0687,-1.30968 -0.1879,-4.10765 -0.26498,-6.21771 -0.16666,-4.56229 -0.60504,-15.56749 -0.79045,-19.84375 -0.0726,-1.67348 -0.19736,-4.76911 -0.27733,-6.87916 -0.08,-2.11005 -0.19381,-4.90802 -0.25299,-6.21771 -0.0592,-1.30969 -0.17681,-4.40531 -0.26141,-6.87917 -0.0846,-2.47385 -0.2088,-5.45041 -0.27599,-6.61458 -0.0672,-1.16417 -0.24148,-5.50995 -0.3873,-9.65729 -0.14582,-4.14735 -0.32546,-8.31453 -0.39921,-9.26042 -0.0737,-0.94588 -0.25675,-4.63682 -0.40669,-8.20208 -0.14993,-3.56526 -0.32974,-7.49432 -0.39956,-8.73125 -0.0698,-1.23693 -0.20097,-3.975366 -0.29142,-6.085418 -0.2046,-4.773112 -0.16832,-4.840152 2.94768,-5.447619 2.21705,-0.432217 14.88571,-0.511065 38.629162,-0.240423 21.37069,0.243595 139.771711,0.729661 261.011448,1.071517 29.32245,0.08268 65.10073,0.192015 79.50729,0.242967 14.40656,0.05095 33.95191,0.103347 43.4341,0.116433 l 17.24034,0.02379 1.12275,1.785938 c 0.61751,0.982265 1.7095,2.431285 2.42664,3.220044 1.21297,1.334085 3.84288,5.172251 6.47721,9.453011 l 1.11563,1.81288 0.009,-2.91041 c 0.01,-3.32321 -0.3229,-7.368747 -0.96845,-11.773963 -0.46931,-3.202528 -0.4844,-3.579496 -0.19863,-4.960937 0.1484,-0.717387 0.29791,-0.859896 0.90212,-0.859896 1.07817,0 2.3499,0.513735 2.51086,1.014302 0.0943,0.293406 0.78818,0.595641 2.07402,0.903438 1.06274,0.254392 3.1767,0.892235 4.69768,1.417428 l 2.76543,0.954898 16.40417,0.122383 c 15.77809,0.117713 16.44712,0.142795 17.52965,0.657182 0.68162,0.323885 1.17725,0.760075 1.25674,1.10602 0.21302,0.927051 1.09587,8.280715 1.72035,14.329555 0.16526,1.60073 0.52632,4.75589 0.80235,7.01146 0.27603,2.25557 0.56089,4.87495 0.63303,5.82083 0.19941,2.61486 0.63552,6.3274 0.91688,7.80521 0.13852,0.72761 0.32704,2.45401 0.41893,3.83646 0.0919,1.38245 0.2742,3.10886 0.40515,3.83646 0.13094,0.7276 0.31014,2.15635 0.39821,3.175 0.0881,1.01865 0.44934,4.23333 0.80281,7.14375 0.8767,7.21858 1.42119,12.06988 1.603,14.28235 0.0838,1.02001 0.20141,1.93386 0.26131,2.03078 0.0599,0.0969 0.29266,1.94298 0.51726,4.10237 0.22459,2.15939 0.53625,5.05726 0.69257,6.43971 0.15632,1.38245 0.32364,2.87073 0.37182,3.30729 0.0482,0.43656 0.2124,1.74625 0.36494,2.91042 0.15253,1.16416 0.39171,3.49398 0.53151,5.17736 0.1398,1.68339 0.31365,3.2312 0.38632,3.43959 0.14728,0.42227 1.17755,9.54195 1.35799,12.02055 0.0636,0.87312 0.18352,1.87797 0.26657,2.233 0.13313,0.56908 0.83482,6.76683 1.05024,9.27637 0.0437,0.50932 0.31954,2.89057 0.61294,5.29167 0.29339,2.40109 0.59874,4.96094 0.67855,5.68854 0.0798,0.7276 0.50018,4.35901 0.93415,8.06979 1.32942,11.36759 1.85861,15.95509 1.98388,17.19792 0.27629,2.74114 0.97218,8.5155 1.31989,10.95224 0.40422,2.83282 0.20627,5.24646 -0.52137,6.35698 -0.21348,0.32581 -0.32041,0.66014 -0.23761,0.74294 0.26144,0.26144 -1.44393,3.34566 -2.02057,3.65427 -0.39524,0.21152 -6.24281,0.27445 -20.64698,0.22219 -11.05256,-0.0401 -20.12162,-0.0939 -20.15346,-0.11947 z m 34.35077,-11.35811 c -0.15646,-1.04513 -0.56778,-4.85257 -1.07187,-9.92188 -0.22429,-2.25557 -0.52711,-5.05354 -0.67294,-6.2177 -0.30916,-2.46804 -0.6323,-5.54119 -1.1824,-11.2448 -0.21755,-2.25557 -0.51204,-4.93447 -0.65443,-5.95312 -0.14239,-1.01865 -0.37744,-3.2213 -0.52233,-4.89479 -0.278,-3.211 -0.56681,-5.95339 -1.19813,-11.37709 -0.21173,-1.81901 -0.68518,-6.16479 -1.05211,-9.65729 -0.80033,-7.61763 -0.75383,-7.18263 -1.59821,-14.94896 -0.3718,-3.41973 -0.78645,-7.35686 -0.92143,-8.74917 -0.13498,-1.39231 -0.30933,-2.99965 -0.38745,-3.57188 -0.0781,-0.57222 -0.38054,-3.36212 -0.67206,-6.19978 -0.29152,-2.83765 -0.64937,-6.11187 -0.79524,-7.27604 -0.14586,-1.16417 -0.38082,-3.30729 -0.52212,-4.7625 -0.43664,-4.49664 -0.79141,-7.85231 -1.04894,-9.92188 -0.13582,-1.0914 -0.31936,-2.93687 -0.40788,-4.10104 -0.0885,-1.16416 -0.33219,-3.42635 -0.54151,-5.02708 -0.20932,-1.60073 -0.43556,-3.4462 -0.50276,-4.10104 -1.2562,-12.24269 -1.84004,-17.74276 -2.26093,-21.29896 -0.13779,-1.16417 -0.38862,-3.51565 -0.55741,-5.22552 l -0.30688,-3.10886 -5.59081,6.2e-4 c -3.07495,3.3e-4 -10.42873,-0.0343 -16.34173,-0.0769 l -10.75091,-0.0775 -0.0379,3.71493 c -0.0841,8.24321 -1.53582,16.97251 -3.11223,18.71442 -0.41541,0.45902 -0.54413,0.28044 -2.46715,-3.42294 -4.08855,-7.87378 -9.43659,-16.0028 -12.02105,-18.27199 -1.64467,-1.44404 -2.19222,-1.717165 -2.99279,-1.49288 l -0.72953,0.20439 0.79375,0.20836 c 0.90779,0.23831 -57.36235,0.0633 -141.68437,-0.42566 -11.71443,-0.0679 -39.15834,-0.188433 -60.98646,-0.267801 C 85.460415,99.798471 61.112135,99.680966 53.18125,99.616717 45.250364,99.552468 5.5132562,99.419351 -35.123435,99.3209 l -73.884895,-0.179 -0.0269,3.80874 c -0.0148,2.0948 -0.06,4.52311 -0.10028,5.39624 -0.0403,0.87312 -0.15384,7.06437 -0.25226,13.75833 -0.0984,6.69396 -0.22677,14.07583 -0.28524,16.40417 -0.0585,2.32833 -0.17449,7.9838 -0.25782,12.5677 -0.0833,4.58391 -0.20524,10.23938 -0.27093,12.56771 -0.19472,6.90268 -0.37612,13.89596 -0.52845,20.37292 -0.0787,3.34698 -0.20097,7.51417 -0.27167,9.26042 -0.0707,1.74625 -0.1875,5.43718 -0.25955,8.20208 -0.0721,2.7649 -0.18772,6.81302 -0.25703,8.99583 -0.0693,2.18282 -0.19031,6.17141 -0.2689,8.86354 -0.0786,2.69214 -0.19769,6.50214 -0.26468,8.46667 -0.19826,5.81437 -0.45315,16.58055 -0.46668,19.71146 -0.0121,2.7977 0.22802,5.42396 0.49589,5.42396 0.19575,0 3.41747,-2.2232 8.96768,-6.18829 4.759865,-3.40047 5.953121,-4.05326 5.953121,-3.25679 0,0.33729 -1.543568,1.73198 -7.672921,6.93287 -4.51859,3.83413 -4.42499,3.71337 -2.24895,2.90136 1.01864,-0.38011 4.1738,-1.64513 7.01145,-2.81115 7.403025,-3.04197 10.286962,-3.92539 11.112504,-3.40403 0.592272,0.37404 -0.0062,0.8409 -2.38125,1.85749 -1.710702,0.73224 -13.263084,6.93408 -13.140854,7.05461 0.0675,0.0666 24.03552,0.3391 42.641895,0.48488 9.167812,0.0718 24.050624,0.1906 33.072915,0.26393 9.022292,0.0733 25.8101037,0.19408 37.3062492,0.26832 11.4961458,0.0742 28.8197388,0.19223 38.4968738,0.26219 9.677135,0.07 27.298385,0.18728 39.158332,0.26069 22.218885,0.13755 49.774985,0.31982 80.962495,0.53554 9.82266,0.0679 29.11078,0.18447 42.8625,0.25894 13.75172,0.0745 33.21844,0.19438 43.25938,0.26647 10.04093,0.0721 29.26953,0.19074 42.7302,0.26367 33.8036,0.18315 71.82533,0.4431 71.87882,0.49143 0.0245,0.0221 2.7925,0.0402 6.15124,0.0402 h 6.1068 z m -501.93803,-53.57813 c 0.49657,-8.94215 0.90254,-16.47295 1.07688,-19.97604 0.0724,-1.45521 0.18786,-3.36021 0.25654,-4.23333 0.0687,-0.87313 0.19163,-3.07578 0.27324,-4.89479 0.0816,-1.81901 0.25866,-5.15276 0.39344,-7.40834 0.13477,-2.25557 0.30979,-5.41072 0.38893,-7.01145 0.0791,-1.60073 0.20901,-3.63675 0.28863,-4.52448 l 0.14474,-1.61406 -1.65652,-0.4648 c -0.91109,-0.25564 -1.79233,-0.51691 -1.95831,-0.5806 -0.21725,-0.0834 -0.28078,0.68412 -0.22681,2.74032 0.0412,1.57086 0.0815,3.71592 0.0894,4.76678 l 0.0144,1.91066 0.85949,0.22272 c 0.47272,0.1225 0.89763,0.42077 0.94425,0.66284 0.0778,0.40421 -0.61746,1.25738 -1.55471,1.9077 -0.32889,0.2282 -0.36681,3.84822 -0.27579,26.32604 0.069,17.02691 0.18051,24.91494 0.32182,22.75417 0.11896,-1.81901 0.39811,-6.58151 0.62034,-10.58334 z m 1.42223,-52.80665 c 0.77638,-0.10129 1.45209,-0.31631 1.50158,-0.47782 0.0495,-0.16151 0.16194,-1.96053 0.24989,-3.99782 0.088,-2.03729 0.21322,-4.23994 0.27837,-4.89479 0.0652,-0.65484 0.18549,-2.38125 0.26743,-3.83646 0.13931,-2.47406 0.12155,-2.60718 -0.27359,-2.05052 -0.53234,0.74995 -1.2999,0.74868 -2.61615,-0.004 -2.29982,-1.31573 -1.91885,-2.13762 1.00218,-2.16206 l 1.95994,-0.0164 0.1599,-1.16141 c 0.0879,-0.63877 0.1599,-1.68057 0.1599,-2.3151 0,-1.09633 -0.0381,-1.1537 -0.76633,-1.1537 -0.42149,0 -1.61211,-0.34419 -2.64584,-0.76487 l -1.8795,-0.76486 0.002,6.51955 0.002,6.51956 1.58944,0.0167 c 0.87418,0.009 1.71876,0.14602 1.87683,0.30409 0.82693,0.82693 -0.96196,2.32715 -2.55339,2.14136 l -0.86626,-0.10113 0.0346,4.32338 c 0.0336,4.20007 0.0498,4.31963 0.57047,4.1921 0.29476,-0.0722 1.17115,-0.21415 1.94752,-0.31544 z m 3.09445,-28.00935 c 0.1789,-2.2258 0.16347,-2.34026 -0.25856,-1.91823 -0.5422,0.5422 -1.35592,0.55319 -3.45373,0.0466 -0.87313,-0.21082 -1.6768,-0.38518 -1.78594,-0.38745 -0.10914,-0.002 -0.19844,1.00373 -0.19844,2.23557 v 2.2397 l 2.71198,0.0754 c 1.49159,0.0415 2.73053,0.0754 2.75321,0.0754 0.0227,0 0.12684,-1.06517 0.23148,-2.36705 z m 0.38897,-5.98908 c -2.2e-4,-1.73011 -0.006,-1.74341 -0.86011,-2.02553 -0.47295,-0.15619 -1.84217,-0.70797 -3.04271,-1.22618 l -2.18282,-0.9422 3.8e-4,2.96773 3.7e-4,2.96772 h 3.04255 3.04255 z m -0.82843,-7.82786 c -0.1269,-0.67926 -0.29835,-1.30264 -0.38099,-1.38528 -0.0826,-0.0826 -1.2136,-0.51988 -2.51324,-0.97163 l -2.36298,-0.82137 v 2.20665 2.20666 h 2.74397 2.74397 z m -0.10546,-5.63179 c 0.0857,-0.13873 -0.35372,-0.38944 -0.97657,-0.55713 -0.62286,-0.1677 -1.82385,-0.52006 -2.66886,-0.78304 l -1.5364,-0.47814 0.0812,0.83684 c 0.0705,0.72669 0.20307,0.85836 1.00723,1.00044 1.49974,0.26496 3.92487,0.25372 4.09341,-0.019 z m -0.12466,-4.62092 c 0,-0.0609 0.0717,-0.297435 0.15928,-0.525728 0.13844,-0.360768 -0.19044,-0.413033 -2.51354,-0.399438 -2.09407,0.01225 -2.67283,0.09504 -2.67283,0.38231 0,0.273204 0.52269,0.389656 2.05053,0.456846 1.12778,0.0496 2.25888,0.11413 2.51354,0.14342 0.25466,0.0293 0.46302,0.003 0.46302,-0.0574 z"
         id="path1" /></g></g></svg>
