<?xml version="1.0" encoding="UTF-8" standalone="no"?>
<!-- Created with Inkscape (http://www.inkscape.org/) -->

<svg
   width="520.32397mm"
   height="182.69624mm"
   viewBox="0 0 578.13775 202.99583"
   version="1.1"
   id="svg1"
   xml:space="preserve"
   xmlns:inkscape="http://www.inkscape.org/namespaces/inkscape"
   xmlns:sodipodi="http://sodipodi.sourceforge.net/DTD/sodipodi-0.dtd"
   xmlns="http://www.w3.org/2000/svg"
   xmlns:svg="http://www.w3.org/2000/svg"><sodipodi:namedview
     id="namedview1"
     pagecolor="#ffffff"
     bordercolor="#000000"
     borderopacity="0.25"
     inkscape:showpageshadow="2"
     inkscape:pageopacity="0.0"
     inkscape:pagecheckerboard="0"
     inkscape:deskcolor="#d1d1d1"
     inkscape:document-units="mm"><inkscape:page
       x="0"
       y="0"
       width="578.13776"
       height="202.99583"
       id="page2"
       margin="0"
       bleed="0" /></sodipodi:namedview><defs
     id="defs1" /><g
     inkscape:label="Layer 1"
     inkscape:groupmode="layer"
     id="layer1"
     transform="translate(130.76659,-87.577086)"><g
       id="g1"
       transform="translate(30.650054,10.987757)"><path
         style="fill:#fefefe"
         d="m 365.30144,270.23019 c -0.0243,-0.0229 -9.92635,-0.11665 -22.00457,-0.20825 -12.07823,-0.0916 -27.67542,-0.21836 -34.66042,-0.28167 -14.0626,-0.12745 -37.50014,-0.32357 -63.10312,-0.52801 -9.24058,-0.0738 -23.7662,-0.19492 -32.27917,-0.26919 -8.51297,-0.0743 -23.15765,-0.19024 -32.54375,-0.25772 -9.38609,-0.0675 -24.2689,-0.18383 -33.07291,-0.25855 -8.80401,-0.0747 -24.93698,-0.19682 -35.85104,-0.27134 -10.91407,-0.0745 -26.332659,-0.19379 -34.263545,-0.26506 C 69.59203,267.81914 53.280468,267.69774 41.275,267.62063 29.269531,267.54352 12.719844,267.42834 4.4979177,267.36467 -37.37968,267.04037 -57.251928,266.92528 -87.57708,266.83139 l -33.20521,-0.1028 -1.14639,-2.06482 c -0.63052,-1.13564 -1.97865,-3.64239 -2.99586,-5.57054 -1.56978,-2.97557 -1.77328,-3.50573 -1.34571,-3.50573 0.71488,0 1.03769,-0.84689 1.3615,-3.57187 0.51039,-4.29506 0.61687,-9.17191 0.32063,-14.68438 -0.16032,-2.98318 -0.41132,-8.22193 -0.55778,-11.64167 -0.14646,-3.41973 -0.32276,-7.40833 -0.39177,-8.86354 -0.22857,-4.81944 -0.39385,-8.68538 -0.53729,-12.56771 -0.24448,-6.61652 -0.39925,-10.12723 -0.52489,-11.90625 -0.0668,-0.94588 -0.1861,-3.92244 -0.2651,-6.61458 -0.079,-2.69213 -0.20195,-6.08542 -0.27323,-7.54062 -0.0713,-1.45521 -0.1889,-4.13412 -0.26139,-5.95313 -0.0725,-1.81901 -0.19177,-4.61698 -0.26508,-6.21771 -0.23033,-5.02945 -0.38215,-8.60793 -0.52758,-12.43541 -0.15839,-4.16859 -0.38877,-9.8452 -0.78924,-19.44688 -0.0759,-1.81901 -0.20255,-5.15276 -0.28152,-7.40833 -0.079,-2.25557 -0.18999,-4.93448 -0.2467,-5.95313 -0.0567,-1.01864 -0.17652,-3.81661 -0.26624,-6.21771 -0.0897,-2.40109 -0.34002,-7.69937 -0.55622,-11.77395 -0.5858,-11.040434 -0.58751,-10.617721 0.0456,-11.250796 1.04302,-1.04302 4.54,-1.489125 11.22409,-1.431844 7.32447,0.06277 51.937593,0.357648 77.522919,0.512404 31.175496,0.188568 139.651984,0.579214 220.662491,0.794651 29.32245,0.07798 65.16026,0.191333 79.63958,0.251898 14.47933,0.06056 32.42223,0.117623 39.87312,0.126796 l 13.54708,0.01668 1.22931,1.918229 c 0.67612,1.055026 1.67154,2.39448 2.21206,2.976563 1.52994,1.647604 5.5801,7.494219 5.5801,8.055169 0,0.12931 0.0952,0.2748 0.21162,0.3233 0.11638,0.0485 0.60095,0.74304 1.0768,1.5434 l 0.86519,1.45521 -0.14145,-4.49791 c -0.13354,-4.246303 -0.56517,-8.572747 -1.24438,-12.473059 -0.22139,-1.271296 -0.22271,-1.803891 -0.005,-2.021588 0.16256,-0.16256 0.29556,-0.569408 0.29556,-0.904105 0,-0.496769 0.14263,-0.608542 0.77653,-0.608542 1.05272,0 2.16087,0.449949 2.57925,1.047273 0.1947,0.27797 0.83685,0.573077 1.47141,0.6762 0.61926,0.100639 2.73328,0.715286 4.69781,1.365884 l 3.57188,1.182905 16.34986,0.129467 c 16.1942,0.128235 16.36041,0.134994 17.45837,0.709938 l 1.10852,0.580471 0.57767,4.496118 c 0.31772,2.472868 0.7724,6.401118 1.0104,8.729448 0.36803,3.60056 1.09759,9.85955 1.60368,13.75834 0.0756,0.58208 0.24375,2.30849 0.37374,3.83645 0.13,1.52797 0.41484,4.08782 0.63296,5.68855 0.21813,1.60073 0.45891,3.62479 0.53508,4.49791 0.0762,0.87313 0.26046,2.42094 0.40956,3.43959 0.1491,1.01864 0.33673,2.74505 0.41695,3.83645 0.0802,1.09141 0.43349,4.36563 0.78504,7.27605 0.35156,2.91041 0.83209,7.01807 1.06786,9.12812 0.23576,2.11005 0.53415,4.55083 0.6631,5.42396 0.12894,0.87312 0.30584,2.42094 0.39312,3.43958 0.0873,1.01865 0.27044,2.80459 0.40704,3.96875 0.74656,6.3625 1.08792,9.20892 1.33269,11.1125 0.14969,1.16417 0.31464,2.8391 0.36656,3.72207 0.0519,0.88297 0.2244,2.49031 0.3833,3.57187 0.27116,1.84574 1.04355,8.51556 1.22352,10.56544 0.11507,1.31079 0.86483,7.91018 1.20237,10.58333 0.15619,1.23693 0.3288,2.66568 0.38357,3.175 0.11272,1.04815 0.35046,3.05992 0.54718,4.63021 0.0729,0.58208 0.24288,2.1299 0.37768,3.43958 0.51197,4.974 1.58498,14.30944 1.70303,14.81667 0.0677,0.29104 0.30686,2.19604 0.53139,4.23333 0.22453,2.03729 0.53328,4.83526 0.68611,6.21771 0.60907,5.50948 1.05685,9.26552 1.43917,12.07201 0.49879,3.66135 0.2436,5.32732 -1.39307,9.09466 -1.03641,2.38563 -0.29834,2.24896 -12.14499,2.24896 -5.74488,0 -10.4651,-0.0188 -10.48939,-0.0417 z m 14.76209,-11.46769 c -0.0567,-0.3638 -0.22995,-1.91161 -0.38493,-3.43958 -0.51028,-5.03101 -0.55123,-5.41551 -0.67635,-6.35 -0.0682,-0.50932 -0.23827,-2.1762 -0.37795,-3.70417 -0.13968,-1.52797 -0.43806,-4.38547 -0.66307,-6.35 -0.22501,-1.96453 -0.5854,-5.41734 -0.80087,-7.67292 -0.21547,-2.25557 -0.5065,-4.87494 -0.64674,-5.82083 -0.14023,-0.94588 -0.32722,-2.61276 -0.41552,-3.70417 -0.15831,-1.95653 -1.31035,-12.75387 -2.13137,-19.97604 -0.23161,-2.03729 -0.5794,-5.31151 -0.77289,-7.27604 -0.19348,-1.96453 -0.66324,-6.42937 -1.0439,-9.92187 -0.38067,-3.4925 -0.80163,-7.42157 -0.93548,-8.73125 -0.13385,-1.30969 -0.43067,-4.04813 -0.65962,-6.08542 -0.22894,-2.03729 -0.59005,-5.37104 -0.80247,-7.40833 -0.21242,-2.0373 -0.55797,-5.31151 -0.76788,-7.27605 -0.20992,-1.96453 -0.51603,-4.94109 -0.68025,-6.61458 -0.16422,-1.67349 -0.34608,-3.2213 -0.40413,-3.43958 -0.0581,-0.21828 -0.23362,-1.88516 -0.39015,-3.70417 -0.15654,-1.81901 -0.46207,-4.73604 -0.67898,-6.48229 -0.43345,-3.48966 -0.39516,-3.14341 -1.15577,-10.45104 -1.22187,-11.73932 -1.37641,-13.17778 -1.606,-14.94896 -0.13205,-1.01865 -0.38287,-3.3106 -0.55738,-5.09323 l -0.3173,-3.24115 -5.45092,-7.7e-4 c -2.998,-4.2e-4 -10.34506,-0.0368 -16.32679,-0.0809 l -10.87589,-0.0801 -0.16416,5.30639 c -0.26813,8.66686 -1.45246,15.42017 -3.00514,17.13586 -0.40865,0.45155 -0.54428,0.26501 -2.39515,-3.29416 -5.46842,-10.51559 -11.45225,-18.89514 -14.19449,-19.87747 -0.27516,-0.0986 -0.75141,-0.0938 -1.05833,0.0107 -0.50927,0.17329 -0.48868,0.20733 0.23571,0.38953 0.94919,0.23875 -51.7766,0.0815 -144.85937,-0.432 -12.58756,-0.0694 -39.55521,-0.190248 -59.92813,-0.268463 C 84.798957,99.801241 60.331614,99.682548 50.8,99.615695 41.268385,99.548841 1.4122146,99.415499 -37.769269,99.319379 l -71.239061,-0.174763 -0.029,3.807384 c -0.016,2.09406 -0.0599,4.64081 -0.0978,5.65946 -0.0378,1.01865 -0.15008,7.32896 -0.24949,14.02292 -0.0994,6.69395 -0.22873,14.0163 -0.28739,16.27187 -0.0587,2.25557 -0.17552,7.79198 -0.25969,12.30313 -0.15074,8.07891 -0.26337,12.83793 -0.52599,22.225 -0.0733,2.61937 -0.19777,7.56047 -0.27664,10.9802 -0.0789,3.41974 -0.19782,7.46787 -0.26433,8.99584 -0.0665,1.52797 -0.18376,5.15937 -0.26056,8.06979 -0.0768,2.91042 -0.19344,6.95854 -0.25919,8.99583 -0.0657,2.03729 -0.18594,6.02589 -0.26708,8.86354 -0.0811,2.83766 -0.2012,6.76672 -0.26679,8.73125 -0.59694,17.87939 -0.58065,24.87084 0.058,24.87084 0.14026,0 3.11178,-2.06785 11.34832,-7.8972 2.60889,-1.84641 3.543871,-2.25321 3.543871,-1.54188 0,0.31668 -1.372501,1.54862 -8.703641,7.81228 -1.25211,1.0698 -2.45516,2.11687 -2.67344,2.32684 -0.48649,0.46796 1.31948,-0.20095 9.458575,-3.50334 6.098253,-2.47434 9.156462,-3.43242 9.965422,-3.12199 0.939685,0.36059 0.486948,0.75257 -2.226083,1.92737 -1.738453,0.75279 -13.263324,6.96338 -13.142674,7.08241 0.0756,0.0745 23.96706,0.34532 43.04059,0.48783 9.822656,0.0734 24.884061,0.19155 33.46979,0.26257 8.585729,0.071 25.3735412,0.19061 37.3062492,0.26576 11.9327078,0.0752 29.4348948,0.19522 38.8937488,0.26684 9.458854,0.0716 26.961041,0.18907 38.893749,0.26102 23.722463,0.14304 54.159733,0.34161 81.756243,0.53336 9.7499,0.0677 28.68084,0.18397 42.06875,0.25827 13.38792,0.0743 32.49745,0.19398 42.46563,0.26594 9.96817,0.072 29.73255,0.191 43.92083,0.2645 30.95548,0.16038 70.49397,0.43587 70.5562,0.49162 0.0246,0.022 2.78392,0.0401 6.13179,0.0401 h 6.08703 z m -501.90991,-53.71042 c 0.51464,-9.09614 0.65925,-11.59081 0.79754,-13.75833 0.0603,-0.94588 0.17686,-3.20807 0.25892,-5.02708 0.082,-1.81901 0.20688,-4.20026 0.27738,-5.29167 0.22598,-3.49814 0.37024,-6.13406 0.52856,-9.65729 0.085,-1.89177 0.20142,-3.97536 0.2587,-4.63021 0.0573,-0.65484 0.17276,-2.73844 0.25664,-4.63021 0.0839,-1.89177 0.21714,-4.16591 0.29614,-5.05364 l 0.14364,-1.61406 -1.65652,-0.4648 c -0.91109,-0.25564 -1.79471,-0.51782 -1.9636,-0.58263 -0.22434,-0.0861 -0.28823,0.68786 -0.23714,2.87261 0.0385,1.64474 0.0811,3.79071 0.0947,4.76881 0.0248,1.77688 0.0255,1.77856 0.88426,2.00109 0.47272,0.1225 0.89763,0.42077 0.94425,0.66284 0.0778,0.40421 -0.61746,1.25738 -1.55471,1.9077 -0.32889,0.2282 -0.36681,3.84822 -0.27579,26.32604 0.0685,16.92212 0.1809,24.90164 0.32046,22.75417 0.1182,-1.81901 0.40017,-6.58151 0.62658,-10.58334 z m 1.19638,-52.74746 1.7198,-0.32733 0.30531,-5.14646 c 0.16793,-2.83055 0.38008,-6.33708 0.47146,-7.79229 0.15487,-2.46618 0.13761,-2.60541 -0.25417,-2.05052 -0.52952,0.74998 -1.29761,0.7487 -2.6139,-0.004 -2.30209,-1.31703 -1.91904,-2.13765 1.00922,-2.16206 1.94975,-0.0163 1.96831,-0.0231 2.11984,-0.77708 0.0841,-0.41837 0.15286,-1.46017 0.15286,-2.3151 0,-1.53416 -0.01,-1.55443 -0.75736,-1.55443 -0.41655,0 -1.60717,-0.35043 -2.64583,-0.77874 l -1.88848,-0.77875 0.002,6.53344 0.002,6.53343 1.58944,0.0167 c 0.87418,0.009 1.71876,0.14602 1.87683,0.30409 0.83135,0.83135 -0.96385,2.32693 -2.56828,2.13962 l -0.88113,-0.10286 0.0325,4.31133 c 0.0221,2.92518 0.1252,4.30609 0.32078,4.29502 0.15854,-0.009 1.06216,-0.16361 2.00804,-0.34365 z m 3.41641,-29.22612 c 0.0211,-1.03944 -0.0146,-1.10558 -0.3926,-0.72761 -0.50951,0.50952 -1.35299,0.51288 -3.42068,0.0136 -0.87313,-0.21082 -1.6768,-0.38518 -1.78594,-0.38745 -0.10914,-0.002 -0.19844,1.00373 -0.19844,2.23557 v 2.2397 l 2.71198,0.0754 2.71198,0.0754 0.17526,-1.19063 c 0.0964,-0.65484 0.18569,-1.70514 0.19844,-2.334 z m 0.28366,-4.80975 -0.004,-1.71979 -3.03888,-1.23917 -3.03889,-1.23918 -1.3e-4,2.95897 -1.4e-4,2.95896 h 3.04257 3.04258 z m -0.70392,-7.47448 c -0.33282,-1.72802 -0.43992,-1.8269 -2.94871,-2.72266 l -2.42869,-0.86716 v 2.22486 2.22486 h 2.77152 2.77151 z m -0.22565,-6.00692 c 0.0857,-0.13873 -0.35372,-0.38944 -0.97657,-0.55713 -0.62286,-0.1677 -1.82385,-0.52006 -2.66886,-0.78304 l -1.5364,-0.47814 0.0812,0.83684 c 0.0705,0.72669 0.20307,0.85836 1.00723,1.00044 1.49974,0.26496 3.92487,0.25372 4.09341,-0.019 z m -0.12466,-4.62092 c 0,-0.0609 0.0723,-0.298981 0.1606,-0.529164 0.13991,-0.364618 -0.18378,-0.418514 -2.51354,-0.418514 -2.16634,0 -2.67415,0.07325 -2.67415,0.385745 0,0.296999 0.47176,0.406493 2.05053,0.475923 1.12778,0.0496 2.25888,0.11413 2.51354,0.14342 0.25466,0.0293 0.46302,0.003 0.46302,-0.0574 z"
         id="path7" /><path
         style="fill:#dfcba6"
         d="m -121.15827,191.13941 c 0.0127,-0.30822 0.0754,-0.37092 0.15985,-0.15985 0.0764,0.19099 0.067,0.4192 -0.0209,0.50712 -0.0879,0.0879 -0.15045,-0.0684 -0.13896,-0.34727 z m 491.33123,-23.8125 c 0.0127,-0.30822 0.0754,-0.37092 0.15985,-0.15985 0.0764,0.19099 0.067,0.4192 -0.0209,0.50712 -0.0879,0.0879 -0.15046,-0.0684 -0.13897,-0.34727 z m -479.68957,-43.65625 c 0.0127,-0.30822 0.0754,-0.37092 0.15985,-0.15985 0.0764,0.19099 0.067,0.4192 -0.0209,0.50712 -0.0879,0.0879 -0.15046,-0.0684 -0.13897,-0.34727 z m 368.49408,-23.04515 c 0.19099,-0.0764 0.4192,-0.067 0.50712,0.0209 0.0879,0.0879 -0.0684,0.15045 -0.34727,0.13896 -0.30822,-0.0127 -0.37092,-0.0754 -0.15985,-0.15985 z m 2.76662,-0.003 c 0.25743,-0.0671 0.61462,-0.0627 0.79375,0.01 0.17913,0.0725 -0.0315,0.12736 -0.46806,0.12197 -0.43656,-0.005 -0.58312,-0.0647 -0.32569,-0.13177 z m 10.44601,0.008 c 0.1819,-0.0734 0.47955,-0.0734 0.66146,0 0.1819,0.0734 0.0331,0.13346 -0.33073,0.13346 -0.36381,0 -0.51263,-0.0601 -0.33073,-0.13346 z m -117.86684,-0.53729 c 0.25743,-0.0671 0.61462,-0.0627 0.79375,0.01 0.17913,0.0725 -0.0315,0.12737 -0.46806,0.12197 -0.43656,-0.005 -0.58312,-0.0647 -0.32569,-0.13177 z m 1.46671,0.003 c 0.191,-0.0764 0.4192,-0.067 0.50712,0.0209 0.0879,0.0879 -0.0684,0.15046 -0.34727,0.13897 -0.30822,-0.0127 -0.37092,-0.0754 -0.15985,-0.15986 z m -52.13945,-0.259067 c 0.1819,-0.0734 0.47956,-0.0734 0.66146,0 0.1819,0.0734 0.0331,0.133452 -0.33073,0.133452 -0.3638,0 -0.51263,-0.06005 -0.33073,-0.133452 z M 35.404557,99.567178 c 0.190996,-0.07643 0.4192,-0.06703 0.507118,0.02089 0.08792,0.08792 -0.06835,0.150453 -0.347265,0.138964 -0.308225,-0.0127 -0.370919,-0.07539 -0.159853,-0.159852 z m 3.68763,0.0055 c 0.181901,-0.0734 0.479558,-0.0734 0.661459,0 0.181901,0.0734 0.03307,0.133452 -0.330729,0.133452 -0.363802,0 -0.512631,-0.06005 -0.33073,-0.133452 z m 3.985287,-0.0055 c 0.190996,-0.07643 0.419199,-0.06703 0.507118,0.02089 0.08792,0.08792 -0.06835,0.150453 -0.347266,0.138964 -0.308224,-0.0127 -0.370919,-0.07539 -0.159852,-0.159852 z m 5.027083,0 c 0.190996,-0.07643 0.419199,-0.06703 0.507118,0.02089 0.08792,0.08792 -0.06835,0.150453 -0.347266,0.138964 -0.308224,-0.0127 -0.370919,-0.07539 -0.159852,-0.159852 z M -108.28072,99.308106 c 0.1819,-0.0734 0.47955,-0.0734 0.66145,0 0.1819,0.0734 0.0331,0.133453 -0.33073,0.133453 -0.3638,0 -0.51263,-0.06005 -0.33072,-0.133453 z m 9.260412,0 c 0.181901,-0.0734 0.479557,-0.0734 0.661458,0 0.181901,0.0734 0.03307,0.133453 -0.330729,0.133453 -0.363802,0 -0.51263,-0.06005 -0.330729,-0.133453 z m 39.174868,-0.0055 c 0.190996,-0.07643 0.419199,-0.06703 0.507118,0.02089 0.08792,0.08792 -0.06835,0.150453 -0.347265,0.138965 -0.308225,-0.0127 -0.37092,-0.07539 -0.159853,-0.159853 z m 9.508463,-0.006 c 0.327422,-0.06306 0.863204,-0.06306 1.190625,0 0.327422,0.06306 0.05953,0.114662 -0.595312,0.114662 -0.654844,0 -0.922734,-0.0516 -0.595313,-0.114662 z m 3.191537,0.006 c 0.190996,-0.07643 0.419199,-0.06703 0.507118,0.02089 0.08792,0.08792 -0.06835,0.150453 -0.347266,0.138965 -0.308224,-0.0127 -0.370919,-0.07539 -0.159852,-0.159853 z m 2.116666,0 c 0.190997,-0.07643 0.4192,-0.06703 0.507118,0.02089 0.08792,0.08792 -0.06835,0.150453 -0.347265,0.138965 -0.308225,-0.0127 -0.370919,-0.07539 -0.159853,-0.159853 z m 8.73125,0 c 0.190996,-0.07643 0.419199,-0.06703 0.507118,0.02089 0.08792,0.08792 -0.06835,0.150453 -0.347265,0.138965 -0.308225,-0.0127 -0.37092,-0.07539 -0.159853,-0.159853 z m 3.704167,0 c 0.190996,-0.07643 0.419199,-0.06703 0.507118,0.02089 0.08792,0.08792 -0.06835,0.150453 -0.347266,0.138965 -0.308224,-0.0127 -0.370919,-0.07539 -0.159852,-0.159853 z m 2.910416,0 c 0.190996,-0.07643 0.4192,-0.06703 0.507118,0.02089 0.08792,0.08792 -0.06835,0.150453 -0.347265,0.138965 -0.308225,-0.0127 -0.370919,-0.07539 -0.159853,-0.159853 z m 7.672917,0 c 0.190996,-0.07643 0.419199,-0.06703 0.507118,0.02089 0.08792,0.08792 -0.06835,0.150453 -0.347266,0.138965 -0.308224,-0.0127 -0.370919,-0.07539 -0.159852,-0.159853 z"
         id="path6" /><path
         style="fill:#d7bc8b"
         d="m 367.81137,259.22638 c -0.32131,-0.32131 -7.94175,-3.778 -11.60063,-5.26214 -1.77413,-0.71963 -3.83858,-1.38102 -4.58766,-1.46973 -1.29861,-0.1538 -1.35778,-0.13383 -1.27221,0.42957 0.0668,0.43967 0.42826,0.71049 1.41266,1.05834 1.56363,0.55254 5.23882,2.39458 8.20209,4.11098 l 2.11666,1.22602 -15.875,-0.14486 c -8.73125,-0.0797 -29.26953,-0.20809 -45.64062,-0.28537 -16.37109,-0.0773 -36.79031,-0.19564 -45.37604,-0.26301 -8.58573,-0.0674 -27.33807,-0.18495 -41.67188,-0.26129 -14.3338,-0.0763 -33.44333,-0.19453 -42.46562,-0.26264 -17.47704,-0.13193 -46.33206,-0.3189 -81.888538,-0.5306 -12.005469,-0.0715 -29.388593,-0.18971 -38.629166,-0.26273 -9.240572,-0.073 -26.266509,-0.19233 -37.835415,-0.26513 -20.1003236,-0.12648 -35.531159,-0.24293 -71.868759,-0.54239 l -16.438552,-0.13547 -1.949989,-1.00774 c -1.072494,-0.55426 -2.122726,-1.0648 -2.333849,-1.13453 -0.327662,-0.10823 -0.316941,-0.26781 0.07323,-1.09003 0.251397,-0.52978 0.562602,-1.02845 0.691567,-1.10815 0.316585,-0.19566 0.625152,-2.11897 0.435716,-2.71583 -0.08367,-0.26363 -0.568416,-0.70352 -1.077203,-0.97752 -0.783011,-0.42168 -1.54521,-0.50215 -4.963378,-0.52401 -3.992243,-0.0255 -4.038735,-0.0326 -4.075554,-0.62114 -0.02633,-0.42095 0.109548,-0.59531 0.463934,-0.59531 0.275647,0 0.501177,0.11906 0.501177,0.26458 0,0.52296 0.546886,0.2506 0.855098,-0.42586 0.271264,-0.59536 0.243155,-0.7437 -0.20411,-1.07716 -1.023867,-0.76337 -6.209692,0.23689 -12.424946,2.39655 -1.891773,0.65735 -3.212193,1.0256 -2.934273,0.81834 0.27792,-0.20727 0.81498,-0.64746 1.19347,-0.97821 0.37848,-0.33075 1.490548,-1.30052 2.47125,-2.15503 0.980702,-0.85452 1.783095,-1.71772 1.783095,-1.91823 0,-0.9648 -1.101089,-0.31417 -8.731255,5.15932 -2.25557,1.61803 -4.57514,3.17893 -5.15458,3.46866 l -1.05355,0.52678 -0.22026,-0.59248 c -0.20387,-0.54836 -0.23803,-7.18025 -0.0726,-14.08622 0.12181,-5.08372 0.42162,-14.97204 0.54951,-18.12396 0.14319,-3.52898 0.33,-9.71754 0.53112,-17.59479 0.078,-3.05594 0.19351,-6.86594 0.25664,-8.46667 0.0631,-1.60073 0.18113,-5.52979 0.26223,-8.73125 0.0811,-3.20146 0.20545,-7.78536 0.27635,-10.18646 0.0709,-2.40109 0.19087,-7.22312 0.2666,-10.71562 0.0757,-3.4925 0.18922,-8.67172 0.2522,-11.50938 0.063,-2.83765 0.18219,-8.85031 0.26491,-13.36145 0.0827,-4.51115 0.20382,-10.88099 0.26913,-14.15521 0.0653,-3.27422 0.19572,-10.35844 0.28981,-15.74271 0.0941,-5.38427 0.2147,-9.864956 0.26804,-9.957078 0.0773,-0.133537 75.111696,-0.119 76.568569,0.01484 0.651033,0.05981 0.01102,0.348264 -7.443451,3.354788 -8.390919,3.3842 -9.489881,3.9145 -9.489881,4.57923 0,0.27303 0.188331,0.56868 0.418514,0.65701 0.720071,0.27631 1.433569,0.17596 1.433569,-0.20164 0,-0.2276 1.352228,-0.8332 3.638021,-1.62931 2.000911,-0.6969 7.020536,-2.50155 11.154722,-4.01035 l 7.516702,-2.743278 3.331215,-0.01261 c 1.832168,-0.0069 6.069651,0.0018 9.41663,0.01932 l 6.085417,0.03193 -2.38125,1.016438 c -2.365337,1.00965 -23.774939,10.0106 -24.407812,10.26145 -0.385523,0.15281 -0.444379,1.03134 -0.08401,1.25406 0.135693,0.0839 4.575638,-1.38773 9.866543,-3.2702 5.290906,-1.88248 13.5440244,-4.74781 18.3402639,-6.36741 L 3.8364173,99.457664 41.40725,99.606239 c 20.663957,0.08172 46.738644,0.203857 57.943748,0.271423 11.205102,0.06757 36.803542,0.187968 56.885412,0.267558 20.08188,0.0796 43.71578,0.19815 52.51979,0.26347 8.80402,0.0653 35.29542,0.19503 58.86979,0.28825 31.35943,0.124 42.96901,0.25017 43.25938,0.47013 0.3451,0.26143 0.3495,0.24024 0.0337,-0.16237 -0.19972,-0.25466 -0.5937,-0.46302 -0.87551,-0.46302 -0.29982,0 -0.43905,-0.11866 -0.33562,-0.28602 0.27963,-0.452455 1.41875,-0.033 2.64966,0.97563 1.92933,1.58093 6.11431,7.38161 9.42862,13.06872 2.21959,3.80867 2.58692,4.60985 2.31241,5.04368 -0.93613,1.47944 1.17433,5.80424 2.83242,5.80424 1.93862,0 5.60862,-8.73301 8.29477,-19.73795 l 0.26479,-1.08483 2.44787,-0.176 c 4.20264,-0.30217 15.35281,-0.52208 16.64289,-0.32824 0.67673,0.10168 1.49862,0.41748 1.82642,0.70178 0.67453,0.58502 0.98693,0.62617 1.95612,0.25769 0.47301,-0.17984 0.93415,-0.78751 1.50586,-1.98438 l 0.82406,-1.72516 h 1.2503 1.25031 l 0.31278,3.24115 c 0.17203,1.78263 0.42628,4.19365 0.565,5.35781 0.38165,3.20274 0.97645,8.79759 1.71584,16.13959 0.36638,3.63802 0.72865,6.89103 0.80505,7.22892 0.0764,0.33789 0.42657,3.43352 0.77814,6.87917 0.35157,3.44565 0.76779,7.45545 0.92494,8.91066 0.15715,1.4552 0.39809,3.83645 0.53542,5.29166 0.13733,1.45521 0.37666,3.65787 0.53184,4.89479 0.30841,2.45836 1.50267,13.34379 1.85777,16.93334 0.38057,3.84692 1.01923,9.85982 1.30915,12.32535 0.15256,1.29746 0.44847,4.08543 0.65758,6.19548 0.3906,3.94148 0.89939,8.64488 1.58847,14.68438 0.37769,3.31029 0.76014,6.97219 1.07771,10.31875 0.0829,0.87312 0.2611,2.54 0.39611,3.70416 0.13501,1.16417 0.48397,4.37886 0.77547,7.14375 0.2915,2.7649 0.70901,6.69396 0.9278,8.73125 0.2188,2.03729 0.52027,4.92851 0.66995,6.42492 0.14968,1.49641 0.3239,3.10375 0.38716,3.57187 0.0632,0.46812 0.23851,2.16082 0.38945,3.76155 0.15095,1.60073 0.37898,3.74385 0.50675,4.7625 0.12776,1.01864 0.20489,1.88465 0.17139,1.92445 -0.18804,0.22345 -0.93139,-0.32883 -0.93678,-0.69599 -0.004,-0.23909 -0.69884,-0.90596 -1.54516,-1.48193 l -1.53876,-1.04721 -0.30678,-1.8632 c -0.16873,-1.02477 -0.54543,-3.82774 -0.83711,-6.22883 -0.29168,-2.4011 -0.70056,-5.67531 -0.90863,-7.27604 -0.20807,-1.60073 -0.45582,-3.60714 -0.55056,-4.45868 -0.0947,-0.85155 -0.21279,-1.80405 -0.26235,-2.11667 -0.0495,-0.31262 -0.16231,-1.28278 -0.25057,-2.1559 -0.0883,-0.87313 -0.32934,-2.95672 -0.53574,-4.63021 -0.20639,-1.67349 -0.50666,-4.23334 -0.66725,-5.68854 -0.1606,-1.45521 -0.51819,-4.49131 -0.79466,-6.74688 -0.27647,-2.25557 -0.5693,-4.81542 -0.65074,-5.68854 -0.0814,-0.87313 -0.20395,-1.94469 -0.27225,-2.38125 -0.0683,-0.43656 -0.36223,-2.93688 -0.65316,-5.55625 -0.55775,-5.02162 -2.76619,-24.64672 -4.52563,-40.21667 -0.57555,-5.09323 -1.52549,-13.54666 -2.11098,-18.78541 -0.58549,-5.23875 -1.29843,-11.45088 -1.58432,-13.80474 -0.28589,-2.35385 -0.5198,-4.34815 -0.5198,-4.43177 0,-0.0836 -0.24669,-0.15204 -0.5482,-0.15204 -0.5041,0 -0.53607,0.11177 -0.39733,1.38907 0.083,0.76398 0.27095,2.9964 0.41772,4.96093 0.24334,3.25709 1.6335,20.36075 3.30103,40.61355 0.35944,4.36562 1.01726,12.40234 1.46181,17.85937 0.83909,10.29999 0.88469,10.85008 1.31618,15.875 0.1437,1.67349 0.38683,4.70958 0.5403,6.74688 0.15347,2.03729 0.32108,4.18041 0.37247,4.7625 0.16301,1.84613 0.43072,5.23574 0.54333,6.87916 0.0598,0.87313 0.30499,3.96875 0.54482,6.87917 0.23982,2.91042 0.43601,5.47026 0.43598,5.68854 -3e-5,0.21828 0.10264,1.46844 0.22817,2.77813 0.12552,1.30968 0.29256,3.57187 0.37119,5.02708 0.0786,1.45521 0.20265,3.36021 0.2756,4.23333 0.296,3.54273 0.37481,4.89479 0.28529,4.89479 -0.0518,0 -1.68576,-0.87208 -3.63102,-1.93797 -4.13944,-2.26816 -5.78029,-2.94468 -6.54976,-2.70046 -1.15305,0.36597 -0.34548,1.68831 1.64615,2.6955 0.75386,0.38123 2.71625,1.56978 4.36088,2.64123 1.64463,1.07145 3.34127,2.12962 3.77031,2.35148 0.7293,0.37713 0.78008,0.5045 0.78008,1.95631 v 1.55292 l -1.06402,0.10147 c -0.58522,0.0558 -1.15973,0.006 -1.27668,-0.11118 z m -44.73424,-151.6953 c 0.0127,-0.30823 0.0754,-0.37092 0.15985,-0.15985 0.0764,0.19099 0.067,0.41919 -0.0209,0.50711 -0.0879,0.0879 -0.15045,-0.0683 -0.13896,-0.34726 z m -441.34588,-7.798777 c 0,-0.29963 0.11387,-0.47441 0.25303,-0.388401 0.13917,0.08601 0.18596,0.33116 0.10399,0.544781 -0.20988,0.546927 -0.35702,0.482477 -0.35702,-0.15638 z"
         id="path5" /><path
         style="fill:#b0a694"
         d="m -123.03125,99.773965 c 0,-0.274754 0.5033,-0.672499 0.65238,-0.515562 0.0484,0.05095 -0.0786,0.246163 -0.28219,0.433801 -0.2036,0.187638 -0.37019,0.224431 -0.37019,0.08176 z"
         id="path4" /><path
         style="fill:#aa946d"
         d="m -87.097522,247.73384 c 0.190996,-0.0764 0.419199,-0.067 0.507118,0.0209 0.08792,0.0879 -0.06835,0.15046 -0.347266,0.13897 -0.308224,-0.0127 -0.370919,-0.0754 -0.159852,-0.15986 z m 1.322916,0 c 0.190996,-0.0764 0.4192,-0.067 0.507118,0.0209 0.08792,0.0879 -0.06835,0.15046 -0.347265,0.13897 -0.308225,-0.0127 -0.370919,-0.0754 -0.159853,-0.15986 z"
         id="path3" /><path
         style="fill:#877553"
         d="m 368.58546,236.38316 c 0.0127,-0.30822 0.0754,-0.37092 0.15985,-0.15985 0.0764,0.19099 0.067,0.4192 -0.0209,0.50712 -0.0879,0.0879 -0.15046,-0.0684 -0.13897,-0.34727 z"
         id="path2" /><path
         style="fill:#7b694a"
         d="m 360.89166,258.58895 c -0.65485,-0.37421 -1.96453,-1.13065 -2.91042,-1.68099 -2.60092,-1.51326 -6.44147,-3.2508 -7.27604,-3.29183 -0.14552,-0.007 -0.30263,-0.28089 -0.34913,-0.60832 -0.187,-1.3167 2.00912,-0.70158 10.13871,2.83979 2.91042,1.26782 5.76792,2.55613 6.35,2.8629 l 1.05834,0.55778 -2.91042,5.2e-4 c -2.6415,4.8e-4 -3.02043,-0.0623 -4.10104,-0.67985 z m 9.26041,-0.84742 v -1.55014 l -3.77031,-2.3872 c -2.07367,-1.31296 -4.45763,-2.77142 -5.29769,-3.24102 -2.03204,-1.13593 -2.64645,-2.22284 -1.42923,-2.52834 0.75592,-0.18973 2.65317,0.62701 6.80781,2.93064 1.69781,0.94139 3.17695,1.71161 3.28697,1.71161 0.11002,0 0.12775,-0.8632 0.0394,-1.91822 -0.0883,-1.05503 -0.2231,-2.9898 -0.29946,-4.29948 -0.0763,-1.30969 -0.19882,-3.0361 -0.27216,-3.83646 -0.0733,-0.80037 -0.24701,-3.00302 -0.38596,-4.89479 -0.13895,-1.89177 -0.31427,-4.09443 -0.3896,-4.8948 -0.17477,-1.85687 -0.60657,-7.40491 -0.80309,-10.31875 -0.0834,-1.23692 -0.26148,-3.55864 -0.39568,-5.15937 -0.13419,-1.60073 -0.31043,-3.86292 -0.39165,-5.02708 -0.0812,-1.16417 -0.20678,-2.71198 -0.27905,-3.43959 -0.0723,-0.7276 -0.30588,-3.46604 -0.51913,-6.08541 -0.21325,-2.61938 -1.10463,-13.45407 -1.98084,-24.07709 -0.87622,-10.62302 -2.18408,-26.63692 -2.90636,-35.58646 -0.72228,-8.94953 -1.36855,-16.89695 -1.43615,-17.66093 -0.10666,-1.2053 -0.0601,-1.38907 0.35186,-1.38907 0.62014,0 0.23661,-2.99307 4.50928,35.18959 1.1643,10.40474 2.184,19.57255 2.266,20.37291 0.082,0.80037 0.26058,2.34818 0.39684,3.43959 0.21525,1.72404 1.9054,16.77575 2.25796,20.10833 0.0693,0.65485 0.17887,1.48828 0.24353,1.85208 0.0647,0.36381 0.18683,1.37584 0.2715,2.24896 0.0847,0.87313 0.32168,2.95672 0.5267,4.63021 0.20502,1.67349 0.61562,5.18583 0.91244,7.80521 0.29681,2.61937 0.66611,5.77453 0.82066,7.01146 0.31781,2.54356 0.43513,3.5326 0.6434,5.42396 0.21896,1.98843 0.65775,5.58927 0.935,7.67291 0.13554,1.01865 0.30897,2.4474 0.3854,3.175 0.32918,3.13372 1.43298,11.37599 1.67245,12.48849 0.13557,0.62978 0.55475,1.10663 1.6355,1.86051 0.79926,0.55753 1.4926,1.21826 1.54075,1.46828 0.08,0.41541 -0.30188,0.4546 -4.42977,0.4546 h -4.51732 z m -470.54732,-1.5657 -4.21921,-0.0731 4.3515,-2.41425 c 2.393329,-1.32783 5.908224,-3.17296 7.81088,-4.10027 l 3.459375,-1.68603 4.17487,-0.0108 c 4.052775,-0.0104 4.205018,0.009 5.205729,0.67143 1.315793,0.87075 1.340745,1.59794 0.132995,3.87595 l -0.897864,1.69352 1.493177,0.64892 c 0.821247,0.35691 1.850364,0.87017 2.286926,1.14059 0.780694,0.48357 0.626191,0.49031 -9.392708,0.40941 -5.602552,-0.0452 -12.085103,-0.11516 -14.40567,-0.15538 z m -7.29016,-3.2197 c 4.2761,-3.8695 5.23891,-4.38918 11.757868,-6.3464 6.594244,-1.97982 10.319761,-1.92457 8.752365,0.12981 -0.322362,0.42251 -0.434874,0.44818 -0.634491,0.14473 -0.178468,-0.2713 -0.54719,-0.32191 -1.394091,-0.19136 -1.348147,0.20783 -6.322234,1.70442 -6.707695,2.01819 -0.233703,0.19025 -7.556966,3.21619 -11.509376,4.75564 l -1.45521,0.5668 z m -4.36563,-0.27905 c 0.0899,-0.14552 0.28259,-0.26458 0.42811,-0.26458 0.14552,0 0.191,0.11906 0.10106,0.26458 -0.0899,0.14553 -0.28258,0.26459 -0.42811,0.26459 -0.14552,0 -0.19099,-0.11906 -0.10106,-0.26459 z m -10.77912,-60.48199 c -0.0598,-22.05887 -0.0181,-25.40713 0.3191,-25.61887 0.83898,-0.52683 1.62865,-1.51063 1.54814,-1.92871 -0.0466,-0.24207 -0.47153,-0.54034 -0.94425,-0.66284 l -0.85949,-0.22272 -0.0169,-3.89503 c -0.009,-2.14228 -0.0538,-4.26677 -0.0989,-4.72109 l -0.082,-0.82605 1.48585,0.38801 c 2.17212,0.56722 2.47418,0.77778 2.3142,1.61321 -0.0747,0.39007 -0.20357,2.13796 -0.28639,3.88421 -0.19302,4.06922 -0.87546,16.48531 -1.20704,21.96042 -0.14101,2.32833 -0.43487,7.86474 -0.65302,12.30312 -0.21815,4.43839 -0.45119,8.8437 -0.51786,9.78958 -0.18415,2.61242 -0.38662,6.12387 -0.56447,9.78959 -0.0883,1.81901 -0.20721,3.35571 -0.26435,3.41488 -0.0571,0.0592 -0.13485,-11.31129 -0.17269,-25.26771 z m -0.0821,-43.83318 -0.0133,-4.29628 1.12425,0.0917 c 0.92337,0.0753 1.24487,-0.0289 1.79925,-0.58329 0.37125,-0.37125 0.675,-0.86195 0.675,-1.09045 0,-0.53987 -1.05915,-0.93152 -2.51913,-0.93152 h -1.16178 l -0.008,-6.45508 -0.008,-6.45509 1.86786,0.78479 c 1.02733,0.43164 2.21633,0.7947 2.64222,0.80681 0.7436,0.0212 0.77358,0.0703 0.75475,1.23853 -0.0108,0.66908 -0.10008,1.69275 -0.19844,2.27484 l -0.17882,1.05833 h -1.90531 c -2.22587,0 -2.74202,0.30218 -2.21099,1.29442 0.20781,0.38829 0.88275,0.85129 1.70122,1.16703 l 1.35674,0.52337 0.61271,-0.56269 0.61272,-0.56269 -0.14397,1.31924 c -0.15313,1.40318 -0.29062,3.63085 -0.57949,9.38903 -0.0986,1.96453 -0.21294,3.75047 -0.25419,3.96875 -0.0412,0.21828 -0.0841,0.47245 -0.0952,0.56482 -0.0111,0.0924 -0.70485,0.24828 -1.5416,0.34645 -0.83674,0.0982 -1.69995,0.22952 -1.91823,0.29188 -0.34076,0.0973 -0.39876,-0.4941 -0.41019,-4.18291 z m -0.11898,-24.1093 v -2.21822 l 1.91823,0.36583 c 2.52731,0.48198 3.2864,0.46185 3.64198,-0.0966 0.22887,-0.35943 0.26193,-0.13743 0.14774,0.99218 -0.0809,0.80037 -0.14813,1.84217 -0.1494,2.31511 l -0.002,0.85989 h -2.77812 -2.77813 z m 448.66593,0.1677 c -1.36454,-1.42738 -2.26318,-5.09323 -1.24855,-5.09323 0.14381,0 0.76338,1.01204 1.37684,2.24896 0.61345,1.23693 1.20484,2.24896 1.31419,2.24896 0.27521,0 0.83079,-1.15217 1.49885,-3.10835 1.03168,-3.02092 1.83465,-9.78705 1.93896,-16.33852 l 0.0548,-3.43959 13.37502,0.0661 c 7.35626,0.0364 14.10972,0.0959 15.00768,0.13229 l 1.63265,0.0662 -0.81162,1.67497 c -1.04529,2.15719 -2.15389,2.69548 -3.37326,1.63793 -0.33202,-0.28796 -1.03314,-0.60413 -1.55804,-0.7026 -1.01803,-0.19099 -14.53831,0.11255 -17.62004,0.39558 l -1.8414,0.16912 -0.21221,1.05833 c -0.86421,4.3099 -3.47096,12.1442 -5.19415,15.61042 -1.38937,2.79475 -2.40075,4.10104 -3.17517,4.10104 -0.25793,0 -0.78196,-0.32742 -1.16452,-0.72761 z m -445.82165,-4.50686 -2.84428,-0.0751 v -2.76917 c 0,-1.52305 0.0893,-2.76926 0.19844,-2.76937 0.10914,-10e-5 1.47552,0.50591 3.03639,1.12448 l 2.83796,1.12467 0.006,1.63803 c 0.003,0.90092 -0.083,1.67482 -0.19212,1.71979 -0.10914,0.045 -1.47836,0.048 -3.0427,0.007 z m 86.940774,-8.40298 c -0.08617,-0.22456 -0.1122,-0.44268 -0.05784,-0.48471 0.164728,-0.12738 4.81532,-2.10561 10.549873,-4.48761 2.983177,-1.23914 7.981484,-3.3334 11.107349,-4.6539 l 5.6833901,-2.400915 4.7676509,0.0095 4.767651,0.0095 -8.0697914,2.739645 c -7.6684016,2.60337 -14.2963926,4.90341 -23.6287676,8.19963 -2.300041,0.81239 -4.357606,1.47706 -4.572366,1.47706 -0.21476,0 -0.460977,-0.18373 -0.547147,-0.40828 z m -89.785054,-1.82506 c 0,-1.08282 0.10313,-2.0325 0.22917,-2.1104 0.23082,-0.14265 4.23203,1.08671 4.59715,1.41246 0.10786,0.0962 0.30085,0.7356 0.42886,1.42083 l 0.23276,1.24587 h -2.74397 -2.74397 z m 74.414065,-1.65755 c -0.879284,-0.16936 -0.754427,-1.04032 0.221481,-1.54498 0.449237,-0.23231 4.586659,-1.9375 9.194271,-3.7893 l 8.377477,-3.366923 2.468152,0.055 c 1.357483,0.03025 2.519237,0.106083 2.581675,0.168521 0.121236,0.121236 -4.549297,1.860282 -14.177952,5.279072 -3.274219,1.16256 -6.280547,2.2329 -6.680729,2.37855 -0.400182,0.14564 -0.727604,0.43175 -0.727604,0.63579 0,0.37272 -0.158053,0.39589 -1.256771,0.18427 z m -73.223435,-3.22426 c -0.95735,-0.14554 -1.06616,-0.24179 -1.14035,-1.0088 l -0.082,-0.8479 1.53722,0.50386 c 0.84547,0.27713 2.06369,0.63902 2.70716,0.8042 2.2493,0.57742 -0.0668,0.9979 -3.02202,0.54864 z m 1.25677,-4.73565 c -1.20055,-0.0423 -2.18281,-0.191097 -2.18281,-0.330732 0,-0.300069 -0.0814,-0.286442 2.18739,-0.366313 1.2484,-0.04395 1.88066,0.04557 2.08823,0.295675 0.16374,0.19729 0.25097,0.3856 0.19385,0.41846 -0.0571,0.0329 -1.08611,0.0252 -2.28666,-0.0171 z"
         id="path1" /></g></g></svg>
