<?xml version="1.0" encoding="UTF-8" standalone="no"?>
<!-- Created with Inkscape (http://www.inkscape.org/) -->

<svg
   width="520.203mm"
   height="182.54811mm"
   viewBox="0 0 578.00334 202.83124"
   version="1.1"
   id="svg1"
   xml:space="preserve"
   xmlns:inkscape="http://www.inkscape.org/namespaces/inkscape"
   xmlns:sodipodi="http://sodipodi.sourceforge.net/DTD/sodipodi-0.dtd"
   xmlns="http://www.w3.org/2000/svg"
   xmlns:svg="http://www.w3.org/2000/svg"><sodipodi:namedview
     id="namedview1"
     pagecolor="#ffffff"
     bordercolor="#000000"
     borderopacity="0.25"
     inkscape:showpageshadow="2"
     inkscape:pageopacity="0.0"
     inkscape:pagecheckerboard="0"
     inkscape:deskcolor="#d1d1d1"
     inkscape:document-units="mm"><inkscape:page
       x="0"
       y="0"
       width="578.00336"
       height="202.83124"
       id="page2"
       margin="0"
       bleed="0" /></sodipodi:namedview><defs
     id="defs1" /><g
     inkscape:label="Layer 1"
     inkscape:groupmode="layer"
     id="layer1"
     transform="translate(130.6803,-87.577084)"><g
       id="g1"
       transform="translate(30.260224,9.8141266)"><path
         style="fill:#feeaa0"
         d="m 315.33372,269.69426 c 0.19099,-0.0764 0.41919,-0.067 0.50711,0.0209 0.0879,0.0879 -0.0684,0.15045 -0.34726,0.13896 -0.30823,-0.0127 -0.37092,-0.0754 -0.15985,-0.15985 z m -59.54779,-0.52365 c 0.1819,-0.0734 0.47956,-0.0734 0.66146,0 0.1819,0.0734 0.0331,0.13345 -0.33073,0.13345 -0.3638,0 -0.51263,-0.06 -0.33073,-0.13345 z m -36.49596,-0.2701 c 0.19099,-0.0764 0.4192,-0.067 0.50712,0.0209 0.0879,0.0879 -0.0684,0.15045 -0.34727,0.13896 -0.30822,-0.0127 -0.37092,-0.0754 -0.15985,-0.15985 z m -71.96667,-0.52917 c 0.191,-0.0764 0.4192,-0.067 0.50712,0.0209 0.0879,0.0879 -0.0684,0.15046 -0.34726,0.13897 -0.30823,-0.0127 -0.37092,-0.0754 -0.15986,-0.15986 z m 2.11667,0 c 0.191,-0.0764 0.4192,-0.067 0.50712,0.0209 0.0879,0.0879 -0.0684,0.15046 -0.34727,0.13897 -0.30822,-0.0127 -0.37092,-0.0754 -0.15985,-0.15986 z m 2.38125,0 c 0.191,-0.0764 0.4192,-0.067 0.50712,0.0209 0.0879,0.0879 -0.0684,0.15046 -0.34727,0.13897 -0.30822,-0.0127 -0.37092,-0.0754 -0.15985,-0.15986 z m -74.877081,-0.52916 c 0.190997,-0.0764 0.4192,-0.067 0.507118,0.0209 0.08792,0.0879 -0.06835,0.15045 -0.347265,0.13896 -0.308225,-0.0127 -0.370919,-0.0754 -0.159853,-0.15985 z m 3.952214,0.006 c 0.181901,-0.0734 0.479557,-0.0734 0.661458,0 0.181901,0.0734 0.03307,0.13345 -0.330729,0.13345 -0.363802,0 -0.51263,-0.06 -0.330729,-0.13345 z M 43.590104,267.5836 c 0.181901,-0.0734 0.479557,-0.0734 0.661458,0 0.181901,0.0734 0.03307,0.13345 -0.330729,0.13345 -0.363802,0 -0.51263,-0.06 -0.330729,-0.13345 z m 2.926953,-0.006 c 0.190996,-0.0764 0.419199,-0.067 0.507118,0.0209 0.08792,0.0879 -0.06835,0.15046 -0.347266,0.13897 -0.308224,-0.0127 -0.370919,-0.0754 -0.159852,-0.15986 z m 2.116667,0 c 0.190996,-0.0764 0.419199,-0.067 0.507118,0.0209 0.08792,0.0879 -0.06835,0.15046 -0.347266,0.13897 -0.308224,-0.0127 -0.370919,-0.0754 -0.159852,-0.15986 z m -129.381246,-0.79375 c 0.190996,-0.0764 0.419199,-0.067 0.507118,0.0209 0.08792,0.0879 -0.06835,0.15046 -0.347266,0.13897 -0.308225,-0.0127 -0.370919,-0.0754 -0.159852,-0.15986 z m 1.587499,0 c 0.190997,-0.0764 0.4192,-0.067 0.507118,0.0209 0.08792,0.0879 -0.06835,0.15046 -0.347265,0.13897 -0.308225,-0.0127 -0.370919,-0.0754 -0.159853,-0.15986 z M -128.56661,145.10191 c 0.0127,-0.30822 0.0754,-0.37092 0.15986,-0.15985 0.0764,0.19099 0.067,0.4192 -0.0209,0.50712 -0.0879,0.0879 -0.15046,-0.0684 -0.13897,-0.34727 z m -0.50828,-12.01649 c 0,-0.3638 0.0601,-0.51263 0.13346,-0.33073 0.0734,0.1819 0.0734,0.47956 0,0.66146 -0.0734,0.1819 -0.13346,0.0331 -0.13346,-0.33073 z m -0.55005,-13.64809 c 0.0127,-0.30823 0.0754,-0.37092 0.15985,-0.15985 0.0764,0.19099 0.067,0.41919 -0.0209,0.50711 -0.0879,0.0879 -0.15045,-0.0683 -0.13896,-0.34726 z M 27.467058,90.835928 c 0.190996,-0.07643 0.419199,-0.06703 0.507118,0.02089 0.08792,0.08792 -0.06835,0.150453 -0.347266,0.138964 -0.308224,-0.0127 -0.370919,-0.07539 -0.159852,-0.159852 z m -85.460415,-0.264584 c 0.190997,-0.07643 0.4192,-0.06703 0.507119,0.02089 0.08792,0.08792 -0.06835,0.150453 -0.347266,0.138965 -0.308225,-0.0127 -0.370919,-0.07539 -0.159853,-0.159853 z m 20.902083,0 c 0.190996,-0.07643 0.419199,-0.06703 0.507118,0.02089 0.08792,0.08792 -0.06835,0.150453 -0.347265,0.138965 -0.308225,-0.0127 -0.37092,-0.07539 -0.159853,-0.159853 z"
         id="path7" /><path
         style="fill:#d7bc8a"
         d="m 367.81137,259.22638 c -0.32131,-0.32131 -7.94175,-3.778 -11.60063,-5.26214 -1.77413,-0.71963 -3.83858,-1.38102 -4.58766,-1.46973 -1.29861,-0.1538 -1.35778,-0.13383 -1.27221,0.42957 0.0668,0.43967 0.42826,0.71049 1.41266,1.05834 1.56282,0.55225 5.23691,2.3936 8.20209,4.11066 l 2.11666,1.22571 -16.00729,-0.1445 c -8.80401,-0.0795 -29.46135,-0.20793 -45.90521,-0.28547 -16.44385,-0.0775 -36.80354,-0.19586 -45.24374,-0.26293 -8.44021,-0.0671 -27.07349,-0.18419 -41.4073,-0.26028 -14.3338,-0.0761 -33.50286,-0.19456 -42.59791,-0.26329 -15.84794,-0.11976 -35.74402,-0.24829 -82.020832,-0.52986 -11.714426,-0.0713 -29.097551,-0.19013 -38.629165,-0.26413 -9.531614,-0.074 -26.438489,-0.19322 -37.570832,-0.26495 -23.804764,-0.15338 -50.523947,-0.35387 -72.533401,-0.54425 l -15.780278,-0.1365 -2.027189,-1.04902 c -1.114953,-0.57696 -2.20287,-1.04903 -2.417593,-1.04903 -0.289681,0 -0.149483,-0.45399 0.543404,-1.75966 0.898084,-1.69234 1.142933,-2.83263 0.73132,-3.40582 -0.106912,-0.14888 -0.541724,-0.4921 -0.966249,-0.76271 -0.661194,-0.42146 -1.363134,-0.49646 -4.895654,-0.52305 -4.079216,-0.0307 -4.124193,-0.0375 -4.161084,-0.62636 -0.02637,-0.42097 0.109482,-0.59531 0.463883,-0.59531 0.275647,0 0.501177,0.11906 0.501177,0.26458 0,0.52296 0.546886,0.2506 0.855098,-0.42586 0.271264,-0.59536 0.243155,-0.7437 -0.20411,-1.07716 -1.024091,-0.76354 -6.236588,0.24193 -12.391422,2.39024 -1.873333,0.65387 -3.302083,1.09895 -3.175003,0.98906 0.12709,-0.10989 1.45145,-1.24425 2.943042,-2.5208 1.491588,-1.27656 2.711979,-2.4872 2.711979,-2.69033 0,-0.74792 -0.994702,-0.30745 -3.836461,1.69883 -1.60073,1.13011 -4.3987,3.10697 -6.21771,4.39302 -1.81901,1.28605 -3.66447,2.49175 -4.10104,2.67935 -0.72917,0.31333 -0.81186,0.29441 -1.01644,-0.23253 -0.24018,-0.61864 -0.26797,-7.1738 -0.0602,-14.19965 0.071,-2.4011 0.19455,-6.68735 0.27455,-9.525 0.08,-2.83766 0.20338,-6.64766 0.2742,-8.46667 0.16504,-4.23965 0.35471,-10.54136 0.53354,-17.72708 0.0779,-3.1287 0.19274,-6.9387 0.25528,-8.46667 0.0626,-1.52797 0.1819,-5.51656 0.26524,-8.86354 0.0833,-3.34698 0.20639,-7.93089 0.27347,-10.18646 0.0671,-2.25557 0.18569,-7.01807 0.26357,-10.58333 0.0779,-3.56526 0.19283,-8.74448 0.25544,-11.50938 0.0626,-2.76489 0.18094,-8.77755 0.26295,-13.36146 0.082,-4.5839 0.20245,-10.95375 0.26766,-14.1552 0.0652,-3.20146 0.19596,-10.22615 0.29056,-15.61042 0.0946,-5.38427 0.22151,-9.874179 0.28203,-9.977574 0.0883,-0.150866 75.142913,-0.117206 76.556295,0.03433 0.64131,0.06876 -0.474815,0.572004 -7.672916,3.459574 -8.11325,3.25469 -9.260416,3.8091 -9.260416,4.47544 0,0.27303 0.188331,0.56868 0.418514,0.65701 0.720071,0.27631 1.433569,0.17596 1.433569,-0.20164 0,-0.2276 1.352228,-0.8332 3.638021,-1.62931 2.000911,-0.6969 7.031301,-2.51033 11.178645,-4.02985 l 7.540625,-2.762769 3.307291,0.0066 c 1.819011,0.0036 6.045729,0.02111 9.392708,0.03882 l 6.085417,0.03219 -2.38125,1.016429 c -2.365337,1.00965 -23.774939,10.0106 -24.407812,10.26145 -0.379166,0.15029 -0.420824,0.58113 -0.104421,1.07994 0.168375,0.26545 2.418137,-0.4383 9.851677,-3.08169 5.29841,-1.88412 13.5625352,-4.7563 18.3647226,-6.3826 L 3.8364793,99.444642 42.730228,99.60354 c 21.391562,0.08739 47.942499,0.2116 59.002082,0.276014 11.05958,0.06441 36.41989,0.182906 56.35625,0.263326 19.93635,0.0804 43.57026,0.19991 52.51979,0.26554 34.35064,0.25189 100.11449,0.3701 99.486,0.17882 -0.45413,-0.1382 -0.55614,-0.26394 -0.32837,-0.40471 0.4964,-0.306786 1.38584,0.0636 2.66376,1.10914 3.03801,2.4857 12.38395,16.92076 11.67813,18.0372 -0.92993,1.47093 1.17969,5.81902 2.82329,5.81902 1.93862,0 5.60862,-8.73301 8.29477,-19.73795 l 0.26479,-1.08483 2.44787,-0.176 c 4.20264,-0.30217 15.35281,-0.52208 16.64289,-0.32824 0.67673,0.10168 1.49862,0.41748 1.82642,0.70178 0.67453,0.58502 0.98693,0.62617 1.95612,0.25769 0.47301,-0.17984 0.93415,-0.78751 1.50586,-1.98438 l 0.82406,-1.72516 h 1.2503 1.25031 l 0.31278,3.24115 c 0.17203,1.78263 0.42541,4.19365 0.56308,5.35781 0.46845,3.9614 0.77976,6.87148 1.58506,14.81667 0.44248,4.36562 0.91531,8.59234 1.05073,9.39271 0.13541,0.80036 0.37354,2.88396 0.52917,4.63021 0.15563,1.74625 0.45385,4.72281 0.6627,6.61458 0.20885,1.89177 0.56174,5.22552 0.7842,7.40833 0.22246,2.18282 0.52245,4.92125 0.66666,6.08542 0.1442,1.16417 0.50652,4.55745 0.80515,7.54062 0.29864,2.98318 0.65551,6.2574 0.79305,7.27605 0.13754,1.01864 0.43861,3.75708 0.66905,6.08541 0.23043,2.32834 0.60011,5.84068 0.82149,7.80521 0.22138,1.96453 0.56399,5.17922 0.76134,7.14375 0.19735,1.96453 0.66629,6.36985 1.04208,9.78958 0.99346,9.04053 1.46503,13.44997 1.59872,14.94896 0.29645,3.32398 0.43657,4.61677 0.67388,6.21771 0.14021,0.94589 0.4323,3.56526 0.64909,5.82083 0.2168,2.25558 0.57293,5.76792 0.79141,7.80521 0.21848,2.03729 0.5197,4.92851 0.66938,6.42492 0.14968,1.49641 0.3239,3.10375 0.38716,3.57187 0.0632,0.46812 0.23851,2.16082 0.38945,3.76155 0.15095,1.60073 0.37898,3.74385 0.50675,4.7625 0.12776,1.01864 0.20489,1.88465 0.17139,1.92445 -0.18804,0.22345 -0.93139,-0.32883 -0.93678,-0.69599 -0.004,-0.23909 -0.69949,-0.90641 -1.5466,-1.48292 l -1.54021,-1.04821 -0.43474,-2.78825 c -0.23911,-1.53354 -0.62307,-4.39559 -0.85325,-6.36013 -0.23017,-1.96453 -0.58133,-4.82203 -0.78034,-6.35 -0.19902,-1.52796 -0.43885,-3.47484 -0.53298,-4.32638 -0.0941,-0.85155 -0.21167,-1.80405 -0.26123,-2.11667 -0.0495,-0.31262 -0.16231,-1.28278 -0.25057,-2.1559 -0.0883,-0.87313 -0.33157,-2.95672 -0.54069,-4.63021 -0.20911,-1.67349 -0.68887,-5.78115 -1.06612,-9.12813 -0.37725,-3.34698 -0.73134,-6.26401 -0.78687,-6.48229 -0.0555,-0.21828 -0.17125,-1.28984 -0.25717,-2.38125 -0.0859,-1.0914 -0.21074,-2.28203 -0.27738,-2.64583 -0.0666,-0.3638 -0.66096,-5.48349 -1.32069,-11.37709 -2.1522,-19.22623 -2.75617,-24.60255 -3.83426,-34.13125 -0.58448,-5.16598 -1.54174,-13.67895 -2.12723,-18.9177 -0.58549,-5.23875 -1.29843,-11.45088 -1.58432,-13.80474 -0.28589,-2.35385 -0.5198,-4.34815 -0.5198,-4.43177 0,-0.0836 -0.24669,-0.15204 -0.5482,-0.15204 -0.5041,0 -0.53607,0.11177 -0.39733,1.38907 0.083,0.76398 0.27095,2.9964 0.41772,4.96093 0.2458,3.29 1.71194,21.30974 3.30445,40.61355 0.36015,4.36562 1.01771,12.40234 1.46124,17.85937 0.86562,10.65019 0.91507,11.24721 1.315,15.875 0.14463,1.67349 0.3189,3.81662 0.38728,4.7625 0.15374,2.1267 0.40361,5.29727 0.54214,6.87917 0.23813,2.71934 0.41781,4.99527 0.52221,6.61458 0.061,0.94589 0.30725,4.10104 0.54727,7.01146 0.24001,2.91042 0.43636,5.47026 0.43633,5.68854 -3e-5,0.21828 0.1025,1.46844 0.22786,2.77813 0.12535,1.30968 0.2931,3.51234 0.37277,4.89479 0.13844,2.40238 0.30958,4.8556 0.54909,7.87135 0.0607,0.76399 0.0667,1.38906 0.0133,1.38906 -0.0533,0 -1.68857,-0.87208 -3.63383,-1.93797 -4.13944,-2.26816 -5.78029,-2.94468 -6.54976,-2.70046 -1.15305,0.36597 -0.34548,1.68831 1.64615,2.6955 0.75386,0.38123 2.71625,1.56978 4.36088,2.64123 1.64463,1.07145 3.34127,2.12962 3.77031,2.35148 0.7293,0.37713 0.78008,0.5045 0.78008,1.95631 v 1.55292 l -1.06402,0.10147 c -0.58522,0.0558 -1.15973,0.006 -1.27668,-0.11118 z m -44.73424,-151.6953 c 0.0127,-0.30823 0.0754,-0.37092 0.15985,-0.15985 0.0764,0.19099 0.067,0.41919 -0.0209,0.50711 -0.0879,0.0879 -0.15045,-0.0683 -0.13896,-0.34726 z m -441.42719,-7.613436 c -0.0881,-0.229549 -0.0384,-0.492629 0.11047,-0.584622 0.41192,-0.254579 0.57899,0.05616 0.2991,0.556304 -0.22277,0.398064 -0.26652,0.401094 -0.40957,0.02832 z"
         id="path6" /><path
         style="fill:#edcb5f"
         d="m 97.581639,257.52343 c 0.190996,-0.0764 0.419199,-0.067 0.507118,0.0209 0.08792,0.0879 -0.06835,0.15045 -0.347266,0.13896 -0.308224,-0.0127 -0.370919,-0.0754 -0.159852,-0.15985 z M 370.17296,167.32691 c 0.0127,-0.30822 0.0754,-0.37092 0.15985,-0.15985 0.0764,0.19099 0.067,0.4192 -0.0209,0.50712 -0.0879,0.0879 -0.15046,-0.0684 -0.13897,-0.34727 z m -498.2104,-9.26042 c 0.0127,-0.30822 0.0754,-0.37091 0.15985,-0.15985 0.0764,0.191 0.067,0.4192 -0.0209,0.50712 -0.0879,0.0879 -0.15045,-0.0684 -0.13896,-0.34727 z m 18.52083,-34.39583 c 0.0127,-0.30822 0.0754,-0.37092 0.15985,-0.15985 0.0764,0.19099 0.067,0.4192 -0.0209,0.50712 -0.0879,0.0879 -0.15046,-0.0684 -0.13897,-0.34727 z m 0.26459,-13.75833 c 0.0127,-0.30823 0.0754,-0.37092 0.15985,-0.15985 0.0764,0.19099 0.067,0.41919 -0.0209,0.50711 -0.0879,0.0879 -0.15045,-0.0684 -0.13896,-0.34726 z m 368.22949,-9.28682 c 0.19099,-0.0764 0.4192,-0.067 0.50712,0.0209 0.0879,0.0879 -0.0684,0.15045 -0.34727,0.13896 -0.30822,-0.0127 -0.37092,-0.0754 -0.15985,-0.15985 z m 5.82083,0 c 0.191,-0.0764 0.4192,-0.067 0.50712,0.0209 0.0879,0.0879 -0.0684,0.15045 -0.34727,0.13896 -0.30822,-0.0127 -0.37092,-0.0754 -0.15985,-0.15985 z m 3.15846,0.006 c 0.1819,-0.0734 0.47956,-0.0734 0.66146,0 0.1819,0.0734 0.0331,0.13346 -0.33073,0.13346 -0.3638,0 -0.51263,-0.0601 -0.33073,-0.13346 z m 4.37066,-0.008 c 0.25744,-0.0671 0.61462,-0.0627 0.79375,0.01 0.17914,0.0725 -0.0315,0.12736 -0.46805,0.12197 -0.43656,-0.005 -0.58313,-0.0647 -0.3257,-0.13177 z m -117.59578,-0.52656 c 0.19099,-0.0764 0.4192,-0.067 0.50712,0.0209 0.0879,0.0879 -0.0684,0.15046 -0.34727,0.13897 -0.30822,-0.0127 -0.37092,-0.0754 -0.15985,-0.15986 z m 1.05833,0 c 0.191,-0.0764 0.4192,-0.067 0.50712,0.0209 0.0879,0.0879 -0.0684,0.15046 -0.34727,0.13897 -0.30822,-0.0127 -0.37092,-0.0754 -0.15985,-0.15986 z m 1.32292,0 c 0.19099,-0.0764 0.4192,-0.067 0.50712,0.0209 0.0879,0.0879 -0.0684,0.15046 -0.34727,0.13897 -0.30823,-0.0127 -0.37092,-0.0754 -0.15985,-0.15986 z m -53.72695,-0.259067 c 0.1819,-0.0734 0.47955,-0.0734 0.66145,0 0.1819,0.0734 0.0331,0.133452 -0.33073,0.133452 -0.3638,0 -0.51263,-0.06005 -0.33072,-0.133452 z M 39.092187,99.57269 c 0.181901,-0.0734 0.479558,-0.0734 0.661459,0 0.181901,0.0734 0.03307,0.133452 -0.330729,0.133452 -0.363802,0 -0.512631,-0.06005 -0.33073,-0.133452 z m 9.01237,-0.0055 c 0.190996,-0.07643 0.419199,-0.06703 0.507118,0.02089 0.08792,0.08792 -0.06835,0.150453 -0.347266,0.138964 -0.308224,-0.0127 -0.370919,-0.07539 -0.159852,-0.159852 z M -108.28072,99.308106 c 0.1819,-0.0734 0.47955,-0.0734 0.66145,0 0.1819,0.0734 0.0331,0.133453 -0.33073,0.133453 -0.3638,0 -0.51263,-0.06005 -0.33072,-0.133453 z m 48.43528,-0.0055 c 0.190996,-0.07643 0.419199,-0.06703 0.507118,0.02089 0.08792,0.08792 -0.06835,0.150453 -0.347265,0.138965 -0.308225,-0.0127 -0.37092,-0.07539 -0.159853,-0.159853 z m 9.910374,-0.0026 c 0.257431,-0.06708 0.614618,-0.06267 0.79375,0.0098 0.179131,0.07247 -0.03149,0.127362 -0.468056,0.12197 -0.436563,-0.0054 -0.583125,-0.06469 -0.325694,-0.131774 z m 1.731293,0.0026 c 0.190996,-0.07643 0.419199,-0.06703 0.507118,0.02089 0.08792,0.08792 -0.06835,0.150453 -0.347266,0.138965 -0.308225,-0.0127 -0.370919,-0.07539 -0.159852,-0.159853 z m 3.174999,0 c 0.190997,-0.07643 0.4192,-0.06703 0.507118,0.02089 0.08792,0.08792 -0.06835,0.150453 -0.347265,0.138965 -0.308225,-0.0127 -0.370919,-0.07539 -0.159853,-0.159853 z m 8.73125,0 c 0.190996,-0.07643 0.419199,-0.06703 0.507118,0.02089 0.08792,0.08792 -0.06835,0.150453 -0.347265,0.138965 -0.308225,-0.0127 -0.37092,-0.07539 -0.159853,-0.159853 z m 3.704167,0 c 0.190996,-0.07643 0.419199,-0.06703 0.507118,0.02089 0.08792,0.08792 -0.06835,0.150453 -0.347266,0.138965 -0.308224,-0.0127 -0.370919,-0.07539 -0.159852,-0.159853 z"
         id="path5" /><path
         style="fill:#fdce18"
         d="m 345.736,269.98826 c -0.0318,-0.0256 -11.72601,-0.12693 -25.98705,-0.22511 -14.26104,-0.0982 -29.44151,-0.22708 -33.73437,-0.28647 -4.29287,-0.0594 -17.62787,-0.17403 -29.63334,-0.25476 -12.00546,-0.0807 -27.305,-0.20386 -33.99895,-0.27364 -6.69396,-0.0698 -21.10052,-0.18772 -32.01459,-0.26209 -10.91406,-0.0744 -26.27312,-0.1937 -34.13125,-0.26518 -7.85812,-0.0715 -23.21718,-0.19084 -34.13124,-0.26523 -29.720337,-0.20259 -53.572966,-0.38302 -70.114585,-0.53038 -8.149167,-0.0726 -25.591823,-0.19635 -38.761458,-0.27502 -13.16963463,-0.0787 -28.290572,-0.19054 -33.602082,-0.24859 -5.31151,-0.058 -30.076509,-0.18913 -55.033332,-0.29127 l -45.376043,-0.18572 -0.61857,-1.08688 c -1.89284,-3.32589 -5.06997,-9.40856 -5.06997,-9.70658 0,-0.13411 0.18115,-0.24384 0.40255,-0.24384 1.44401,0 1.98106,-8.59576 1.34726,-21.56354 -0.36674,-7.50369 -0.66409,-14.17662 -1.34407,-30.1625 -0.0743,-1.74625 -0.19771,-4.90141 -0.2743,-7.01146 -0.0766,-2.11005 -0.19518,-4.84849 -0.26355,-6.08542 -0.0684,-1.23692 -0.18682,-4.03489 -0.26323,-6.2177 -0.15263,-4.36025 -0.58275,-15.19627 -0.79292,-19.97605 -0.0736,-1.67348 -0.19687,-4.65005 -0.27396,-6.61458 -0.0771,-1.96453 -0.19009,-4.7625 -0.2511,-6.21771 -0.061,-1.45521 -0.18016,-4.66989 -0.26478,-7.14375 -0.0846,-2.47385 -0.20883,-5.45041 -0.27602,-6.61458 -0.0672,-1.16417 -0.24148,-5.50995 -0.3873,-9.65729 -0.14582,-4.14735 -0.32546,-8.31453 -0.39921,-9.26042 -0.0737,-0.94588 -0.25675,-4.63682 -0.40669,-8.20208 -0.14993,-3.56526 -0.32974,-7.49432 -0.39956,-8.73125 -0.0698,-1.23693 -0.20097,-3.975366 -0.29142,-6.085418 -0.2046,-4.77315 -0.16832,-4.840197 2.94768,-5.447524 2.2179,-0.432283 14.55194,-0.509178 38.910475,-0.24258 23.042955,0.252198 139.175865,0.730226 260.862425,1.073764 29.24969,0.08258 64.96844,0.191827 79.375,0.24278 14.40656,0.05095 33.95191,0.103349 43.4341,0.116435 l 17.24034,0.02379 1.12275,1.785938 c 0.61751,0.982265 1.7095,2.431285 2.42664,3.220044 1.21297,1.334085 3.84288,5.172251 6.47721,9.453011 l 1.11563,1.81288 0.009,-2.91041 c 0.01,-3.32321 -0.3229,-7.368747 -0.96845,-11.773963 -0.46931,-3.202528 -0.4844,-3.579496 -0.19863,-4.960937 0.1484,-0.717387 0.29791,-0.859896 0.90212,-0.859896 1.07817,0 2.3499,0.513735 2.51086,1.014302 0.0943,0.293406 0.78818,0.595641 2.07402,0.903438 1.06274,0.254392 3.1767,0.891577 4.69768,1.415966 l 2.76543,0.953434 16.40417,0.124076 c 15.77359,0.119307 16.44743,0.144625 17.52965,0.658644 0.68174,0.323805 1.17723,0.759783 1.25674,1.105791 0.21302,0.927051 1.09587,8.280715 1.72035,14.329555 0.16526,1.60073 0.52855,4.75589 0.80731,7.01146 0.27876,2.25557 0.55902,4.81542 0.62281,5.68854 0.18216,2.49331 0.64617,6.487 0.92223,7.9375 0.13847,0.72761 0.32695,2.45401 0.41884,3.83646 0.0919,1.38245 0.2742,3.10886 0.40515,3.83646 0.13094,0.7276 0.31014,2.15635 0.39821,3.175 0.0881,1.01865 0.44934,4.23333 0.80281,7.14375 0.8767,7.21858 1.42119,12.06988 1.603,14.28235 0.0838,1.02001 0.20141,1.93386 0.26131,2.03078 0.0599,0.0969 0.29266,1.94298 0.51726,4.10237 0.22459,2.15939 0.53625,5.05726 0.69257,6.43971 0.15632,1.38245 0.32364,2.87073 0.37182,3.30729 0.0482,0.43656 0.2124,1.74625 0.36494,2.91042 0.15253,1.16416 0.39171,3.49398 0.53151,5.17736 0.1398,1.68339 0.31365,3.2312 0.38632,3.43959 0.14728,0.42227 1.17755,9.54195 1.35799,12.02055 0.0636,0.87312 0.18352,1.87797 0.26657,2.233 0.13313,0.56908 0.83482,6.76683 1.05024,9.27637 0.0437,0.50932 0.31954,2.89057 0.61294,5.29167 0.29339,2.40109 0.59966,4.96094 0.6806,5.68854 0.0809,0.7276 0.43911,3.82323 0.79595,6.87917 1.36359,11.67763 2.00497,17.23979 2.1204,18.38854 0.27283,2.71511 0.97083,8.50866 1.31952,10.95224 0.40422,2.83282 0.20627,5.24646 -0.52137,6.35698 -0.21348,0.32581 -0.32041,0.66014 -0.23761,0.74294 0.26144,0.26144 -1.44393,3.34566 -2.02057,3.65427 -0.39524,0.21152 -6.24281,0.27445 -20.64698,0.22219 -11.05256,-0.0401 -20.12162,-0.0939 -20.15346,-0.11953 z m 34.34856,-11.35805 c -0.0667,-0.43656 -0.24665,-1.98438 -0.39999,-3.43958 -0.15335,-1.45521 -0.40695,-3.77693 -0.56356,-5.15938 -0.15662,-1.38245 -0.38926,-3.64463 -0.51698,-5.02708 -0.12772,-1.38245 -0.41665,-4.12089 -0.64206,-6.08542 -0.22541,-1.96453 -0.58717,-5.41734 -0.8039,-7.67292 -0.21673,-2.25557 -0.51055,-4.93447 -0.65294,-5.95312 -0.14239,-1.01865 -0.37614,-3.2213 -0.51943,-4.89479 -0.1433,-1.67349 -0.5552,-5.66209 -0.91534,-8.86354 -0.36013,-3.20146 -0.95858,-8.67834 -1.32987,-12.17084 -0.87324,-8.2139 -0.81936,-7.71247 -1.60614,-14.94896 -0.3718,-3.41973 -0.79088,-7.3488 -0.93127,-8.73125 -0.1404,-1.38244 -0.43625,-4.12088 -0.65744,-6.08541 -0.2212,-1.96453 -0.57707,-5.23875 -0.79083,-7.27604 -0.21376,-2.0373 -0.56041,-5.31151 -0.77032,-7.27605 -0.20992,-1.96453 -0.51603,-4.94109 -0.68025,-6.61458 -0.16422,-1.67349 -0.34608,-3.2213 -0.40413,-3.43958 -0.0581,-0.21828 -0.23362,-1.88516 -0.39015,-3.70417 -0.15654,-1.81901 -0.46207,-4.73604 -0.67898,-6.48229 -0.43345,-3.48966 -0.39516,-3.14341 -1.15577,-10.45104 -1.12534,-10.81186 -1.3768,-13.15585 -1.6179,-15.08125 -0.13667,-1.09141 -0.38091,-3.3536 -0.54277,-5.02709 -0.16185,-1.67348 -0.31466,-3.06501 -0.33957,-3.09227 -0.0249,-0.0273 -7.38112,-0.0868 -16.34712,-0.13229 l -16.30184,-0.0827 -0.0378,3.70417 c -0.0381,3.73265 -0.58856,10.13939 -1.1026,12.83229 -0.54928,2.87746 -2.0592,6.76373 -2.45965,6.33069 -0.0575,-0.0621 -0.66907,-1.24407 -1.35913,-2.62652 -4.4423,-8.89959 -10.77047,-18.27202 -13.80248,-20.44235 -0.89602,-0.64137 -1.24685,-0.751726 -1.85209,-0.58257 l -0.74667,0.20869 0.79375,0.20854 c 0.92036,0.24182 -54.03619,0.079 -143.40417,-0.42491 -11.9327,-0.0673 -39.07895,-0.18612 -60.32499,-0.264085 -21.246045,-0.07797 -45.772919,-0.197777 -54.504169,-0.266249 -8.73125,-0.06847 -48.4683577,-0.20274 -88.304685,-0.298373 l -72.429686,-0.173879 -0.0283,3.807696 c -0.0156,2.09423 -0.0586,4.46254 -0.0955,5.2629 -0.037,0.80037 -0.15123,7.05115 -0.25392,13.89063 -0.10269,6.83948 -0.2316,14.34042 -0.28648,16.66875 -0.0549,2.32833 -0.16887,7.86474 -0.25332,12.30312 -0.0845,4.43839 -0.20821,10.09386 -0.27502,12.56771 -0.3241,12.00123 -0.40132,14.99458 -0.53239,20.6375 -0.0777,3.34698 -0.19803,7.45464 -0.26732,9.12813 -0.0693,1.67349 -0.18728,5.36443 -0.26222,8.20208 -0.0749,2.83766 -0.18999,6.82625 -0.25567,8.86354 -0.0657,2.03729 -0.18578,6.02589 -0.2669,8.86354 -0.0811,2.83766 -0.2008,6.70719 -0.26594,8.59896 -0.59388,17.24648 -0.57617,25.00313 0.0571,25.00313 0.14026,0 3.11178,-2.06785 11.34832,-7.8972 1.470617,-1.04081 2.869602,-1.89239 3.108858,-1.89239 1.205322,0 0.227705,0.96496 -8.282478,8.17522 -3.33839,2.82846 -3.31623,2.79158 -1.20438,2.00352 1.01864,-0.38011 4.1738,-1.64509 7.01145,-2.81105 7.519473,-3.08967 10.274216,-3.93354 11.112504,-3.40413 0.591033,0.37326 -0.003,0.83821 -2.38125,1.86396 -1.091406,0.47072 -3.234531,1.53868 -4.7625,2.37325 -6.067694,3.31414 -8.425534,4.62852 -8.380994,4.67199 0.0699,0.0682 23.980213,0.33863 43.173701,0.48828 9.313333,0.0726 24.136614,0.1908 32.940624,0.26262 8.80401,0.0718 25.6513537,0.192 37.4385408,0.26708 11.7871872,0.0751 29.2298432,0.19441 38.7614572,0.2652 9.531614,0.0708 27.033801,0.18843 38.893749,0.26145 26.910678,0.16566 58.439578,0.37403 80.697918,0.5333 9.38609,0.0672 28.49562,0.18358 42.46562,0.25871 13.97,0.0751 33.49625,0.19489 43.39167,0.26615 9.89541,0.0713 29.3026,0.18992 43.12708,0.26369 32.62271,0.17409 71.42518,0.44146 71.48235,0.49255 0.0247,0.022 2.79275,0.0401 6.15131,0.0401 h 6.10646 z m -501.93582,-53.57813 c 0.49657,-8.94215 0.90254,-16.47295 1.07688,-19.97604 0.0724,-1.45521 0.18786,-3.36021 0.25654,-4.23333 0.0687,-0.87313 0.19177,-3.07578 0.27356,-4.89479 0.0818,-1.81901 0.25815,-5.21229 0.39191,-7.54063 0.13377,-2.32833 0.31004,-5.60255 0.39172,-7.27604 0.0817,-1.67349 0.21107,-3.6503 0.28752,-4.39292 l 0.139,-1.35022 -1.65389,-0.46406 c -0.90964,-0.25523 -1.79173,-0.51695 -1.96021,-0.5816 -0.22357,-0.0858 -0.28292,0.6544 -0.21971,2.74032 0.0476,1.57182 0.0899,3.71766 0.0939,4.76852 l 0.007,1.91066 0.85949,0.22272 c 0.47272,0.1225 0.89763,0.42077 0.94425,0.66284 0.0778,0.40421 -0.61746,1.25738 -1.55471,1.9077 -0.32889,0.2282 -0.36681,3.84822 -0.27579,26.32604 0.069,17.02691 0.18051,24.91494 0.32182,22.75417 0.11896,-1.81901 0.39811,-6.58151 0.62034,-10.58334 z m 1.42223,-52.80665 c 0.77638,-0.10129 1.45209,-0.31631 1.50158,-0.47782 0.0495,-0.16151 0.16194,-1.96053 0.24989,-3.99782 0.088,-2.03729 0.21367,-4.23994 0.27936,-4.89479 0.0657,-0.65484 0.18134,-2.37813 0.25698,-3.82952 0.12734,-2.44337 0.107,-2.59531 -0.27458,-2.05052 -0.52062,0.74328 -1.2926,0.73993 -2.6057,-0.0113 -2.29982,-1.31573 -1.91885,-2.13762 1.00218,-2.16206 l 1.95994,-0.0164 0.1599,-1.16141 c 0.0879,-0.63877 0.1599,-1.68057 0.1599,-2.3151 0,-1.09633 -0.0381,-1.1537 -0.76633,-1.1537 -0.42149,0 -1.61211,-0.34419 -2.64584,-0.76487 l -1.8795,-0.76486 0.002,6.51955 0.002,6.51956 1.58944,0.0167 c 0.87418,0.009 1.71876,0.14602 1.87683,0.30409 0.82573,0.82573 -0.96141,2.32722 -2.5493,2.14184 l -0.86217,-0.10065 0.0372,4.32114 c 0.036,4.17886 0.0546,4.31688 0.56638,4.19162 0.29104,-0.0712 1.16439,-0.21239 1.94076,-0.31368 z m 3.09445,-28.00935 c 0.1789,-2.2258 0.16347,-2.34026 -0.25856,-1.91823 -0.5422,0.5422 -1.35592,0.55319 -3.45373,0.0466 -0.87313,-0.21082 -1.6768,-0.38518 -1.78594,-0.38745 -0.10914,-0.002 -0.19844,1.00373 -0.19844,2.23557 v 2.2397 l 2.71198,0.0754 c 1.49159,0.0415 2.73053,0.0754 2.75321,0.0754 0.0227,0 0.12684,-1.06517 0.23148,-2.36705 z m 0.38897,-5.98908 c -2.2e-4,-1.73011 -0.006,-1.74341 -0.86011,-2.02553 -0.47295,-0.15619 -1.84217,-0.70797 -3.04271,-1.22618 l -2.18282,-0.9422 3.8e-4,2.96773 3.7e-4,2.96772 h 3.04255 3.04255 z m -0.82843,-7.82786 c -0.1269,-0.67926 -0.29835,-1.30264 -0.38099,-1.38528 -0.0826,-0.0826 -1.2136,-0.51988 -2.51324,-0.97163 l -2.36298,-0.82137 v 2.20665 2.20666 h 2.74397 2.74397 z m -0.10546,-5.63179 c 0.0857,-0.13873 -0.35372,-0.38944 -0.97657,-0.55713 -0.62286,-0.1677 -1.82385,-0.52006 -2.66886,-0.78304 l -1.5364,-0.47814 0.0812,0.83684 c 0.0732,0.75423 0.18564,0.85271 1.13952,0.99772 1.72847,0.26277 3.79391,0.2543 3.96112,-0.0162 z m -0.12466,-4.62092 c 0,-0.0609 0.0717,-0.297435 0.15928,-0.525728 0.13844,-0.360768 -0.19044,-0.413033 -2.51354,-0.399438 -2.09407,0.01225 -2.67283,0.09504 -2.67283,0.38231 0,0.273204 0.52269,0.389656 2.05053,0.456846 1.12778,0.0496 2.25888,0.11413 2.51354,0.14342 0.25466,0.0293 0.46302,0.003 0.46302,-0.0574 z"
         id="path4" /><path
         style="fill:#a99269"
         d="m -87.097522,247.73384 c 0.190996,-0.0764 0.419199,-0.067 0.507118,0.0209 0.08792,0.0879 -0.06835,0.15046 -0.347266,0.13897 -0.308224,-0.0127 -0.370919,-0.0754 -0.159852,-0.15986 z m 1.322916,0 c 0.190996,-0.0764 0.4192,-0.067 0.507118,0.0209 0.08792,0.0879 -0.06835,0.15046 -0.347265,0.13897 -0.308225,-0.0127 -0.370919,-0.0754 -0.159853,-0.15986 z M -123.03125,99.483335 c 0,-0.145521 0.12609,-0.264583 0.2802,-0.264583 0.15411,0 0.20662,0.119062 0.11668,0.264583 -0.0899,0.145521 -0.21603,0.264583 -0.2802,0.264583 -0.0642,0 -0.11668,-0.119062 -0.11668,-0.264583 z"
         id="path3" /><path
         style="fill:#88754e"
         d="m 368.58546,236.38316 c 0.0127,-0.30822 0.0754,-0.37092 0.15985,-0.15985 0.0764,0.19099 0.067,0.4192 -0.0209,0.50712 -0.0879,0.0879 -0.15046,-0.0684 -0.13897,-0.34727 z m -490.00832,-41.80417 c 0.0127,-0.30822 0.0754,-0.37091 0.15986,-0.15985 0.0764,0.191 0.067,0.4192 -0.0209,0.50712 -0.0879,0.0879 -0.15046,-0.0684 -0.13897,-0.34727 z"
         id="path2" /><path
         style="fill:#7b694a"
         d="m 360.89166,258.58895 c -0.65485,-0.37421 -1.96453,-1.13065 -2.91042,-1.68099 -2.60092,-1.51326 -6.44147,-3.2508 -7.27604,-3.29183 -0.14552,-0.007 -0.30263,-0.28089 -0.34913,-0.60832 -0.187,-1.3167 2.00912,-0.70158 10.13871,2.83979 2.91042,1.26782 5.76792,2.55613 6.35,2.8629 l 1.05834,0.55778 -2.91042,5.2e-4 c -2.6415,4.8e-4 -3.02043,-0.0623 -4.10104,-0.67985 z m 9.26041,-0.84742 v -1.55014 l -3.77031,-2.3872 c -2.07367,-1.31296 -4.45763,-2.77142 -5.29769,-3.24102 -2.03204,-1.13593 -2.64645,-2.22284 -1.42923,-2.52834 0.75592,-0.18973 2.65317,0.62701 6.80781,2.93064 1.69781,0.94139 3.17695,1.71161 3.28697,1.71161 0.11002,0 0.12705,-0.8632 0.0378,-1.91822 -0.0892,-1.05503 -0.22403,-3.04933 -0.2996,-4.43178 -0.0756,-1.38244 -0.19563,-3.10885 -0.26682,-3.83645 -0.0712,-0.72761 -0.24482,-2.87073 -0.38583,-4.7625 -0.14102,-1.89177 -0.31803,-4.09443 -0.39336,-4.8948 -0.17477,-1.85687 -0.60657,-7.40491 -0.80309,-10.31875 -0.0834,-1.23692 -0.26148,-3.55864 -0.39568,-5.15937 -0.13419,-1.60073 -0.31043,-3.86292 -0.39165,-5.02708 -0.0812,-1.16417 -0.20678,-2.71198 -0.27905,-3.43959 -0.0723,-0.7276 -0.30588,-3.46604 -0.51913,-6.08541 -0.21325,-2.61938 -1.10463,-13.45407 -1.98084,-24.07709 -0.87622,-10.62302 -2.18408,-26.63692 -2.90636,-35.58646 -0.72228,-8.94953 -1.36855,-16.89695 -1.43615,-17.66093 -0.10666,-1.2053 -0.0601,-1.38907 0.35186,-1.38907 0.62014,0 0.23661,-2.99307 4.50928,35.18959 1.1643,10.40474 2.18477,19.57255 2.26771,20.37291 0.0829,0.80037 0.31648,2.82443 0.51897,4.49792 0.20248,1.67349 0.55704,4.82865 0.78789,7.01146 0.23085,2.18281 0.59205,5.3975 0.80266,7.14375 0.2106,1.74625 0.45087,3.88937 0.53392,4.7625 0.0831,0.87312 0.19642,1.76609 0.25192,1.98437 0.0555,0.21829 0.17327,1.17079 0.26168,2.11667 0.0884,0.94589 0.32743,3.08901 0.53115,4.7625 0.98302,8.0752 1.22192,10.09775 1.4532,12.30313 0.13734,1.30968 0.36503,3.33375 0.50598,4.49791 0.14094,1.16417 0.32677,2.71198 0.41294,3.43959 0.40435,3.41404 0.72026,5.97631 0.94601,7.67291 0.13554,1.01865 0.30897,2.4474 0.3854,3.175 0.32918,3.13372 1.43298,11.37599 1.67245,12.48849 0.13557,0.62978 0.55475,1.10663 1.6355,1.86051 0.79926,0.55753 1.4926,1.21826 1.54075,1.46828 0.08,0.41541 -0.30188,0.4546 -4.42977,0.4546 h -4.51732 z m -470.54732,-1.5657 -4.21921,-0.0731 4.3515,-2.41425 c 2.393329,-1.32783 5.908224,-3.17296 7.81088,-4.10027 l 3.459375,-1.68603 4.17487,-0.0108 c 4.052775,-0.0104 4.205018,0.009 5.205729,0.67143 1.315793,0.87075 1.340745,1.59794 0.132995,3.87595 l -0.897864,1.69352 1.493177,0.64892 c 0.821247,0.35691 1.850364,0.87017 2.286926,1.14059 0.780694,0.48357 0.626191,0.49031 -9.392708,0.40941 -5.602552,-0.0452 -12.085103,-0.11516 -14.40567,-0.15538 z m -7.29016,-3.2197 c 4.2761,-3.8695 5.23891,-4.38918 11.757868,-6.3464 6.594244,-1.97982 10.319761,-1.92457 8.752365,0.12981 -0.322362,0.42251 -0.434874,0.44818 -0.634491,0.14473 -0.178468,-0.2713 -0.54719,-0.32191 -1.394091,-0.19136 -1.348147,0.20783 -6.322234,1.70442 -6.707695,2.01819 -0.233703,0.19025 -7.556966,3.21619 -11.509376,4.75564 l -1.45521,0.5668 z m -4.36563,-0.27905 c 0.0899,-0.14552 0.28259,-0.26458 0.42811,-0.26458 0.14552,0 0.191,0.11906 0.10106,0.26458 -0.0899,0.14553 -0.28258,0.26459 -0.42811,0.26459 -0.14552,0 -0.19099,-0.11906 -0.10106,-0.26459 z m -10.77912,-60.48199 c -0.0598,-22.05887 -0.0181,-25.40713 0.3191,-25.61887 0.83898,-0.52683 1.62865,-1.51063 1.54814,-1.92871 -0.0466,-0.24207 -0.47153,-0.54034 -0.94425,-0.66284 l -0.85949,-0.22272 -0.0169,-3.89503 c -0.009,-2.14228 -0.0538,-4.26677 -0.0989,-4.72109 l -0.082,-0.82605 1.48585,0.38801 c 2.17212,0.56722 2.47418,0.77778 2.3142,1.61321 -0.0747,0.39007 -0.20357,2.13796 -0.28639,3.88421 -0.29279,6.1727 -1.03043,19.73978 -1.33065,24.47396 -0.27438,4.32664 -0.41691,6.98633 -0.67347,12.56771 -0.14716,3.20145 -0.31291,6.29708 -0.36833,6.87916 -0.0554,0.58209 -0.17489,2.54662 -0.26549,4.36563 -0.36015,7.23122 -0.46339,8.86789 -0.56588,8.97113 -0.0587,0.0592 -0.13777,-11.31129 -0.17561,-25.26771 z m -0.088,-43.81794 -0.0192,-4.31152 1.13015,0.0917 c 0.92957,0.0754 1.24994,-0.0281 1.80514,-0.58329 0.37125,-0.37125 0.675,-0.86195 0.675,-1.09045 0,-0.53987 -1.05915,-0.93152 -2.51913,-0.93152 h -1.16178 l -0.008,-6.45508 -0.008,-6.45509 1.86786,0.78479 c 1.02733,0.43164 2.21633,0.7947 2.64222,0.80681 0.7436,0.0212 0.77358,0.0703 0.75475,1.23853 -0.0108,0.66908 -0.10008,1.69275 -0.19844,2.27484 l -0.17882,1.05833 h -1.90531 c -2.22587,0 -2.74202,0.30218 -2.21099,1.29442 0.20781,0.38829 0.88275,0.85129 1.70122,1.16703 l 1.35674,0.52337 0.63046,-0.56637 0.63046,-0.56637 -0.15468,0.92604 c -0.0851,0.50933 -0.23349,2.77152 -0.32981,5.02709 -0.0963,2.25557 -0.21451,4.16828 -0.26266,4.25047 -0.0481,0.0822 -0.11009,1.17252 -0.13765,2.42296 -0.0276,1.25045 -0.12346,2.38708 -0.21311,2.52583 -0.0897,0.13876 -0.75832,0.33689 -1.48592,0.44029 -0.72761,0.10341 -1.56105,0.24441 -1.85209,0.31335 -0.51206,0.12129 -0.52978,-0.014 -0.54837,-4.18617 z m -0.11309,-24.16031 c 0,-2.20115 0.014,-2.25083 0.59532,-2.11881 3.63778,0.82612 4.54583,0.86373 4.96489,0.20562 0.22887,-0.35943 0.26193,-0.13743 0.14774,0.99218 -0.0809,0.80037 -0.14813,1.84217 -0.1494,2.31511 l -0.002,0.85989 h -2.77812 -2.77813 z m 448.66593,0.20347 c -1.36454,-1.42738 -2.26318,-5.09323 -1.24855,-5.09323 0.14381,0 0.76338,1.01204 1.37684,2.24896 0.61345,1.23693 1.20484,2.24896 1.31419,2.24896 0.27521,0 0.83079,-1.15217 1.49885,-3.10835 1.04206,-3.0513 1.8414,-9.78698 1.92323,-16.20623 l 0.0455,-3.57188 13.38751,0.0661 c 7.36313,0.0364 14.1222,0.0959 15.02016,0.13229 l 1.63265,0.0662 -0.81162,1.67497 c -1.04529,2.15719 -2.15389,2.69548 -3.37326,1.63793 -0.33202,-0.28796 -1.03273,-0.60406 -1.55713,-0.70243 -1.52487,-0.28607 -18.0718,0.19542 -19.24692,0.56005 -0.16081,0.0499 -0.36516,0.53924 -0.45412,1.08743 -0.55247,3.40448 -3.22914,11.50911 -5.04817,15.28526 -1.46628,3.04387 -2.48255,4.40158 -3.29467,4.40158 -0.25793,0 -0.78196,-0.32742 -1.16452,-0.72761 z m -445.82165,-4.50686 -2.84428,-0.0751 v -2.87633 -2.87633 l 2.76581,1.16549 c 1.52119,0.64102 2.8904,1.16549 3.0427,1.16549 0.31599,0 0.39156,3.36111 0.0785,3.49011 -0.10914,0.045 -1.47836,0.048 -3.0427,0.007 z m 86.940774,-8.40298 c -0.08617,-0.22456 -0.1122,-0.44537 -0.05784,-0.4907 0.111702,-0.0931 2.139668,-0.95048 16.907068,-7.14763 l 10.4582358,-4.388805 4.7553051,0.0095 4.7553051,0.0095 -8.0697914,2.739645 c -7.6684016,2.60337 -14.2963926,4.90341 -23.6287676,8.19963 -2.300041,0.81239 -4.357606,1.47706 -4.572366,1.47706 -0.21476,0 -0.460977,-0.18373 -0.547147,-0.40828 z m -89.785054,-1.82506 c 0,-1.08282 0.10313,-2.0325 0.22917,-2.1104 0.23082,-0.14265 4.23203,1.08671 4.59715,1.41246 0.10786,0.0962 0.30085,0.7356 0.42886,1.42083 l 0.23276,1.24587 h -2.74397 -2.74397 z m 74.414065,-1.65755 c -0.879284,-0.16936 -0.754427,-1.04032 0.221481,-1.54498 0.449237,-0.23231 4.586659,-1.9375 9.194271,-3.7893 l 8.377477,-3.366923 2.468152,0.055 c 1.357483,0.03025 2.519237,0.106083 2.581675,0.168521 0.121236,0.121236 -4.549297,1.860282 -14.177952,5.279072 -3.274219,1.16256 -6.280547,2.2329 -6.680729,2.37855 -0.400182,0.14564 -0.727604,0.43175 -0.727604,0.63579 0,0.37272 -0.158053,0.39589 -1.256771,0.18427 z m -73.223435,-3.22426 c -0.95735,-0.14554 -1.06616,-0.24179 -1.14035,-1.0088 l -0.082,-0.8479 1.53722,0.50386 c 0.84547,0.27713 2.06369,0.63902 2.70716,0.8042 2.2493,0.57742 -0.0668,0.9979 -3.02202,0.54864 z m 1.25677,-4.73565 c -1.20055,-0.0423 -2.18281,-0.191097 -2.18281,-0.330732 0,-0.309318 -0.0456,-0.301819 2.30183,-0.378161 1.48718,-0.04837 1.93824,0.0248 2.05675,0.333616 0.0835,0.217562 0.11922,0.408287 0.0794,0.423847 -0.0398,0.0156 -1.05464,-0.006 -2.25519,-0.0486 z"
         id="path1" /></g></g></svg>
