<?xml version="1.0" encoding="UTF-8" standalone="no"?>
<!-- Created with Inkscape (http://www.inkscape.org/) -->

<svg
   width="105.0312mm"
   height="95.109917mm"
   viewBox="0 0 116.70133 105.67769"
   version="1.1"
   id="svg1"
   xml:space="preserve"
   inkscape:export-filename="OneUPicon.svg"
   inkscape:export-xdpi="96"
   inkscape:export-ydpi="96"
   xmlns:inkscape="http://www.inkscape.org/namespaces/inkscape"
   xmlns:sodipodi="http://sodipodi.sourceforge.net/DTD/sodipodi-0.dtd"
   xmlns="http://www.w3.org/2000/svg"
   xmlns:svg="http://www.w3.org/2000/svg"><sodipodi:namedview
     id="namedview1"
     pagecolor="#ffffff"
     bordercolor="#000000"
     borderopacity="0.25"
     inkscape:showpageshadow="2"
     inkscape:pageopacity="0.0"
     inkscape:pagecheckerboard="0"
     inkscape:deskcolor="#d1d1d1"
     inkscape:document-units="mm"><inkscape:page
       x="0"
       y="0"
       width="116.70133"
       height="105.67769"
       id="page2"
       margin="0"
       bleed="0" /></sodipodi:namedview><defs
     id="defs1" /><g
     inkscape:label="Layer 1"
     inkscape:groupmode="layer"
     id="layer1"
     transform="translate(-52.631963,-100.90407)"><g
       id="g1"
       transform="translate(7.5179397,4.6264261)"><path
         style="fill:#e6fde2"
         d="m 100.14479,189.28855 c -5.307674,-0.49703 -6.862416,-1.03993 -8.737491,-3.05107 l -0.787509,-0.84465 0.882063,0.63536 c 1.134421,0.81713 2.902067,0.86705 3.760336,0.10619 1.459069,-1.29348 2.554277,-5.14746 1.841341,-6.47959 -0.644667,-1.20457 -2.870523,-1.75569 -4.924556,-1.2193 -0.845162,0.2207 -1.575786,0.36215 -1.623608,0.31432 -0.205467,-0.20546 2.652221,-3.3112 4.071043,-4.42441 1.904983,-1.49464 5.383331,-3.7601 5.537111,-3.60632 0.0622,0.0622 0.17903,1.23432 0.25968,2.60479 0.21798,3.70371 0.31999,4.10701 1.30228,5.14854 1.12984,1.19798 1.65354,0.99376 2.54527,-0.99258 0.5689,-1.26721 0.62873,-1.76871 0.63244,-5.30114 l 0.004,-3.90151 2.11667,-0.76414 c 3.70913,-1.33904 6.2932,-2.08909 9.53886,-2.76874 3.4759,-0.72787 8.28058,-1.35992 8.51973,-1.12078 0.20506,0.20506 0.14664,1.70725 -0.23511,6.04549 -0.31892,3.62418 -0.31734,3.64875 0.30592,4.7625 0.79351,1.418 1.15573,1.78099 1.77717,1.78099 0.27362,0 0.68004,-0.14883 0.90316,-0.33073 0.7532,-0.61407 1.58214,-3.1328 1.83738,-5.5829 0.2264,-2.17323 0.107,-6.07543 -0.20157,-6.58793 -0.32367,-0.53756 9.23545,0.37721 10.2053,0.97661 0.13555,0.0838 0.74702,1.19312 1.35882,2.4652 1.1098,2.30755 1.11164,2.31645 0.79887,3.86408 -0.62425,3.08892 -2.15328,5.7489 -4.82772,8.39854 -4.87425,4.82906 -11.83438,7.86561 -21.51415,9.38615 -2.5036,0.39328 -12.84289,0.72142 -15.34583,0.48703 z m 34.77438,-9.4117 c 1.1985,-1.50525 1.99213,-3.7487 1.71572,-4.85002 -0.11248,-0.44816 -0.50401,-0.86292 -1.06887,-1.13228 -0.82292,-0.39242 -1.00108,-0.39048 -2.31981,0.0252 -1.51513,0.4776 -3.19559,2.03885 -3.5,3.25172 -0.33872,1.34957 2.05355,4.00941 3.64743,4.0554 0.24228,0.007 0.92877,-0.60053 1.52553,-1.35003 z M 68.997153,162.25573 c -1.374763,-2.38159 -2.436335,-5.06466 -3.222282,-8.14416 -0.414806,-1.6253 -0.482709,-1.9948 -1.092509,-5.9449 -0.478505,-3.09961 -0.323578,-11.50968 0.272946,-14.81667 0.249371,-1.38245 0.497771,-2.56073 0.552001,-2.6184 0.298803,-0.31779 2.417393,1.56271 3.626131,3.21861 2.408811,3.29995 3.232572,4.75709 4.531512,8.01573 1.493694,3.74721 2.00588,6.14855 2.00588,9.40439 0,3.35368 -0.772878,6.26801 -2.306458,8.6971 -0.919905,1.45707 -2.919006,3.70965 -3.292205,3.70965 -0.108252,0 -0.592008,-0.6846 -1.075016,-1.52135 z m 32.205967,-12.3714 c -4.232125,-0.6931 -6.879897,-2.00446 -9.069319,-4.49178 -2.071134,-2.35293 -4.14127,-7.30931 -4.808812,-11.51338 -0.39591,-2.49338 -0.33835,-8.04597 0.110065,-10.61737 0.865311,-4.96206 3.834532,-11.75996 6.280797,-14.3796 l 1.401856,-1.5012 2.513541,-0.38235 c 1.382448,-0.21029 4.503602,-0.45788 6.935892,-0.55021 l 4.42235,-0.16786 1.79536,0.85684 c 5.20762,2.48536 7.48931,4.03967 10.44806,7.11733 5.06782,5.27147 7.86168,12.53686 7.11399,18.49981 -1.12617,8.98133 -8.40892,15.52739 -19.07399,17.14453 -3.00663,0.45589 -5.22066,0.45184 -8.06979,-0.0148 z m 39.02643,-24.10608 c -1.41739,-1.28052 -3.33468,-4.2102 -3.97688,-6.07679 -0.54325,-1.57898 -0.67446,-2.75563 -0.3073,-2.75563 0.44135,0 3.88958,4.34094 5.32824,6.70765 0.48147,0.79206 0.54346,1.06608 0.27825,1.22999 -0.22374,0.13828 -0.28472,0.49338 -0.17712,1.03142 0.0903,0.45129 0.1079,0.82053 0.0392,0.82053 -0.0687,0 -0.60168,-0.43073 -1.18439,-0.95717 z"
         id="path7" /><path
         style="fill:#f5b5d5"
         d="m 92.08258,186.34547 c -1.12252,-0.58136 -2.908018,-3.33315 -3.102231,-4.78111 -0.210357,-1.56833 0.740078,-2.52588 3.075095,-3.09811 1.84768,-0.4528 2.35294,-0.4152 3.918586,0.29155 1.056492,0.47691 1.392635,1.07315 1.392635,2.4702 0,1.22693 -1.220037,4.12292 -2.043883,4.85154 -0.803322,0.71047 -2.165942,0.82231 -3.240202,0.26593 z m 39.96344,-5.58161 c -1.14246,-0.56715 -2.5193,-2.71783 -2.29981,-3.59238 0.30441,-1.21287 1.98487,-2.77412 3.5,-3.25172 1.31873,-0.41569 1.49689,-0.41763 2.31981,-0.0252 1.13957,0.54343 1.36825,1.42023 0.84227,3.22953 -0.45266,1.5571 -2.33754,4.12233 -3.01465,4.1028 -0.24229,-0.007 -0.84871,-0.21535 -1.34762,-0.46302 z"
         id="path6" /><path
         style="fill:#a6b3a4"
         d="m 91.991105,188.11427 c -3.34116,-0.75884 -5.819944,-1.64532 -6.424391,-2.29753 -0.321649,-0.34706 -0.872518,-0.60841 -1.282425,-0.60841 -1.607236,0 -5.120635,-3.08209 -6.732785,-5.90627 -1.386845,-2.42949 -1.3659,-2.58023 0.547341,-3.93927 2.743141,-1.94855 6.484294,-4.12387 10.139695,-5.89579 5.20406,-2.52261 11.392047,-4.99991 11.82335,-4.73335 0.11836,0.0731 0.21519,1.40784 0.21519,2.96598 v 2.83299 l -1.471699,0.88026 c -2.946454,1.76235 -5.628865,4.02548 -7.752398,6.54061 -2.519567,2.98421 -2.572118,3.23728 -1.213499,5.84381 1.107584,2.12492 1.652442,2.75462 3.422608,3.95553 0.725661,0.4923 1.201911,0.88071 1.058333,0.86314 -0.143578,-0.0176 -1.191773,-0.24334 -2.32932,-0.5017 z m 49.120135,-20.76531 c -0.46074,-1.01865 -0.9973,-2.06369 -1.19235,-2.32232 -0.418,-0.55425 -5.89223,-1.50515 -8.69699,-1.51071 l -1.73122,-0.003 -0.51047,-2.23331 c -0.42179,-1.84534 -0.62143,-2.28388 -1.14919,-2.52434 -1.00936,-0.45989 -2.8961,-0.065 -3.40578,0.7129 -0.39873,0.60854 -0.3903,0.76894 0.12339,2.34895 0.49919,1.53537 0.50981,1.69629 0.1123,1.70097 -1.2393,0.0146 -6.38685,0.83135 -9.16175,1.45371 -1.73295,0.38866 -4.8216,1.2845 -6.86369,1.99075 -2.04208,0.70625 -3.75562,1.24135 -3.80786,1.18912 -0.0722,-0.0722 -1.11097,-4.55325 -1.11097,-4.7926 0,-0.15801 5.15687,-1.60818 9.30639,-2.61706 9.82663,-2.38917 18.09355,-3.37501 23.52908,-2.80588 1.64766,0.17252 3.1411,0.4343 3.31875,0.58174 0.17765,0.14744 0.438,0.76609 0.57856,1.37479 0.14056,0.60869 0.57153,2.3243 0.95773,3.81246 0.4474,1.72405 0.67307,3.21198 0.62197,4.10104 l -0.0802,1.3953 z m -82.363442,0.32415 c -0.769783,-0.38954 -0.864064,-0.75608 -1.5806,-6.14498 -1.056758,-7.94764 -0.45135,-17.10919 1.60853,-24.34167 0.905391,-3.17894 2.117118,-6.17594 2.566777,-6.34849 0.237149,-0.091 1.174018,-0.23482 2.08193,-0.31961 1.305588,-0.12191 1.681743,-0.0734 1.798974,0.23212 0.08152,0.21245 -0.04794,1.4498 -0.287702,2.74967 -0.578968,3.1389 -0.725286,11.60943 -0.253345,14.66652 0.6098,3.9501 0.677703,4.3196 1.092509,5.9449 0.844032,3.30708 2.526053,7.33102 3.830694,9.16426 l 0.490596,0.68936 -1.115269,0.79757 c -1.439988,1.02979 -4.178504,2.40492 -5.722729,2.87364 -1.504191,0.45656 -3.646213,0.474 -4.510365,0.0367 z"
         id="path5" /><path
         style="fill:#5bc44d"
         d="m 80.709554,168.81664 c -0.211881,-0.13385 -1.362046,-0.24065 -2.555924,-0.23732 -2.56886,0.007 -4.075463,-0.54767 -5.797536,-2.13502 l -1.119562,-1.03197 1.191703,-1.14835 c 3.184537,-3.06869 4.884315,-6.55543 5.398001,-11.07289 0.52242,-4.59425 -0.426072,-9.14188 -3.062148,-14.68171 -2.376115,-4.99352 -4.638831,-8.09751 -6.98231,-9.57832 -0.82701,-0.52258 -1.537784,-0.97677 -1.579498,-1.00932 -0.04171,-0.0326 0.169929,-0.69975 0.470318,-1.48265 2.28181,-5.94708 3.187257,-7.29986 6.588024,-9.84278 4.117536,-3.0789 10.517703,-6.15973 16.331916,-7.86166 l 2.413452,-0.70646 -0.652682,0.95309 c -0.862839,1.25998 -2.988719,5.52001 -3.892896,7.80095 -0.396971,1.00142 -1.029218,3.14454 -1.404994,4.7625 -0.589053,2.53625 -0.686265,3.57995 -0.705261,7.57194 -0.02514,5.2831 0.34357,7.55982 1.863712,11.50808 2.403478,6.24256 5.629724,9.48443 11.088328,11.14205 2.189033,0.66474 2.738673,0.72172 7.134263,0.73954 5.32445,0.0216 7.28135,-0.32258 11.61285,-2.04231 2.89951,-1.15119 4.79194,-2.44373 7.43115,-5.07549 4.35845,-4.34614 6.13229,-9.01484 5.8808,-15.47812 -0.19822,-5.09425 -1.77877,-9.61887 -4.89851,-14.02292 -1.64706,-2.32511 -5.06947,-5.71193 -7.32629,-7.25012 -1.01865,-0.69427 -1.61396,-1.19553 -1.32292,-1.11391 2.90512,0.8148 6.19886,1.93706 7.93729,2.70443 1.16428,0.51394 2.47406,1.06261 2.91063,1.21926 0.43656,0.15666 1.30573,0.62451 1.93149,1.03967 0.62576,0.41516 1.19613,0.75484 1.26748,0.75484 0.15664,0 1.53842,0.95967 2.59745,1.80397 0.72401,0.57722 0.76619,0.71748 0.71599,2.38125 -0.0662,2.19348 0.35895,3.62567 1.82538,6.14943 1.51308,2.60403 3.85748,4.88138 6.38762,6.20493 1.39935,0.73202 2.35231,1.46039 3.11142,2.37813 l 1.09425,1.32291 -0.86659,0.16361 c -0.82973,0.15665 -0.81876,0.16509 0.2579,0.19844 0.61846,0.0192 1.12448,0.12534 1.12448,0.23597 0,0.11063 0.27514,0.49787 0.61142,0.86053 2.11875,2.28497 4.45354,7.06841 5.3507,10.9623 0.95502,4.14505 -0.71283,11.50139 -3.95694,17.45278 -0.69326,1.27182 -1.30228,2.27059 -1.35337,2.2195 -0.0511,-0.0511 0.0236,-0.61124 0.16592,-1.24478 0.17302,-0.77006 0.1682,-1.42645 -0.0145,-1.98014 -0.18432,-0.55848 -0.18728,-1.12835 -0.009,-1.74961 0.42068,-1.46683 0.31811,-2.76938 -0.27774,-3.52688 -0.82302,-1.0463 -4.06883,-2.5278 -6.4789,-2.95719 -2.46126,-0.43851 -8.48879,-0.50281 -11.89682,-0.12691 -11.4478,1.26267 -27.04641,6.00954 -38.761462,11.79562 -2.546614,1.25778 -5.285052,2.43789 -6.085416,2.62247 -2.474104,0.57057 -3.29278,0.66117 -3.692528,0.40864 z"
         id="path4" /><path
         style="fill:#599451"
         d="m 71.701071,184.92784 c -2.095088,-0.18044 -4.454448,-1.35271 -6.517639,-3.23835 -2.585373,-2.36289 -4.296903,-5.23466 -5.884765,-9.87402 -0.96737,-2.82643 -1.036526,-3.4073 -0.36273,-3.04672 2.117054,1.13291 6.85387,0.14127 10.516296,-2.20155 0.806506,-0.51592 1.6193,-0.93803 1.806209,-0.93803 0.18691,0 0.736064,0.4088 1.220344,0.90845 1.364222,1.40752 3.126556,2.04374 5.661179,2.04374 1.177897,0 2.350869,0.11198 2.606603,0.24885 0.306734,0.16416 1.120422,0.1121 2.390972,-0.15297 1.0593,-0.22099 2.043092,-0.4019 2.186204,-0.40202 0.143113,-1.2e-4 -0.971332,0.74392 -2.476543,1.65343 -1.505211,0.9095 -4.025246,2.6274 -5.600078,3.81755 -1.574832,1.19014 -3.096621,2.28875 -3.381754,2.44135 -0.681303,0.36462 -1.898703,2.4607 -1.898703,3.26911 0,0.80096 0.252237,1.06422 0.679737,0.70942 0.250798,-0.20814 0.536487,0.13073 1.172978,1.39136 0.462785,0.91659 1.05097,1.90464 1.307078,2.19569 0.904045,1.02736 0.864705,1.13548 -0.447975,1.23124 -0.691135,0.0504 -2.030971,0.025 -2.977413,-0.0565 z m 71.965819,-16.86346 c -0.005,-2.52808 -1.87087,-8.17969 -2.74454,-8.31207 -0.27681,-0.0419 -0.60736,-0.3594 -0.73454,-0.70545 -0.21996,-0.59851 -0.18911,-0.62094 0.63266,-0.46012 1.58683,0.31054 2.95031,1.2238 3.47107,2.32493 0.65837,1.3921 1.56195,1.98155 2.43075,1.5857 0.35784,-0.16304 0.66034,-0.50735 0.67221,-0.76513 0.0131,-0.2836 0.1748,-0.11756 0.40956,0.42044 0.87451,2.0041 -0.47693,4.7007 -3.16165,6.30858 l -0.97366,0.58313 z m 1.79088,-34.37234 c 0.32912,-0.0633 0.80537,-0.0609 1.05833,0.005 0.25297,0.0662 -0.0163,0.118 -0.59839,0.11506 -0.58209,-0.003 -0.78906,-0.0571 -0.45994,-0.1204 z m -81.124204,-5.87527 -1.415392,-0.15531 1.188467,-1.73264 c 0.653657,-0.95295 1.64777,-2.26264 2.209142,-2.91042 1.176902,-1.35805 3.798799,-4.03998 3.798799,-3.88578 0,0.0573 -0.535781,1.04432 -1.190625,2.19342 -0.654843,1.1491 -1.190625,2.2767 -1.190625,2.50578 0,0.22908 -0.100564,0.52962 -0.223475,0.66787 -0.122912,0.13824 -0.494616,0.99549 -0.82601,1.905 -0.331393,0.9095 -0.677313,1.63424 -0.768711,1.61052 -0.0914,-0.0237 -0.803105,-0.11302 -1.58157,-0.19844 z"
         id="path3" /><path
         style="fill:#000000"
         d="m 99.218748,195.87788 c -9.228686,-0.66596 -17.140155,-2.35393 -20.090554,-4.28647 -0.517942,-0.33926 -1.384319,-0.4328 -4.1074,-0.44346 -3.883881,-0.0152 -6.693126,-0.59496 -9.007253,-1.85885 -0.727604,-0.39739 -1.640106,-0.88643 -2.027783,-1.08676 -2.372994,-1.22624 -4.976649,-5.38103 -6.187155,-9.87317 -0.372531,-1.38245 -1.144676,-3.94229 -1.715878,-5.68854 -1.68841,-5.16172 -2.617711,-9.23871 -3.159126,-13.85957 -0.279017,-2.38135 -0.398871,-11.21363 -0.174556,-12.86335 0.05936,-0.43656 0.187953,-1.50813 0.285762,-2.38125 1.418145,-12.65959 7.066741,-23.68498 15.601646,-30.45258 2.608107,-2.06805 2.434933,-1.93885 3.72709,-2.78058 5.36782,-3.49668 12.558591,-6.39767 19.843749,-8.00561 5.10475,-1.12669 14.1321,-1.71122 18.78542,-1.21637 8.19269,0.87124 17.04278,4.25811 23.41562,8.96101 2.45236,1.80975 5.12861,4.48467 6.39356,6.3904 1.2298,1.85277 5.51269,9.80156 5.51269,10.23122 0,0.18019 0.75069,1.31178 1.66819,2.51465 2.2169,2.9064 3.31102,4.61075 5.07483,7.90528 3.54512,6.62174 4.29089,8.85491 4.54051,13.59633 0.14312,2.71853 0.1003,3.08486 -0.64947,5.55625 -1.01192,3.33545 -1.35685,4.26212 -2.55289,6.85852 -0.89016,1.93241 -1.33923,2.46939 -5.7529,6.87917 -4.25603,4.25227 -4.9017,5.01408 -5.81743,6.86386 -1.52716,3.08488 -2.86043,4.90483 -5.1622,7.04655 -5.41729,5.04059 -13.73366,8.94892 -23.62781,11.10404 -4.10436,0.89401 -9.91685,1.24287 -14.816662,0.88928 z M 115.6227,188.8007 c 14.0575,-2.13992 23.90056,-8.58827 26.0842,-17.08818 0.61734,-2.40304 0.395,-6.28169 -0.52315,-9.12606 -0.79419,-2.46035 -0.82833,-2.77813 -0.29851,-2.77813 0.82571,0 2.34719,4.28849 2.68245,7.56083 l 0.16714,1.63135 0.94103,-0.56119 c 1.23413,-0.73598 2.81163,-2.31886 3.68025,-3.69279 2.92891,-4.63279 4.89735,-11.11831 4.91175,-16.18299 0.006,-2.18234 -0.11539,-3.00615 -0.69417,-4.70274 -1.29185,-3.78686 -3.31492,-7.25968 -6.37753,-10.94775 -1.52164,-1.8324 -2.08887,-2.30396 -3.77188,-3.13575 -2.45511,-1.21338 -4.87466,-3.53043 -6.35378,-6.08459 -1.51859,-2.62232 -1.96993,-4.12904 -1.89831,-6.33713 l 0.0603,-1.85917 -2.17923,-1.47388 c -2.32086,-1.56966 -2.81399,-1.84238 -5.71471,-3.16047 -3.20752,-1.45749 -5.01937,-2.12644 -7.50143,-2.76961 -0.88532,-0.22941 -1.82187,-0.49142 -2.08121,-0.58225 -0.25934,-0.0908 0.42144,0.46843 1.51285,1.24278 5.30857,3.76644 9.40211,9.4331 11.27016,15.60119 0.84849,2.80161 1.13675,7.33785 0.64468,10.14485 -0.66189,3.77567 -2.59677,7.66343 -5.25769,10.56428 -2.6618,2.90181 -7.36614,5.54868 -11.976,6.73822 -2.48368,0.64089 -3.20079,0.70898 -7.38115,0.70086 -5.08635,-0.01 -7.248435,-0.40384 -10.094944,-1.83943 -4.824549,-2.4332 -8.096276,-7.55181 -9.797748,-15.32857 -0.569685,-2.60381 -0.418591,-10.0166 0.26965,-13.22917 0.899325,-4.19787 3.279801,-9.9666 5.368549,-13.00988 l 0.757473,-1.10363 -1.916595,0.53855 c -2.376463,0.66778 -6.565554,2.24358 -9.192636,3.45798 -6.557756,3.03141 -12.286829,7.68406 -16.610632,13.4897 -1.666214,2.23725 -1.671308,2.31476 -0.152571,2.32163 2.677615,0.0121 5.098655,1.73423 7.513504,5.34447 4.170202,6.23452 6.17996,12.04478 6.157252,17.80076 -0.01887,4.78206 -1.060414,8.00041 -3.661796,11.31484 -4.039371,5.14658 -11.320598,8.15804 -15.522462,6.41997 -0.394313,-0.1631 -0.369655,0.0714 0.203826,1.93884 2.130905,6.93874 5.305067,11.32142 9.717044,13.41665 1.80687,0.85808 2.150913,0.92984 4.52817,0.94438 1.415,0.009 2.625662,-0.0372 2.69036,-0.10189 0.0647,-0.0647 -0.14969,-0.45747 -0.476418,-0.87284 -0.326728,-0.41537 -1.039638,-1.5944 -1.584244,-2.62008 -0.544607,-1.02568 -0.993327,-1.71604 -0.997156,-1.53414 -0.0038,0.1819 -0.185554,0.33073 -0.403835,0.33073 -1.010667,0 0.281273,-3.3463 1.550035,-4.0148 0.311647,-0.16421 1.885949,-1.28692 3.498449,-2.49493 10.689139,-8.00776 26.805185,-14.73969 43.899435,-18.33747 6.10182,-1.28424 10.22362,-1.70027 15.21354,-1.53557 4.83356,0.15954 6.58689,0.51392 9.05729,1.83063 2.64173,1.40802 3.11972,2.63617 2.08568,5.3589 -0.8484,2.23393 -2.26847,2.18431 -3.40809,-0.11907 -1.06831,-2.15926 -4.4714,-3.04406 -11.57134,-3.00855 -5.05917,0.0253 -9.34149,0.57315 -16.53597,2.11548 -3.94885,0.84654 -12.01034,3.02287 -12.31103,3.32356 -0.0668,0.0668 0.13617,1.24337 0.45099,2.61464 0.43409,1.8908 0.57614,3.38823 0.58789,6.19739 0.0141,3.3603 -0.0454,3.85154 -0.64074,5.29167 -0.97085,2.34857 -2.15928,2.33577 -3.21027,-0.0346 -0.40019,-0.90259 -0.51523,-2.11207 -0.66056,-6.94532 -0.0968,-3.21882 -0.28316,-5.8524 -0.414159,-5.8524 -0.498647,0 -7.889974,3.02983 -11.054693,4.53151 -3.355206,1.59206 -8.793077,4.74055 -11.295936,6.54027 l -1.374061,0.98804 0.89697,1.85436 c 0.493333,1.01989 1.408913,2.43595 2.034621,3.14679 1.586657,1.80254 4.064079,3.57653 4.994706,3.57653 0.414885,0 0.967334,0.22831 1.227665,0.50735 1.190104,1.27562 7.100986,2.76421 14.099368,3.55077 2.294619,0.25789 13.512199,-0.0658 16.139369,-0.46575 z m 10.58355,-12.92734 c -0.21828,-0.17728 -0.68462,-0.8501 -1.03631,-1.49517 l -0.63943,-1.17285 0.33691,-3.58965 c 0.18529,-1.97431 0.38288,-3.97556 0.43907,-4.44724 0.0562,-0.47167 -0.19462,-1.76679 -0.55737,-2.87804 -0.36275,-1.11125 -0.65954,-2.11968 -0.65954,-2.24096 0,-0.48672 1.17896,-1.27332 2.15582,-1.43836 1.19709,-0.20224 2.3421,0.36979 2.3421,1.17008 0,0.26939 0.17453,0.98449 0.38786,1.58911 0.21332,0.60462 0.50988,2.28844 0.65903,3.74182 0.66482,6.47856 -1.26033,12.52181 -3.42814,10.76126 z m -62.084694,-8.51359 c 3.594723,-1.26852 7.081928,-3.96125 9.159902,-7.07304 2.425664,-3.63246 3.090752,-9.02954 1.758377,-14.26895 -1.158684,-4.55638 -4.166493,-10.3865 -6.95268,-13.47656 -1.691721,-1.87623 -3.803334,-2.50015 -6.20435,-1.8332 -0.881635,0.24489 -1.01951,0.42686 -1.77829,2.34703 -3.467666,8.77527 -4.442076,22.13323 -2.376152,32.57412 0.162767,0.8226 0.514952,1.65649 0.810142,1.91823 0.779001,0.69072 3.337668,0.60473 5.583051,-0.18763 z m 47.832454,-17.97088 c 5.11899,-1.29924 8.7243,-3.31703 11.73284,-6.56653 3.29178,-3.55543 5.18012,-8.74422 4.78676,-13.15311 -0.3766,-4.22097 -1.88629,-8.43532 -4.2979,-11.99768 -2.53473,-3.74424 -7.42534,-7.88171 -11.35298,-9.60466 -0.86099,-0.37769 -2.0666,-0.93438 -2.67914,-1.23708 -1.04457,-0.5162 -1.39761,-0.53979 -5.68854,-0.38019 -2.51616,0.0936 -5.67043,0.34074 -7.00948,0.54922 -2.389263,0.372 -2.457109,0.40289 -3.640437,1.65729 -1.443865,1.53059 -4.037192,6.45465 -5.152176,9.78265 -1.139725,3.40186 -1.605042,6.5025 -1.605042,10.69523 0,3.79246 0.339341,6.09196 1.364009,9.24305 2.812589,8.64937 8.049666,12.10848 17.818286,11.76904 2.18588,-0.076 3.96904,-0.31186 5.7238,-0.75723 z m 29.60738,-22.90066 c -0.39238,-0.73317 -0.33771,-1.55189 0.1103,-1.65164 0.48663,-0.10836 -2.50254,-4.58937 -4.51742,-6.77199 l -1.39917,-1.51564 -0.003,0.92604 c -0.008,2.19259 2.298,6.37661 4.65984,8.45558 1.36915,1.20517 1.54085,1.28845 1.14974,0.55765 z"
         id="path1" /></g></g></svg>
