<?xml version="1.0" encoding="UTF-8" standalone="no"?>
<!-- Created with Inkscape (http://www.inkscape.org/) -->

<svg
   width="223.88507mm"
   height="130.64261mm"
   viewBox="0 0 248.76119 145.15845"
   version="1.1"
   id="svg1"
   xml:space="preserve"
   xmlns:inkscape="http://www.inkscape.org/namespaces/inkscape"
   xmlns:sodipodi="http://sodipodi.sourceforge.net/DTD/sodipodi-0.dtd"
   xmlns="http://www.w3.org/2000/svg"
   xmlns:svg="http://www.w3.org/2000/svg"><sodipodi:namedview
     id="namedview1"
     pagecolor="#ffffff"
     bordercolor="#000000"
     borderopacity="0.25"
     inkscape:showpageshadow="2"
     inkscape:pageopacity="0.0"
     inkscape:pagecheckerboard="0"
     inkscape:deskcolor="#d1d1d1"
     inkscape:document-units="mm"><inkscape:page
       x="0"
       y="0"
       width="248.76118"
       height="145.15845"
       id="page2"
       margin="0"
       bleed="0" /></sodipodi:namedview><defs
     id="defs1" /><g
     inkscape:label="Layer 1"
     inkscape:groupmode="layer"
     id="layer1"
     transform="translate(6.7335822,-83.064776)"><g
       id="g1"
       transform="translate(10.223048,6.5427498)"><path
         style="fill:#75a6fd"
         d="m 212.4108,210.95676 c 0.191,-0.0764 0.4192,-0.067 0.50712,0.0209 0.0879,0.0879 -0.0684,0.15045 -0.34727,0.13896 -0.30822,-0.0127 -0.37091,-0.0754 -0.15985,-0.15985 z m -37.04166,-57.67917 c 0.19099,-0.0764 0.4192,-0.067 0.50711,0.0209 0.0879,0.0879 -0.0684,0.15046 -0.34726,0.13897 -0.30823,-0.0127 -0.37092,-0.0754 -0.15985,-0.15986 z M 61.58177,135.01228 c -0.397297,-0.0975 -0.465693,-0.45822 -0.481846,-2.54157 -0.01035,-1.3354 -0.104286,-3.36858 -0.208739,-4.51817 -0.160563,-1.76714 -0.119964,-2.17606 0.262686,-2.64584 l 0.4526,-0.55566 0.847703,0.79375 c 1.165747,1.09156 2.286326,3.55137 2.676992,5.87635 0.219127,1.3041 0.431277,1.90475 0.643934,1.82315 0.718786,-0.27582 3.572604,-0.74936 3.706879,-0.61509 0.24874,0.24874 -2.075365,1.45392 -3.60073,1.86717 -1.655052,0.4484 -3.615664,0.68366 -4.299479,0.51591 z m 67.47552,-14.03155 c -0.98424,-1.12253 -1.26083,-2.20368 -1.55164,-6.06518 -0.16731,-2.22161 -0.45966,-4.27643 -0.67412,-4.73817 -0.53111,-1.14348 -3.72109,-4.35688 -5.16537,-5.20328 -1.74803,-1.02442 -4.82519,-1.98437 -7.05239,-2.20007 -2.61003,-0.25277 -3.37222,-0.98293 -1.97868,-1.89553 0.60572,-0.39668 1.31053,-0.46696 4.56406,-0.4551 3.47351,0.0127 4.0212,0.0802 5.63142,0.69396 3.74957,1.42929 7.37264,4.2577 8.79017,6.86217 0.64261,1.18069 0.7745,1.7721 0.87896,3.94159 0.20263,4.2079 -1.16546,9.52263 -2.45126,9.52263 -0.32185,0 -0.76787,-0.20836 -0.99115,-0.46302 z m 55.03333,-8.73125 c -0.22329,-0.25466 -0.60964,-0.86477 -0.85856,-1.35581 -0.40629,-0.80146 -0.41117,-0.93421 -0.0477,-1.29769 0.32115,-0.32115 0.64076,-0.35539 1.54516,-0.16554 0.96744,0.20308 1.15269,0.34697 1.22228,0.94939 0.0972,0.84177 -0.60974,2.33267 -1.10614,2.33267 -0.19199,0 -0.53177,-0.20836 -0.75505,-0.46302 z m -8.96536,-3.49821 c -0.81626,-0.26859 -2.00688,-0.74896 -2.64583,-1.06749 -1.6486,-0.82186 -5.87229,-2.02045 -8.44594,-2.39677 -4.02099,-0.58794 -9.26673,0.16064 -12.07452,1.72308 -0.7914,0.44038 -1.18334,0.53263 -1.38906,0.32691 -0.68251,-0.68251 0.063,-1.55363 2.2779,-2.66186 6.95911,-3.48192 19.03861,-3.08942 25.18311,0.81829 1.39512,0.88726 1.41894,0.92361 1.28056,1.95528 -0.0776,0.57817 -0.28534,1.22514 -0.46176,1.43771 -0.42898,0.51688 -1.90575,0.4633 -3.72446,-0.13515 z m -83.393624,-0.90765 c -0.320474,-0.34956 -1.058495,-1.56995 -1.640047,-2.71198 -2.11979,-4.16278 -4.344909,-5.730136 -9.658257,-6.80319 -4.261226,-0.860573 -6.574317,-0.766366 -9.96003,0.405652 -1.776651,0.615015 -2.475386,0.529011 -2.475386,-0.304686 0,-0.895328 3.25945,-2.631493 6.267502,-3.338421 2.138178,-0.502498 7.373247,-0.558702 9.869943,-0.105965 4.453117,0.807505 8.301472,3.200756 9.695955,6.02981 1.041284,2.11251 0.326388,7.46433 -0.997084,7.46433 -0.285955,0 -0.782123,-0.286 -1.102596,-0.63555 z"
         id="path7" /><path
         style="fill:#fd7953"
         d="m 6.3844927,117.80403 c -0.3778897,-0.70609 0.3020413,-2.35669 1.4679203,-3.56353 3.224492,-3.33776 13.181951,-8.29883 18.52388,-9.22908 4.9787,-0.86701 9.075331,1.10546 8.735653,4.20609 -0.174842,1.59598 -0.834996,2.25779 -2.030719,2.03581 -0.513894,-0.0954 -1.351071,-0.38518 -1.860393,-0.64394 -4.040091,-2.05259 -9.989601,-1.14951 -18.099158,2.74729 -2.992605,1.438 -5.0505556,2.9299 -5.589678,4.05219 -0.4646089,0.96717 -0.7827465,1.07673 -1.1475053,0.39517 z m 34.2425143,-4.3889 c -0.886771,-1.16261 -0.851536,-1.64763 0.144933,-1.995 1.261631,-0.43981 1.929147,0.0249 1.736951,1.2093 -0.15161,0.93426 -0.58718,1.67057 -0.98824,1.67057 -0.120296,0 -0.522437,-0.39819 -0.893644,-0.88487 z"
         id="path6" /><path
         style="fill:#2a75f7"
         d="m 91.678123,169.0294 c -3.932324,-0.30428 -5.039434,-0.63016 -5.684003,-1.6731 -0.295351,-0.47788 -0.894506,-1.04203 -1.331456,-1.25365 -0.43695,-0.21162 -2.281279,-1.55394 -4.098508,-2.98293 -3.292565,-2.58912 -3.312965,-2.61203 -5.867138,-6.5878 -2.746469,-4.2751 -3.354384,-5.57232 -3.654961,-7.79925 l -0.191443,-1.41837 1.472368,-1.49205 c 1.903191,-1.92862 2.334169,-2.99411 2.493885,-6.16556 0.115375,-2.291 0.07116,-2.63775 -0.425208,-3.33484 l -0.553973,-0.77798 0.837446,-1.95683 c 1.108153,-2.58938 1.20343,-5.5286 0.239253,-7.38079 -1.291156,-2.48031 -3.922171,-4.10688 -7.114907,-4.39862 -1.89346,-0.17302 -1.918229,-0.18506 -1.918229,-0.93231 0,-1.11425 -1.923664,-6.21231 -3.828862,-10.14719 -1.006511,-2.07879 -2.566616,-4.69424 -3.943355,-6.61088 -2.508384,-3.49207 -2.488928,-3.4 -1.162581,-5.5018 3.211397,-5.088944 14.013936,-9.341423 22.447532,-8.836594 3.730121,0.223282 7.710066,1.36656 9.9823,2.867512 0.625759,0.413353 1.202082,0.75155 1.280718,0.75155 0.388965,0 3.144836,2.629919 4.389359,4.188751 1.672983,2.095502 2.800537,4.195061 3.751657,6.985761 1.878113,5.51063 2.519723,13.1422 1.505683,17.90936 -0.29169,1.37128 -0.473558,2.58512 -0.404153,2.69742 0.0694,0.1123 0.165073,1.66925 0.212593,3.45988 0.0949,3.57583 -0.0978,4.34041 -1.741713,6.90916 -0.608984,0.95161 -0.738208,1.34814 -0.512799,1.57355 0.423549,0.42355 1.517123,-0.43406 2.703472,-2.12014 0.69918,-0.99369 1.0431,-1.28342 1.3202,-1.11216 0.37059,0.22904 0.22868,1.03899 -0.68143,3.88906 -0.13536,0.4239 -0.0676,0.6387 0.23844,0.75615 0.62424,0.23954 1.41319,-0.82751 1.92611,-2.60502 l 0.439,-1.52136 h 1.10012 c 2.04163,0 3.56473,-0.73552 5.43153,-2.62295 3.09361,-3.12781 4.75086,-7.19676 4.75086,-11.66455 0,-5.81371 -2.19066,-10.59726 -7.60281,-16.60158 -1.21281,-1.34551 -2.38675,-2.89332 -2.60877,-3.43958 -0.22201,-0.546267 -0.76037,-1.689201 -1.19635,-2.539857 -0.43598,-0.850656 -0.75447,-1.578745 -0.70774,-1.617975 0.0467,-0.03923 0.68026,-0.260947 1.40786,-0.492703 4.62215,-1.472249 11.97599,-1.810339 15.875,-0.729849 7.11754,1.972405 12.16398,6.813604 14.77778,14.176754 2.56549,7.22705 3.25337,15.06487 2.13634,24.34167 -1.31266,10.90154 -5.04001,19.53136 -11.09328,25.68396 -4.37695,4.44877 -9.42929,7.20045 -16.40417,8.93426 -4.3486,1.08098 -12.477114,1.62018 -17.991667,1.19347 z m 39.518167,-48.9396 c 0.95543,-2.29903 1.43986,-5.33502 1.30341,-8.16868 -0.10446,-2.16949 -0.23635,-2.7609 -0.87896,-3.94159 -1.41753,-2.60447 -5.0406,-5.43288 -8.79017,-6.86217 -1.61022,-0.61381 -2.15791,-0.6813 -5.63142,-0.69396 -3.25353,-0.0119 -3.95834,0.0584 -4.56406,0.4551 -1.39354,0.9126 -0.63135,1.64276 1.97868,1.89553 2.2272,0.2157 5.30436,1.17565 7.05239,2.20007 1.44428,0.8464 4.63426,4.0598 5.16537,5.20328 0.21446,0.46174 0.50681,2.51656 0.67412,4.73817 0.19264,2.55785 0.44336,4.215 0.72055,4.7625 1.14051,2.25268 2.14704,2.39222 2.97009,0.41175 z M 93.839053,107.2224 c 0.656332,-1.70108 0.652385,-4.86834 -0.0077,-6.20756 -1.394483,-2.829054 -5.242838,-5.222305 -9.695955,-6.02981 -2.496696,-0.452737 -7.731765,-0.396533 -9.869943,0.105965 -3.008052,0.706928 -6.267502,2.443093 -6.267502,3.338421 0,0.833697 0.698735,0.919701 2.475386,0.304686 3.385713,-1.172018 5.698804,-1.266225 9.96003,-0.405652 5.313348,1.073054 7.538467,2.64041 9.658257,6.80319 1.876915,3.68582 2.909712,4.26204 3.747464,2.09076 z m 64.646357,52.95781 c -2.4236,-0.82187 -7.77145,-3.41514 -9.9607,-4.83013 -1.85336,-1.19788 -2.55571,-2.03693 -2.22684,-2.66026 0.31302,-0.59326 1.96412,-5.56637 2.68761,-8.09503 0.52029,-1.81848 0.60777,-2.7503 0.621,-6.61458 0.0178,-5.21625 -0.44489,-8.24963 -1.89703,-12.43542 -0.97301,-2.80469 -3.27837,-7.89629 -3.88709,-8.58497 -0.19973,-0.22597 -0.50367,-1.12524 -0.67542,-1.99836 -0.17174,-0.87313 -0.42169,-1.94469 -0.55543,-2.38125 -1.09331,-3.56879 -1.93789,-5.91107 -2.61532,-7.25304 l -0.7971,-1.57905 0.96761,-0.0819 c 1.07609,-0.0911 1.56949,-0.74081 0.56753,-0.74738 -1.39841,-0.009 -1.31011,-0.43885 0.22904,-1.11452 7.79995,-3.424078 20.42354,-5.231538 28.35734,-4.060235 6.25562,0.923546 11.19946,2.688105 15.32567,5.470055 0.62576,0.42189 1.24092,0.76708 1.36701,0.76708 0.1261,0 0.26896,0.0893 0.31747,0.19844 0.0485,0.10914 0.73174,0.731 1.5183,1.38191 0.78655,0.65092 2.13107,2.07967 2.98782,3.175 0.85675,1.09534 1.70184,2.17012 1.87798,2.3884 0.51808,0.64205 1.95601,3.98142 2.39251,5.55625 1.23268,4.44727 1.26033,11.05658 0.0629,15.02959 -1.06638,3.53811 -2.53627,6.16742 -4.44137,7.94463 -1.81847,1.69639 -2.38232,2.06948 -4.24507,2.80887 -2.09754,0.83259 -6.00037,1.24698 -9.58986,1.01821 -2.26422,-0.1443 -8.37327,-1.12338 -12.83229,-2.05659 -3.03335,-0.63483 -3.44732,-0.6646 -4.99793,-0.35942 -2.07516,0.40843 -2.51559,0.79319 -2.31597,2.02326 0.27719,1.70816 2.5832,4.6071 4.04981,5.09113 1.01387,0.3346 1.58461,1.41858 2.62013,4.97627 0.94167,3.23523 0.81297,5.13552 -0.47286,6.98186 -0.65562,0.94143 -1.75458,0.95162 -4.43943,0.0411 z m 26.45834,-32.90437 c 0,-0.27269 -1.19343,-1.62473 -2.71417,-3.07492 l -2.71418,-2.58824 2.11886,-1.07665 c 1.93612,-0.9838 2.1404,-1.16385 2.36857,-2.08769 0.1846,-0.74743 0.16365,-1.06421 -0.0803,-1.21501 -0.61112,-0.3777 -2.97303,0.20871 -5.21872,1.29568 l -2.23,1.07939 -2.4523,-1.322 c -2.44533,-1.31824 -4.66934,-2.2413 -4.88368,-2.02696 -0.0622,0.0622 0.43439,0.35516 1.10345,0.65111 1.52967,0.67665 5.21176,3.20541 5.04953,3.46789 -0.0667,0.1079 -1.73204,1.23772 -3.70079,2.51071 -3.61002,2.33424 -4.06615,2.84847 -3.17939,3.58442 0.33259,0.27603 1.16845,-0.0503 4.94936,-1.93208 3.21421,-1.59976 4.66905,-2.19692 4.95764,-2.03493 0.22465,0.1261 1.69315,1.43092 3.26332,2.89959 2.75177,2.57389 3.36285,2.91364 3.36285,1.86969 z m 0.67054,-15.37466 c 0.23075,-0.44622 0.38264,-1.13083 0.33752,-1.52135 -0.0696,-0.60242 -0.25484,-0.74631 -1.22228,-0.94939 -0.9044,-0.18985 -1.22401,-0.15561 -1.54516,0.16554 -0.36348,0.36348 -0.3586,0.49623 0.0477,1.29769 1.00487,1.98226 1.72145,2.28532 2.38223,1.00751 z m -6.76457,-3.01476 c 0.17642,-0.21257 0.38421,-0.85954 0.46176,-1.43771 0.13838,-1.03167 0.11456,-1.06802 -1.28056,-1.95528 -5.06092,-3.21859 -14.59955,-4.17455 -21.55166,-2.15991 -3.38768,0.98171 -6.19593,2.53137 -6.19593,3.41906 0,0.77282 0.58738,0.86309 1.67564,0.25751 2.80779,-1.56244 8.05353,-2.31102 12.07452,-1.72308 2.57365,0.37632 6.79734,1.57491 8.44594,2.39677 2.83823,1.41492 5.73953,1.96265 6.37029,1.20264 z"
         id="path5" /><path
         style="fill:#f43400"
         d="m 34.660417,167.55265 c -2.425485,-0.39088 -2.520639,-0.46579 -4.214374,-3.31745 -3.777598,-6.36016 -5.51072,-12.25841 -6.472439,-22.02732 -0.400198,-4.06512 -0.252643,-7.12661 0.414171,-8.5933 0.231559,-0.50932 0.574312,-1.34276 0.761674,-1.85208 0.624148,-1.69668 1.849686,-3.98389 2.376228,-4.43473 0.286086,-0.24495 0.520157,-0.71657 0.520157,-1.04803 0,-0.79056 -1.069086,-0.81943 -2.138767,-0.0577 -1.258386,0.89605 -4.483541,2.28909 -6.732679,2.90804 -1.432435,0.3942 -3.176637,0.622 -5.438356,0.71027 -5.057561,0.1974 -8.3299661,-0.77495 -11.134118,-3.30833 -1.4467136,-1.30702 -2.04774412,-2.22454 -2.72289857,-4.15671 -1.44033373,-4.12198 0.60109025,-8.09075 6.86786047,-13.35193 2.921791,-2.45295 4.1428631,-3.24171 7.8052081,-5.04178 8.171267,-4.016259 16.216305,-5.029977 22.622298,-2.85053 10.610337,3.60984 16.378325,14.42903 16.965189,31.82211 0.220599,6.53794 -0.520429,13.05291 -2.136698,18.78541 -0.698382,2.47699 -2.525627,6.69433 -3.565796,8.22998 -3.499163,5.16598 -9.224412,8.31776 -13.77666,7.58413 z M 7.531998,117.40886 c 0.5391224,-1.12229 2.597073,-2.61419 5.589678,-4.05219 8.109557,-3.8968 14.059067,-4.79988 18.099158,-2.74729 0.509322,0.25876 1.346499,0.54854 1.860393,0.64394 1.195723,0.22198 1.855877,-0.43983 2.030719,-2.03581 0.339678,-3.10063 -3.756953,-5.0731 -8.735653,-4.20609 -5.341929,0.93025 -15.299388,5.89132 -18.52388,9.22908 -1.165879,1.20684 -1.84581,2.85744 -1.4679203,3.56353 0.3647588,0.68156 0.6828964,0.572 1.1475053,-0.39517 z m 34.517158,-3.48212 c 0.170381,-0.2053 0.377262,-0.78909 0.459735,-1.29731 0.192196,-1.18437 -0.47532,-1.64911 -1.736951,-1.2093 -0.996469,0.34737 -1.031704,0.83239 -0.144933,1.995 0.748268,0.98103 0.967197,1.05979 1.422149,0.51161 z"
         id="path4" /><path
         style="fill:#234f9b"
         d="m 157.44797,197.48941 c 0.0127,-0.30822 0.0754,-0.37092 0.15985,-0.15985 0.0764,0.19099 0.067,0.4192 -0.0209,0.50712 -0.0879,0.0879 -0.15045,-0.0684 -0.13896,-0.34727 z M 25.664584,184.84386 c 0,-0.055 0.208359,-0.2633 0.463021,-0.46302 0.419643,-0.32911 0.429002,-0.31975 0.09989,0.0999 -0.345643,0.44073 -0.562915,0.58089 -0.562915,0.36313 z m 71.123305,-15.69127 c 0.190996,-0.0764 0.419199,-0.067 0.507118,0.0209 0.08792,0.0879 -0.06835,0.15046 -0.347266,0.13897 -0.308224,-0.0127 -0.370919,-0.0754 -0.159852,-0.15986 z M 84.798957,167.832 c -2.1292,-0.62432 -4.906257,-1.69228 -6.614583,-2.54374 -5.331584,-2.65736 -10.473474,-7.6717 -13.351752,-13.02055 -1.571223,-2.91988 -2.47851,-4.09373 -3.532642,-4.57052 l -1.009393,-0.45656 0.155595,-1.42128 c 0.08558,-0.78171 0.228467,-2.26999 0.317531,-3.3073 l 0.161935,-1.88601 1.854543,-0.0606 c 3.781678,-0.12353 7.764882,-1.70684 9.898368,-3.93458 l 1.108768,-1.15775 0.579152,0.81335 c 0.526043,0.73876 0.567344,1.04781 0.450388,3.3702 -0.159716,3.17145 -0.590694,4.23694 -2.493885,6.16556 l -1.472368,1.49205 0.191443,1.41837 c 0.300577,2.22693 0.908492,3.52415 3.654961,7.79925 2.547275,3.96503 2.58316,4.00543 5.81771,6.54894 1.790044,1.40761 3.640651,2.76632 4.112461,3.01935 0.795769,0.42678 2.222682,2.20906 1.719104,2.14724 -0.12343,-0.0151 -0.819732,-0.2021 -1.547336,-0.41545 z m 67.071873,-3.44022 c -3.21776,-0.52047 -7.09026,-1.6969 -8.24293,-2.50412 -0.38626,-0.2705 -0.78585,-0.49183 -0.88796,-0.49183 -0.25214,0 -2.26721,-1.59293 -2.84464,-2.24871 -0.55825,-0.634 -1.81599,-3.24419 -1.84213,-3.82298 -0.0102,-0.22583 0.57808,-1.89888 1.30729,-3.71789 1.90652,-4.75578 2.57315,-6.99552 3.78004,-12.7 0.86772,-4.10132 1.21571,-13.36744 0.73282,-19.51302 -0.10577,-1.34607 -0.12726,-2.4474 -0.0478,-2.4474 0.27715,0 2.97597,5.97278 3.88548,8.59896 1.45119,4.19031 1.91328,7.22195 1.89544,12.43542 -0.0132,3.86428 -0.10071,4.7961 -0.621,6.61458 -0.72349,2.52866 -2.37459,7.50177 -2.68761,8.09503 -0.14282,0.27071 -0.0724,0.63673 0.19638,1.02045 1.36511,1.94897 12.1762,7.13269 14.94823,7.16741 l 0.87939,0.011 -0.97931,0.86579 c -2.43662,2.15417 -6.11925,3.17956 -9.47173,2.63729 z m 38.1,-23.99792 c 0,-0.0549 0.20836,-0.2633 0.46302,-0.46302 0.41964,-0.32911 0.429,-0.31975 0.0999,0.0999 -0.34564,0.44073 -0.56291,0.58089 -0.56291,0.36313 z m -88.75942,-2.00337 c -0.0854,-0.13814 0.0862,-0.96783 0.38126,-1.84373 0.98077,-2.91138 0.46106,-3.66602 -1.04795,-1.52165 -1.171482,1.66473 -2.265447,2.51833 -2.687092,2.09669 -0.225409,-0.22541 -0.09619,-0.62194 0.512799,-1.57355 1.627495,-2.54316 1.910633,-3.54923 1.731773,-6.15352 -0.0889,-1.29504 -0.0763,-2.57201 0.0281,-2.8377 0.15869,-0.40379 0.27974,-0.30938 0.73761,0.57526 1.04246,2.01413 1.98671,2.20506 3.59848,0.72761 0.841,-0.77091 1.2961,-1.54941 2.04059,-3.49066 0.527,-1.37416 1.07455,-3.1601 1.21678,-3.96875 0.32095,-1.82487 0.29763,-7.50063 -0.0403,-9.80466 -0.13872,-0.94588 -0.31896,-2.16151 -0.40053,-2.70139 -0.0816,-0.53989 -0.45195,-1.96864 -0.82309,-3.175 -0.37114,-1.20637 -0.73127,-2.43152 -0.80029,-2.72256 -0.32568,-1.37343 5.66576,5.85801 6.94484,8.38215 2.28414,4.50753 3.0539,9.56252 2.08322,13.68038 -0.96942,4.1125 -4.58336,8.96472 -7.38009,9.90878 -0.71714,0.24208 -1.80434,0.44014 -2.41598,0.44014 -1.10644,0 -1.11367,0.006 -1.42466,1.25678 -0.50727,2.03956 -1.75075,3.54209 -2.2555,2.72538 z M -1.0920812,130.77031 c -0.3291074,-0.41964 -0.319749,-0.429 0.0998948,-0.0999 0.25466145,0.19972 0.46302082,0.40808 0.46302082,0.46302 0,0.21776 -0.217272,0.0776 -0.56291572,-0.36313 z m 72.5504682,-1.80798 c 0.0127,-0.30823 0.07539,-0.37092 0.159853,-0.15985 0.07643,0.19099 0.06703,0.41919 -0.02089,0.50711 -0.08792,0.0879 -0.150452,-0.0683 -0.138963,-0.34726 z m 66.145833,-2.91042 c 0.0127,-0.30822 0.0754,-0.37092 0.15985,-0.15985 0.0764,0.19099 0.067,0.4192 -0.0209,0.50712 -0.0879,0.0879 -0.15045,-0.0683 -0.13896,-0.34727 z M 60.589583,125.6172 c 0,-0.22697 0.195434,-0.48766 0.434298,-0.57932 0.3781,-0.14509 0.387788,-0.10596 0.07487,0.30242 -0.197687,0.25799 -0.393121,0.51869 -0.434299,0.57932 -0.04118,0.0606 -0.07487,-0.0755 -0.07487,-0.30242 z m -0.354329,-3.02983 c -0.07565,-0.26519 -0.452881,-1.85138 -0.838286,-3.52487 -0.385405,-1.67349 -0.806404,-3.28083 -0.935554,-3.57187 -0.129149,-0.29105 -0.476138,-1.26684 -0.771085,-2.16844 -0.294948,-0.9016 -0.968459,-2.5498 -1.496692,-3.66267 l -0.960422,-2.02339 0.115674,-3.02201 c 0.06362,-1.66211 0.227007,-3.13081 0.36308,-3.26378 0.395876,-0.38685 4.300582,5.28549 6.086112,8.84124 1.8364,3.65707 4.083168,9.5497 4.083168,10.70899 0,0.69982 -0.106288,0.80156 -0.992187,0.9497 -0.986274,0.16493 -3.401841,0.79161 -4.133473,1.07236 -0.228255,0.0876 -0.438313,-0.0477 -0.520335,-0.33526 z M 116.36705,94.010928 c 0.191,-0.07643 0.4192,-0.06703 0.50712,0.02089 0.0879,0.08792 -0.0684,0.150453 -0.34726,0.138964 -0.30823,-0.0127 -0.37092,-0.07539 -0.15986,-0.159852 z M 83.558723,90.306761 c 0.190996,-0.07643 0.419199,-0.06703 0.507118,0.02089 0.08792,0.08792 -0.06835,0.150453 -0.347266,0.138964 -0.308224,-0.01269 -0.370919,-0.07539 -0.159852,-0.159852 z"
         id="path3" /><path
         style="fill:#9a2909"
         d="m 30.228844,166.27413 c -1.888515,-0.94108 -4.819895,-3.73614 -6.715065,-6.40277 -0.876952,-1.23393 -1.667284,-2.43751 -1.756294,-2.67462 -0.08901,-0.23711 -0.492211,-0.99466 -0.896003,-1.68343 -0.756508,-1.29043 -2.906949,-6.85428 -3.913247,-10.12477 -1.531952,-4.97887 -1.845221,-6.53575 -1.934957,-9.61632 l -0.06432,-2.208 2.231519,-0.6484 c 2.957445,-0.85932 6.799274,-2.72739 8.562205,-4.16332 l 1.424227,-1.16005 -0.730797,1.35742 c -0.401938,0.74658 -0.931585,1.8932 -1.176992,2.54805 -0.245408,0.65484 -0.636583,1.60734 -0.869279,2.11666 -0.668677,1.4636 -0.816893,4.52354 -0.416238,8.5933 0.939175,9.53991 2.725654,15.74668 6.208214,21.5692 2.222466,3.71577 2.219907,3.57985 0.04703,2.49705 z m -2.562875,-39.35169 c 0.09936,-0.26093 0.247304,-0.40778 0.328766,-0.32631 0.08146,0.0815 1.68e-4,0.29495 -0.180653,0.47443 -0.261307,0.25936 -0.291698,0.22897 -0.148113,-0.14812 z"
         id="path2" /><path
         style="fill:#000000"
         d="m 21.563542,213.45 c -1.164166,-0.14709 -2.687324,-0.26881 -3.384795,-0.27048 -1.238281,-0.003 -1.326606,-0.0597 -3.752729,-2.41159 -2.005528,-1.94414 -2.692057,-2.82054 -3.560518,-4.54524 -1.7183931,-3.4126 -1.413825,-4.28909 1.650028,-4.7485 1.198092,-0.17965 1.262684,-0.2303 1.129903,-0.88601 -0.07746,-0.38251 -0.196171,-0.99313 -0.263809,-1.35693 -0.742728,-3.99489 -2.44861,-10.72681 -3.7136113,-14.65502 -0.3696971,-1.14802 -0.6721765,-2.29614 -0.6721765,-2.55138 0,-0.87019 1.7590208,-1.08983 2.4665728,-0.308 0.476918,0.52699 2.65456,5.37444 3.135481,6.97961 0.219138,0.73142 0.423252,0.98359 0.724922,0.89558 0.230944,-0.0674 1.170307,-0.31224 2.087473,-0.54416 3.645593,-0.92183 9.6041,-4.42035 9.264369,-5.43955 -0.05649,-0.16946 -0.800145,-0.59186 -1.652571,-0.93867 -4.997012,-2.033 -14.208833,-2.40552 -24.19963675,-0.97861 -2.90275565,0.41458 -3.02728285,0.41233 -3.37343745,-0.0611 -0.6268122,-0.85721 -0.4416035,-1.61524 0.5004735,-2.04834 4.8000333,-2.20673 17.7961747,-4.00598 24.2755197,-3.36082 5.003923,0.49824 9.132746,2.19519 10.638047,4.37223 0.906736,1.31137 0.993728,3.52759 0.226052,5.75888 -0.478776,1.39158 -0.389267,2.02863 0.231157,1.64519 0.270975,-0.16747 6.213079,0.51489 8.342088,0.95797 4.491535,0.93475 8.14209,2.27611 11.717343,4.30542 1.027844,0.5834 1.663691,0.8144 1.680191,0.6104 0.05615,-0.69419 -0.05857,-6.98883 -0.143405,-7.86883 -0.0491,-0.50932 -0.178448,-2.31861 -0.287439,-4.02065 l -0.198165,-3.09462 0.677179,-0.16996 c 1.425451,-0.35776 2.037143,0.21467 2.610915,2.44335 0.123633,0.48023 0.344692,1.31962 0.491243,1.86532 0.146551,0.54571 0.84998,4.42413 1.563176,8.61873 0.713196,4.1946 1.341949,7.67178 1.397229,7.72706 0.08812,0.0881 1.858867,-0.11672 4.65655,-0.53867 0.716413,-0.10805 6.128133,-0.70845 9.446796,-1.04807 2.994556,-0.30645 9.805653,-0.65856 10.216522,-0.52815 0.369049,0.11713 0.499103,0.028 0.499103,-0.34225 0,-1.48294 1.868582,-5.74721 3.680202,-8.39854 l 1.084717,-1.5875 -0.646942,-0.0822 c -0.944276,-0.11998 -2.346358,-1.54188 -3.310578,-3.35738 -0.893079,-1.68154 -0.935286,-2.68803 -0.145828,-3.47749 0.340743,-0.34074 3.148964,-1.32503 5.02697,-1.76197 0.291042,-0.0677 -0.214974,-0.15181 -1.124479,-0.18688 -0.909505,-0.0351 -1.742942,-0.0848 -1.852083,-0.11043 -0.109141,-0.0257 -0.912813,-0.13782 -1.785937,-0.24923 -0.873125,-0.11142 -2.004219,-0.30844 -2.513542,-0.43783 -0.509323,-0.1294 -1.34276,-0.30662 -1.852083,-0.39383 -0.509323,-0.0872 -1.039151,-0.27103 -1.177396,-0.40847 -0.138245,-0.13745 -0.497113,-0.24991 -0.797485,-0.24991 -0.679099,0 -2.839002,-0.78758 -4.238909,-1.54567 -0.579929,-0.31405 -1.257511,-0.571 -1.505739,-0.571 -0.248229,0 -0.516758,-0.10587 -0.596731,-0.23527 -0.07997,-0.1294 -0.473954,-0.31726 -0.875511,-0.41747 -0.401557,-0.10021 -1.109113,-0.47059 -1.572346,-0.82306 -0.463234,-0.35248 -0.948495,-0.64086 -1.078359,-0.64086 -0.129864,0 -0.51575,-0.29766 -0.857524,-0.66146 -0.341774,-0.3638 -0.795809,-0.66146 -1.008965,-0.66146 -0.748914,0 -6.048384,-4.85365 -7.799922,-7.14375 -0.612143,-0.80036 -1.245244,-1.57427 -1.406892,-1.71979 -0.436734,-0.39316 -1.925976,-2.66111 -2.206526,-3.36028 -0.134284,-0.33466 -0.2517,-0.45018 -0.260924,-0.25672 -0.06615,1.38732 -3.126731,7.28512 -4.942308,9.52391 -5.359891,6.60926 -14.565472,9.34927 -22.194253,6.60602 -1.771266,-0.63693 -2.270082,-0.91671 -4.365625,-2.44857 -3.702798,-2.70679 -6.19995,-5.84889 -9.235912,-11.62131 -3.752843,-7.13546 -7.1846454,-18.30531 -7.2641251,-23.64333 -0.020032,-1.34536 -0.095952,-2.45036 -0.1687127,-2.45556 -7.0100283,-0.50098 -11.2797085,-3.18258 -14.0187835,-8.80457 -2.0140341,-4.13383 -2.2316954,-7.60389 -0.7477782,-11.92145 2.6411894,-7.68472 11.4216795,-15.44947 21.3811445,-18.907742 2.555428,-0.887333 6.950123,-1.987216 9.657292,-2.416981 10.250704,-1.627304 19.484,1.770311 25.796874,9.492583 l 1.719792,2.10375 0.191951,-2.22095 c 0.462755,-5.35423 2.936817,-9.28704 7.862331,-12.498084 8.210256,-5.352436 19.96673,-7.376385 27.664466,-4.762606 4.568445,1.551222 8.688706,4.443804 11.810397,8.29135 l 1.33324,1.643257 2.2508,-1.054757 c 4.5166,-2.116552 11.56365,-3.349254 16.21585,-2.836549 3.78336,0.416952 7.57488,1.821799 10.85534,4.022148 1.2528,0.84031 5.17029,4.639689 5.89346,5.715776 l 0.42406,0.631005 1.27301,-0.850474 c 4.41119,-2.947025 13.66328,-6.074569 21.64592,-7.317112 3.88515,-0.604745 11.46576,-0.610794 15.01163,-0.01198 4.28888,0.724294 8.58606,2.292149 13.29879,4.852152 1.66626,0.905128 4.86129,3.543434 6.84563,5.652804 4.30092,4.57191 6.65966,9.06381 7.97683,15.19086 0.85136,3.96018 0.79802,10.88456 -0.11215,14.55924 -1.12921,4.5591 -3.1004,9.43096 -4.91959,12.159 -2.10311,3.1538 -3.95352,4.60849 -8.61446,6.7722 -0.8503,0.39473 -4.95853,1.29484 -6.99709,1.53306 -3.55937,0.41595 -8.92978,0.11467 -11.90625,-0.66792 -0.87313,-0.22957 -1.91638,-0.47537 -2.31834,-0.54623 -0.40197,-0.0709 -0.79595,-0.23416 -0.87552,-0.3629 -0.0796,-0.12875 -0.24286,-0.23408 -0.36288,-0.23408 -0.12001,0 0.0951,0.74414 0.47808,1.65364 0.6026,1.43115 0.69636,2.02745 0.69685,4.43177 5.2e-4,2.58379 -0.0634,2.9262 -0.91344,4.8948 -2.10173,4.86722 -5.2664,7.53227 -10.5546,8.88829 -2.22285,0.57 -7.40884,0.72184 -8.97536,0.26279 -0.47563,-0.13937 -0.95188,-0.26629 -1.05833,-0.28204 -1.84557,-0.27297 -4.87654,-1.36563 -6.91676,-2.49348 -2.55153,-1.4105 -4.49462,-3.19844 -5.48807,-5.04987 l -0.79797,-1.48712 -1.036,1.26974 c -4.27553,5.24017 -10.08512,9.05623 -17.42037,11.44264 -3.08449,1.0035 -9.15941,2.39293 -10.50407,2.40246 -0.59775,0.004 3.53496,1.83366 4.16377,1.84318 0.43185,0.007 4.25283,2.54885 5.83539,3.88262 1.50245,1.26625 3.48727,3.88633 4.18428,5.52348 0.70007,1.64433 0.82389,4.79395 0.27764,7.06213 -0.25495,1.05862 -0.553,2.04382 -0.66233,2.18934 -0.10934,0.14552 -0.27057,0.56633 -0.35829,0.93512 -0.0877,0.3688 -0.5344,1.49739 -0.99262,2.50797 -1.72904,3.81332 -5.80315,6.73065 -11.50244,8.23649 -2.18261,0.57668 -3.24176,0.69939 -6.203829,0.71874 -3.664236,0.0239 -4.434186,-0.11582 -6.879166,-1.24875 -1.834825,-0.8502 -4.210817,-3.07081 -4.795179,-4.48159 l -0.3085,-0.74478 -0.491992,1.40403 c -0.670503,1.91345 -1.237287,2.62693 -2.620163,3.29831 -1.108956,0.53839 -1.665489,0.57952 -9.64354,0.7126 -4.656667,0.0777 -10.153239,0.28079 -12.214605,0.45135 l -3.747938,0.31012 -0.989411,-0.75466 c -0.544176,-0.41507 -1.192415,-1.20809 -1.440533,-1.76228 l -0.451122,-1.00761 -0.314073,0.73955 c -1.136631,2.67646 -4.741726,4.41425 -11.666276,5.6236 -1.673489,0.29227 -4.292864,0.63658 -5.820833,0.76515 -3.773647,0.31751 -13.933771,0.29945 -16.536458,-0.0294 z m 15.345833,-10.02866 c 4.656376,-0.28318 7.828215,-0.81193 9.655566,-1.6096 l 1.19235,-0.52048 -1.190625,-0.35974 c -0.654843,-0.19785 -1.42875,-0.47513 -1.719791,-0.61616 -0.583099,-0.28256 -4.829698,-1.33161 -6.085417,-1.5033 -0.436562,-0.0597 -1.150937,-0.16647 -1.5875,-0.2373 -1.977418,-0.32082 -8.61366,-0.65221 -10.554388,-0.52705 -3.524651,0.22731 -7.751821,0.70455 -8.089598,0.91331 -0.238142,0.14718 -0.188849,0.61165 0.200198,1.88639 0.470407,1.54132 0.601459,1.71992 1.479395,2.01604 0.529797,0.1787 2.539458,0.4026 4.465914,0.49754 1.926455,0.095 3.539063,0.20343 3.583571,0.24109 0.18264,0.1545 4.684739,0.0604 8.650325,-0.18074 z m 65.116055,-2.49009 c 1.00294,-0.40048 2.24025,-0.96626 2.74957,-1.25729 0.50932,-0.29104 1.23638,-0.68849 1.61568,-0.88325 1.09328,-0.56133 3.30135,-3.05451 3.65544,-4.12742 0.49803,-1.50905 0.29164,-2.03882 -1.17008,-3.00339 -0.7276,-0.48013 -1.64537,-1.12107 -2.03948,-1.42429 -0.39412,-0.30323 -1.31685,-0.72959 -2.05053,-0.94747 -0.73367,-0.21787 -1.33395,-0.51059 -1.33395,-0.65047 0,-0.13989 -0.26789,-0.25443 -0.59531,-0.25455 -0.32742,-1.2e-4 -1.42875,-0.17326 -2.4474,-0.38476 -1.018643,-0.2115 -2.936406,-0.46057 -4.261693,-0.55348 l -2.409613,-0.16892 -0.787586,1.28129 c -1.907784,3.1037 -2.896291,6.97002 -2.370024,9.26981 0.396745,1.73378 2.048535,3.46459 3.611211,3.78397 2.179358,0.44542 5.803456,0.13094 7.833765,-0.67978 z m 2.1875,-32.13731 c 13.85563,-1.70888 23.09953,-8.0445 28.58491,-19.59165 5.77874,-12.16468 6.53595,-29.38949 1.82857,-41.59613 -0.43874,-1.13769 -1.38923,-2.95292 -2.11219,-4.03384 -1.4078,-2.10483 -4.42215,-5.281558 -5.26562,-5.549265 -0.28225,-0.08958 -0.51319,-0.254455 -0.51319,-0.36638 0,-0.366026 -4.32581,-2.357006 -6.35321,-2.924101 -4.31851,-1.207953 -10.69773,-0.924833 -16.00408,0.710287 -0.7276,0.224207 -1.35393,0.432539 -1.39185,0.46296 -0.0379,0.03042 0.46865,1.190153 1.12569,2.577182 1.4639,3.090327 2.80852,7.136897 3.1897,9.599287 0.54783,3.53891 0.63633,4.55404 0.65739,7.54063 0.0285,4.04312 -0.21816,5.529 -1.45204,8.74632 -0.74449,1.94125 -1.19959,2.71975 -2.04059,3.49066 -1.66254,1.52398 -2.47907,1.31448 -3.73905,-0.95937 -0.826976,-1.49241 -0.878322,-2.38472 -0.28686,-4.98517 0.33337,-1.46571 0.39823,-2.76436 0.29333,-5.87307 -0.267,-7.91306 -2.205281,-14.2111 -5.691828,-18.494417 -1.417942,-1.74198 -3.988361,-4.149955 -4.429914,-4.149955 -0.118373,0 -0.403193,-0.16919 -0.632933,-0.375977 -0.422322,-0.380131 -3.271002,-1.877497 -3.395534,-1.784813 -0.03708,0.02759 -0.513325,-0.138785 -1.058333,-0.369729 -2.912826,-1.234292 -9.698163,-1.435064 -14.087799,-0.416846 -5.34544,1.239926 -10.046407,3.502126 -12.722587,6.122365 -2.682872,2.626792 -3.416996,4.543222 -3.416996,8.920082 0,2.05803 0.09015,2.46937 0.928072,4.23468 0.510439,1.07538 1.169393,2.69291 1.464341,3.59451 0.294947,0.9016 0.64259,1.87739 0.772539,2.16844 0.129948,0.29104 0.593801,2.05877 1.030784,3.92828 0.436982,1.86952 0.837677,3.44228 0.890433,3.49504 0.05275,0.0528 0.856211,-0.14071 1.785456,-0.42993 5.004066,-1.55744 9.810903,-0.46089 12.128906,2.76687 2.845333,3.96205 0.762239,10.60803 -4.183865,13.34835 -1.905705,1.05582 -5.019626,1.89062 -7.334391,1.96623 l -1.854543,0.0606 -0.161935,1.88601 c -0.08906,1.03731 -0.231953,2.52559 -0.317531,3.3073 l -0.155595,1.42128 1.009393,0.45656 c 1.054132,0.47679 1.961419,1.65064 3.532642,4.57052 2.878278,5.34885 8.020168,10.36319 13.351752,13.02055 3.907485,1.94755 9.086789,3.40008 13.361458,3.7472 3.307174,0.26855 9.486768,0.15072 12.667098,-0.24152 z m -63.828948,-1.97841 c 5.672703,-2.50874 9.490637,-7.46954 11.602603,-15.07574 1.689409,-6.08437 2.123491,-9.60075 2.106837,-17.06687 -0.01616,-7.24447 -0.436786,-10.57782 -2.036616,-16.13959 -2.630162,-9.14368 -7.690932,-15.0284 -15.066061,-17.51899 -2.372275,-0.80111 -2.627633,-0.83195 -6.960536,-0.84049 -4.043021,-0.008 -4.76814,0.0624 -7.169822,0.69583 -5.156022,1.35987 -10.251539,3.68746 -13.762475,6.28657 -0.6880032,0.50932 -1.42723,1.04511 -1.6427264,1.19063 -1.3029878,0.87988 -5.2746759,4.9972 -6.2362281,6.4649 -1.5907038,2.42801 -1.5270246,2.27873 -1.73988947,4.07873 -0.52710363,4.45722 2.62494007,8.58852 7.92926617,10.39266 1.1936398,0.40599 2.2161348,0.49191 5.6885418,0.47801 3.824715,-0.0153 4.459754,-0.0863 6.579083,-0.73532 1.290163,-0.39511 3.504237,-1.31022 4.920166,-2.03358 1.415928,-0.72336 2.771356,-1.3152 3.012062,-1.3152 0.856762,0 0.414706,0.93378 -1.144404,2.41738 -1.859381,1.76933 -5.785317,3.81098 -9.265866,4.81865 l -2.248958,0.65111 0.06432,2.208 c 0.08974,3.08057 0.403005,4.63745 1.934957,9.61632 1.006298,3.27049 3.156739,8.83434 3.913247,10.12477 0.403792,0.68877 0.807798,1.44841 0.897791,1.68809 0.295124,0.78599 2.88149,4.29947 4.13397,5.61584 3.431957,3.60703 6.913235,5.07958 11.251475,4.75928 1.078292,-0.0796 2.401387,-0.39044 3.239263,-0.76099 z M 156.33841,164.2904 c 2.92212,-0.67366 6.12592,-2.9783 7.1868,-5.16978 0.78422,-1.61998 0.61346,-4.13328 -0.49892,-7.34333 -0.95898,-2.76736 -1.46115,-3.61062 -2.15016,-3.61062 -1.37344,0 -4.46355,-4.45231 -4.09879,-5.90564 0.15067,-0.60029 0.40392,-0.73515 2.06438,-1.09931 1.83725,-0.40292 1.9856,-0.39539 5.06765,0.25722 7.28088,1.54167 11.16029,2.04554 15.63618,2.03087 3.87359,-0.0127 4.43639,-0.0757 6.21771,-0.69591 4.50732,-1.56938 7.30732,-4.73884 9.26154,-10.4836 0.82802,-2.43412 0.84837,-2.60619 0.87346,-7.38697 0.0288,-5.4779 -0.25925,-7.2591 -1.77542,-10.9802 -1.4429,-3.54128 -5.71372,-8.47748 -9.0468,-10.45626 -0.58209,-0.34557 -1.11787,-0.69413 -1.19063,-0.77457 -0.42907,-0.47437 -3.86009,-2.10019 -6.08541,-2.883622 -8.8452,-3.113984 -18.47836,-3.223528 -29.81677,-0.339064 -6.20696,1.579036 -10.27103,3.473306 -7.45182,3.473306 1.14005,0 0.82495,0.64085 -0.36491,0.74215 l -0.9478,0.0807 0.87823,1.90368 c 1.67744,3.63608 3.44073,9.99216 3.7786,13.62056 0.50952,5.47189 0.13288,15.53403 -0.73503,19.63625 -1.20689,5.70448 -1.87352,7.94422 -3.78004,12.7 -0.72921,1.81901 -1.31749,3.49206 -1.30729,3.71789 0.0261,0.57879 1.28388,3.18898 1.84213,3.82298 0.57743,0.65578 2.5925,2.24871 2.84464,2.24871 0.10211,0 0.5017,0.22133 0.88796,0.49183 1.15267,0.80722 5.02517,1.98365 8.24293,2.50412 1.28981,0.20863 3.32302,0.16249 4.46758,-0.10138 z m 25.00035,-39.14468 c -1.72804,-1.59665 -3.23251,-2.90418 -3.34327,-2.90561 -0.11075,-0.001 -2.19988,0.99795 -4.6425,2.22086 -3.38839,1.69641 -4.54796,2.16368 -4.89185,1.97123 -0.98377,-0.55055 -0.44173,-1.15767 3.1289,-3.50461 1.96859,-1.29394 3.63877,-2.44889 3.71149,-2.56656 0.16508,-0.26711 -3.49907,-2.75987 -5.09347,-3.46515 -0.65081,-0.28788 -1.12952,-0.5772 -1.0638,-0.64292 0.21915,-0.21915 2.94196,0.93352 5.06288,2.14331 1.15262,0.65747 2.16021,1.1954 2.23908,1.1954 0.0789,0 1.12006,-0.48382 2.31376,-1.07515 2.55574,-1.26605 4.99437,-1.69094 5.28958,-0.92161 0.0965,0.25155 -0.009,0.84482 -0.23509,1.31838 -0.32663,0.68496 -0.81966,1.04079 -2.41117,1.74021 l -2.00057,0.87919 2.77051,2.62546 c 2.54687,2.41354 3.18156,3.35033 2.53896,3.74748 -0.12735,0.0787 -1.6454,-1.16325 -3.37344,-2.75991 z m -117.206387,9.78237 c 3.527756,-0.50994 6.66813,-2.63924 7.280584,-4.93653 0.856394,-3.21231 -1.940082,-5.53438 -6.590041,-5.47209 -1.091406,0.0146 -2.503642,0.17016 -3.138302,0.34564 -1.088736,0.30104 -1.145126,0.36306 -0.998158,1.0979 0.08567,0.42836 0.23584,2.5931 0.333706,4.81052 0.107856,2.44378 0.292571,4.10824 0.468992,4.22607 0.370095,0.24717 0.454331,0.24489 2.643219,-0.0715 z m 80.015747,74.04611 c -4.97869,-4.999 -11.32213,-11.75005 -17.19796,-18.30306 l -0.67689,-0.75491 -0.17896,2.60699 c -0.40361,5.87969 -1.26454,10.32096 -2.47999,12.79345 -0.85048,1.73006 -1.57091,2.00602 -2.30644,0.88346 -0.43602,-0.66546 -0.45023,-0.93201 -0.15937,-2.98984 0.69692,-4.9307 0.26708,-12.75636 -1.0038,-18.27535 -0.30176,-1.31046 -0.38201,-2.22408 -0.23428,-2.66727 0.24308,-0.72925 1.92954,-1.82184 2.8121,-1.82184 0.2999,0 1.29572,0.56906 2.21293,1.26457 1.63889,1.24275 1.96388,1.50787 4.44995,3.63023 1.24625,1.06392 2.93805,2.45655 4.17848,3.43958 0.36725,0.29104 1.98741,1.58524 3.60035,2.876 2.57419,2.05999 2.94304,2.27771 3.01778,1.78134 0.0468,-0.31101 -0.0488,-0.97131 -0.21248,-1.46732 -0.1637,-0.49601 -0.64696,-2.90496 -1.0739,-5.35322 -0.42695,-2.44826 -0.92064,-5.0467 -1.0971,-5.7743 -0.46605,-1.92172 -0.43496,-3.99494 0.0674,-4.4972 0.44218,-0.44206 5.46827,-1.98509 6.46599,-1.98509 0.3272,0 0.74312,0.17859 0.92428,0.39687 0.18115,0.21828 0.59018,0.39688 0.90893,0.39688 0.6777,0 2.00148,1.28067 2.00148,1.9363 0,0.24867 0.11159,0.65887 0.24798,0.91156 0.24135,0.44714 0.79671,3.31847 1.36823,7.07401 0.15502,1.01865 0.38465,2.50693 0.5103,3.30729 0.12564,0.80037 0.40704,2.70537 0.62531,4.23334 0.44904,3.14333 0.83824,5.26575 0.99421,5.42172 0.1854,0.1854 5.5977,0.93316 5.73809,0.79277 0.1687,-0.1687 -0.54142,-4.53297 -1.80762,-11.10928 -0.3082,-1.60073 -0.74181,-3.9216 -0.96358,-5.15748 -0.22177,-1.23588 -0.44204,-2.28588 -0.48949,-2.33334 -0.0475,-0.0475 -0.6507,-0.16737 -1.34054,-0.26648 -2.22542,-0.31974 -2.9734,-2.29305 -1.11476,-2.94098 2.40045,-0.8368 10.01677,-0.986 14.35583,-0.28123 5.19231,0.84337 10.7649,3.69619 13.48824,6.90516 1.6977,2.00043 2.45566,3.352 3.22811,5.75621 1.21802,3.79102 1.03704,7.5218 -0.55623,11.46634 l -0.64284,1.59151 15.92157,-0.0764 c 14.83353,-0.0712 16.00293,-0.0438 17.11219,0.40092 1.74782,0.7007 2.47246,1.58938 2.27957,2.79561 -0.25501,1.59477 -1.24275,3.78845 -2.05482,4.56359 -1.22782,1.172 -2.6552,1.04174 -12.39558,-1.13116 -4.48136,-0.99971 -7.2166,-1.56309 -10.31875,-2.12537 -5.69826,-1.03283 -9.83317,-2.12081 -10.46625,-2.75389 l -0.58766,-0.58766 -0.41638,0.87317 c -0.55034,1.15407 -3.11506,3.14663 -4.93388,3.83319 -2.67659,1.01035 -5.14658,1.33109 -10.18646,1.32278 -2.61937,-0.004 -5.11968,-0.0677 -5.55625,-0.14077 -0.43656,-0.0731 -1.50812,-0.19957 -2.38125,-0.28103 -0.87312,-0.0815 -2.59953,-0.3231 -3.83645,-0.53696 -1.23693,-0.21386 -2.39608,-0.38921 -2.57588,-0.38968 -0.17981,-4.6e-4 -0.67611,0.69089 -1.10289,1.53634 -0.8718,1.72702 -1.17709,2.04752 -2.19334,2.30258 -0.64176,0.16107 -1.02187,-0.13524 -3.96727,-3.09265 z m 28.19246,-10.01816 c 2.49955,-1.24834 3.28696,-2.95906 2.83094,-6.15044 -0.48236,-3.37577 -0.71565,-3.87439 -2.72312,-5.82021 -1.01843,-0.98716 -2.22524,-1.97237 -2.68181,-2.18937 -0.45658,-0.217 -1.56572,-0.79849 -2.46476,-1.29222 -1.73342,-0.95193 -4.88623,-2.00313 -7.90704,-2.63634 -1.0062,-0.21092 -1.85169,-0.36126 -1.87886,-0.33409 -0.0464,0.0464 1.16609,4.16636 2.27123,7.71767 2.15008,6.90922 3.58261,11.14555 3.8297,11.32533 0.16088,0.11706 1.90129,0.16932 3.86758,0.11615 3.13664,-0.0848 3.73217,-0.17515 4.85614,-0.73648 z m 13.88404,-6.47166 c -1.30841,-2.1407 -0.11702,-2.75325 7.70029,-3.95907 7.53359,-1.16207 8.38419,-0.88017 7.26646,2.40814 -0.82422,2.42483 -0.55124,2.34468 -7.98522,2.34468 h -6.49638 z m -7.97597,-11.36311 c -0.56325,-0.56324 -0.85975,-1.69309 -0.53067,-2.02217 0.13732,-0.13731 2.56343,-0.7187 5.39136,-1.29197 5.7446,-1.16453 10.4198,-2.33725 16.27737,-4.08299 6.99182,-2.08379 8.72375,-2.35709 10.17642,-1.60589 0.92922,0.48052 0.99801,1.15197 0.31759,3.09969 -0.70516,2.01854 -1.45163,2.44448 -5.63162,3.21341 -7.11051,1.30802 -16.23332,2.48065 -23.02429,2.9595 -2.17694,0.1535 -2.59055,0.11604 -2.97616,-0.26958 z"
         id="path1" /></g></g></svg>
